{"glyphs":{"0":{"ha":850,"x_min":67,"x_max":783,"o":"m 308 486 q 343 568 308 533 q 425 603 378 603 q 507 568 472 603 q 542 486 542 533 q 507 404 542 439 q 425 369 472 369 q 343 404 378 369 q 308 486 308 439 m 67 594 q 162 888 67 783 q 425 992 257 992 q 688 888 593 992 q 783 594 783 783 l 783 378 q 688 82 783 183 q 425 -19 593 -19 q 162 82 257 -19 q 67 378 67 183 l 67 594 m 425 147 q 508 163 475 147 q 563 208 542 179 q 592 278 583 238 q 600 367 600 318 l 600 606 q 590 692 600 651 q 560 761 581 732 q 506 808 539 790 q 425 825 472 825 q 344 808 378 825 q 290 761 311 790 q 260 692 269 732 q 250 606 250 651 l 250 367 q 258 278 250 318 q 288 208 267 238 q 342 163 308 179 q 425 147 375 147 z "},"1":{"ha":850,"x_min":75,"x_max":792,"o":"m 367 175 l 367 881 l 342 881 l 250 547 l 75 547 l 75 564 l 192 972 l 550 972 l 550 175 l 792 175 l 792 0 l 92 0 l 92 175 l 367 175 z "},"2":{"ha":850,"x_min":82,"x_max":782,"o":"m 774 175 l 774 0 l 90 0 l 90 192 q 113 322 90 268 q 178 414 136 376 q 281 476 221 451 q 415 517 340 500 q 506 545 471 529 q 563 581 542 561 q 591 626 583 601 q 599 681 599 650 q 556 778 599 739 q 439 817 514 817 q 313 769 360 817 q 265 636 265 721 l 265 575 l 82 575 l 82 653 q 106 783 82 721 q 176 891 131 844 q 286 965 221 938 q 433 992 351 992 q 586 966 521 992 q 695 899 651 940 q 760 802 739 857 q 782 689 782 747 l 782 672 q 713 469 782 550 q 489 353 644 389 q 381 322 424 338 q 315 286 339 306 q 283 244 292 267 q 274 192 274 221 l 274 175 l 774 175 z "},"3":{"ha":850,"x_min":81,"x_max":772,"o":"m 331 417 l 331 706 l 572 772 l 572 797 l 89 797 l 89 972 l 722 972 l 722 667 l 464 592 l 464 567 l 497 567 q 599 551 549 567 q 687 501 649 535 q 749 419 725 468 q 772 303 772 369 l 772 286 q 751 165 772 221 q 687 69 729 110 q 582 4 644 28 q 439 -19 519 -19 q 290 7 357 -19 q 177 79 224 33 q 106 185 131 125 q 81 311 81 244 l 81 369 l 264 369 l 264 319 q 307 204 264 253 q 436 156 350 156 q 549 193 510 156 q 589 292 589 231 q 547 387 589 357 q 439 417 504 417 l 331 417 z "},"4":{"ha":850,"x_min":53,"x_max":811,"o":"m 322 972 l 669 972 l 669 358 l 811 358 l 811 183 l 669 183 l 669 0 l 486 0 l 486 183 l 53 183 l 53 436 l 322 972 m 211 383 l 211 358 l 486 358 l 486 881 l 461 881 l 211 383 z "},"5":{"ha":850,"x_min":75,"x_max":808,"o":"m 92 433 l 92 972 l 742 972 l 742 797 l 275 797 l 275 533 l 300 533 q 373 627 319 588 q 517 667 426 667 q 639 643 585 667 q 731 578 693 619 q 788 478 768 536 q 808 350 808 419 l 808 342 q 784 203 808 268 q 713 88 760 138 q 599 10 667 39 q 442 -19 531 -19 q 285 5 353 -19 q 170 73 217 29 q 99 177 124 117 q 75 308 75 238 l 75 342 l 258 342 l 258 325 q 303 203 258 251 q 436 156 349 156 q 574 203 524 156 q 625 333 625 250 q 588 452 625 413 q 489 492 550 492 q 424 474 449 492 q 392 433 399 457 l 92 433 z "},"6":{"ha":850,"x_min":79,"x_max":771,"o":"m 571 697 q 535 781 571 746 q 425 817 500 817 q 306 773 350 817 q 263 658 263 729 l 263 533 l 288 533 q 364 612 311 582 q 483 642 417 642 q 596 620 543 642 q 688 559 649 599 q 749 463 726 519 q 771 333 771 406 l 771 317 q 747 181 771 243 q 677 75 722 119 q 568 6 632 31 q 425 -19 504 -19 q 290 4 353 -19 q 180 70 226 28 q 106 172 133 113 q 79 301 79 231 l 79 656 q 107 794 79 732 q 182 901 135 857 q 291 968 229 944 q 422 992 353 992 q 552 972 492 992 q 658 913 613 951 q 728 820 703 875 q 754 697 754 765 l 571 697 m 425 156 q 542 198 496 156 q 588 311 588 240 q 542 424 588 382 q 425 467 496 467 q 308 424 354 467 q 263 311 263 382 q 308 198 263 240 q 425 156 354 156 z "},"7":{"ha":850,"x_min":83,"x_max":767,"o":"m 83 972 l 767 972 l 767 686 l 415 172 q 372 101 388 131 q 356 33 356 71 l 356 0 l 158 0 l 158 42 q 163 92 158 69 q 176 136 167 114 q 200 183 185 158 q 238 242 215 208 l 600 772 l 600 797 l 83 797 l 83 972 z "},"8":{"ha":850,"x_min":71,"x_max":779,"o":"m 425 -19 q 278 1 343 -19 q 167 57 213 21 q 96 142 121 93 q 71 253 71 192 l 71 261 q 85 351 71 313 q 124 418 100 390 q 179 464 149 446 q 243 492 210 482 l 243 517 q 187 546 214 528 q 140 590 160 564 q 108 651 119 615 q 96 731 96 686 l 96 739 q 124 846 96 799 q 197 926 151 893 q 302 975 243 958 q 425 992 361 992 q 548 975 489 992 q 653 926 607 958 q 726 846 699 893 q 754 739 754 799 l 754 731 q 742 651 754 686 q 710 590 731 615 q 663 546 690 564 q 607 517 636 528 l 607 492 q 671 464 640 482 q 726 418 701 446 q 765 351 750 390 q 779 261 779 313 l 779 253 q 754 142 779 192 q 683 56 729 92 q 572 1 638 21 q 425 -19 506 -19 m 425 156 q 551 192 507 156 q 596 286 596 229 q 551 380 596 343 q 425 417 507 417 q 299 380 343 417 q 254 286 254 343 q 299 192 254 229 q 425 156 343 156 m 425 817 q 321 785 363 817 q 279 704 279 753 q 321 624 279 656 q 425 592 363 592 q 529 624 488 592 q 571 704 571 656 q 529 785 571 753 q 425 817 488 817 z "},"9":{"ha":850,"x_min":79,"x_max":771,"o":"m 279 275 q 315 191 279 226 q 425 156 350 156 q 544 199 500 156 q 588 314 588 243 l 588 439 l 563 439 q 499 360 543 390 q 372 331 454 331 q 256 353 310 331 q 163 418 203 376 q 101 518 124 460 q 79 647 79 576 l 79 664 q 104 794 79 733 q 174 898 129 854 q 284 967 219 942 q 428 992 349 992 q 563 968 500 992 q 672 902 626 944 q 744 801 718 860 q 771 671 771 742 l 771 317 q 744 175 771 238 q 672 69 718 113 q 565 3 626 26 q 431 -19 503 -19 q 299 1 360 -19 q 192 59 238 21 q 122 151 147 97 q 96 275 96 206 l 279 275 m 425 817 q 308 774 354 817 q 263 661 263 732 q 308 548 263 590 q 425 506 354 506 q 542 548 496 506 q 588 661 588 590 q 542 774 588 732 q 425 817 496 817 z "},"\u0000":{"ha":850,"x_min":0,"x_max":0,"o":""}," ":{"ha":850,"x_min":0,"x_max":0,"o":""},"A":{"ha":850,"x_min":21,"x_max":829,"o":"m 590 208 l 260 208 l 213 0 l 21 0 l 253 972 l 597 972 l 829 0 l 638 0 l 590 208 m 299 383 l 550 383 l 438 881 l 413 881 l 299 383 z "},"B":{"ha":850,"x_min":64,"x_max":778,"o":"m 64 175 l 156 175 l 156 797 l 64 797 l 64 972 l 490 972 q 613 953 560 972 q 703 900 667 933 q 759 820 740 867 q 778 719 778 774 l 778 703 q 731 569 778 619 q 614 500 685 519 l 614 475 q 731 405 685 456 q 778 271 778 354 l 778 254 q 759 153 778 200 q 703 73 740 107 q 613 19 667 39 q 490 0 560 0 l 64 0 l 64 175 m 339 175 l 472 175 q 567 200 531 175 q 603 283 603 225 l 603 292 q 567 375 603 350 q 472 400 531 400 l 339 400 l 339 175 m 339 575 l 472 575 q 567 599 531 575 q 603 682 603 624 l 603 690 q 567 773 603 749 q 472 797 531 797 l 339 797 l 339 575 z "},"C":{"ha":850,"x_min":67,"x_max":783,"o":"m 428 147 q 515 163 481 147 q 567 206 549 179 q 593 269 586 233 q 600 342 600 304 l 600 367 l 783 367 l 783 342 q 692 74 783 168 q 428 -19 601 -19 q 164 82 261 -19 q 67 378 67 183 l 67 594 q 92 762 67 688 q 164 887 117 836 q 278 965 211 938 q 428 992 344 992 q 581 967 514 992 q 692 894 647 942 q 760 781 738 847 q 783 631 783 714 l 783 606 l 600 606 l 600 631 q 592 700 600 665 q 564 763 583 735 q 511 808 544 790 q 428 825 478 825 q 349 808 382 825 q 293 760 315 790 q 260 691 271 731 q 250 608 250 651 l 250 364 q 260 277 250 317 q 290 208 269 238 q 345 163 311 179 q 428 147 379 147 z "},"D":{"ha":850,"x_min":64,"x_max":772,"o":"m 64 972 l 417 972 q 685 888 597 972 q 772 628 772 804 l 772 344 q 685 84 772 168 q 417 0 597 0 l 64 0 l 64 176 l 156 176 l 156 797 l 64 797 l 64 972 m 417 175 q 551 220 513 175 q 589 361 589 265 l 589 628 q 551 754 589 711 q 417 797 513 797 l 339 797 l 339 175 l 417 175 z "},"E":{"ha":850,"x_min":114,"x_max":744,"o":"m 114 972 l 728 972 l 728 797 l 297 797 l 297 575 l 711 575 l 711 400 l 297 400 l 297 175 l 744 175 l 744 0 l 114 0 l 114 972 z "},"F":{"ha":850,"x_min":122,"x_max":744,"o":"m 122 972 l 744 972 l 744 797 l 306 797 l 306 575 l 736 575 l 736 400 l 306 400 l 306 0 l 122 0 l 122 972 z "},"G":{"ha":850,"x_min":61,"x_max":778,"o":"m 361 492 l 778 492 l 778 0 l 611 0 l 611 108 l 586 108 q 522 17 569 54 q 381 -19 475 -19 q 256 6 314 -19 q 154 80 197 31 q 86 202 111 129 q 61 372 61 275 l 61 600 q 88 767 61 694 q 163 890 115 840 q 278 966 211 940 q 425 992 344 992 q 574 965 508 992 q 685 890 639 938 q 754 777 731 842 q 778 639 778 713 l 778 622 l 594 622 l 594 639 q 549 772 594 726 q 422 817 504 817 q 294 765 344 817 q 244 586 244 713 l 244 381 q 428 156 244 156 q 552 199 510 156 q 594 317 594 243 l 361 317 l 361 492 z "},"H":{"ha":850,"x_min":85,"x_max":765,"o":"m 85 972 l 268 972 l 268 575 l 582 575 l 582 972 l 765 972 l 765 0 l 582 0 l 582 400 l 268 400 l 268 0 l 85 0 l 85 972 z "},"I":{"ha":850,"x_min":100,"x_max":750,"o":"m 100 972 l 750 972 l 750 797 l 517 797 l 517 175 l 750 175 l 750 0 l 100 0 l 100 175 l 333 175 l 333 797 l 100 797 l 100 972 z "},"J":{"ha":850,"x_min":85,"x_max":801,"o":"m 718 292 q 636 60 718 140 q 411 -19 554 -19 q 278 1 338 -19 q 175 60 218 21 q 108 158 132 100 q 85 292 85 215 l 85 383 l 268 383 l 268 292 q 304 190 268 226 q 406 153 340 153 q 501 189 467 153 q 535 292 535 225 l 535 800 l 435 800 l 435 972 l 801 972 l 801 800 l 718 800 l 718 292 z "},"K":{"ha":850,"x_min":107,"x_max":811,"o":"m 290 0 l 107 0 l 107 972 l 290 972 l 290 574 l 331 574 l 588 972 l 794 972 l 794 964 l 494 499 l 494 474 l 811 8 l 811 0 l 596 0 l 331 399 l 290 399 l 290 0 z "},"L":{"ha":850,"x_min":114,"x_max":739,"o":"m 114 972 l 297 972 l 297 175 l 739 175 l 739 0 l 114 0 l 114 972 z "},"M":{"ha":850,"x_min":31,"x_max":819,"o":"m 31 972 l 353 972 l 408 242 l 408 100 l 442 100 l 442 242 l 497 972 l 819 972 l 819 0 l 653 0 l 653 650 l 669 872 l 636 872 l 564 0 l 289 0 l 214 872 l 181 872 l 197 650 l 197 0 l 31 0 l 31 972 z "},"N":{"ha":850,"x_min":85,"x_max":765,"o":"m 557 92 l 582 92 l 582 972 l 765 972 l 765 0 l 407 0 l 293 881 l 268 881 l 268 0 l 85 0 l 85 972 l 443 972 l 557 92 z "},"O":{"ha":850,"x_min":67,"x_max":783,"o":"m 67 594 q 162 888 67 783 q 425 992 257 992 q 688 888 593 992 q 783 594 783 783 l 783 378 q 688 82 783 183 q 425 -19 593 -19 q 162 82 257 -19 q 67 378 67 183 l 67 594 m 425 147 q 508 163 475 147 q 563 208 542 179 q 592 278 583 238 q 600 367 600 318 l 600 606 q 590 692 600 651 q 560 761 581 732 q 506 808 539 790 q 425 825 472 825 q 344 808 378 825 q 290 761 311 790 q 260 692 269 732 q 250 606 250 651 l 250 367 q 258 278 250 318 q 288 208 267 238 q 342 163 308 179 q 425 147 375 147 z "},"P":{"ha":850,"x_min":100,"x_max":778,"o":"m 283 367 l 283 0 l 100 0 l 100 972 l 481 972 q 611 948 556 972 q 703 884 667 924 q 759 794 740 844 q 778 690 778 743 l 778 657 q 759 551 778 603 q 703 458 740 499 q 611 392 667 417 q 481 367 556 367 l 283 367 m 283 542 l 463 542 q 559 575 524 542 q 594 661 594 608 l 594 678 q 559 764 594 731 q 463 797 524 797 l 283 797 l 283 542 z "},"Q":{"ha":850,"x_min":67,"x_max":783,"o":"m 338 -11 q 138 111 208 13 q 67 378 67 210 l 67 594 q 162 888 67 783 q 425 992 257 992 q 688 888 593 992 q 783 594 783 783 l 783 378 q 712 111 783 210 q 513 -11 640 13 l 513 -36 q 547 -75 513 -75 l 633 -75 l 633 -242 l 469 -242 q 375 -203 413 -242 q 338 -108 338 -165 l 338 -11 m 425 147 q 508 164 475 147 q 563 210 542 181 q 592 280 583 239 q 600 369 600 321 l 600 603 q 590 689 600 649 q 560 760 581 729 q 506 808 539 790 q 425 825 472 825 q 344 808 378 825 q 290 760 311 790 q 260 689 269 729 q 250 603 250 649 l 250 369 q 258 280 250 321 q 288 210 267 239 q 342 164 308 181 q 425 147 375 147 z "},"R":{"ha":850,"x_min":101,"x_max":779,"o":"m 754 0 l 571 0 l 571 292 q 553 346 571 325 q 496 367 536 367 l 285 367 l 285 0 l 101 0 l 101 972 l 474 972 q 606 951 549 972 q 701 894 663 931 q 759 808 739 857 q 779 704 779 760 l 779 671 q 747 559 779 611 q 649 479 715 507 l 649 454 q 726 417 697 449 q 754 336 754 385 l 754 0 m 285 542 l 460 542 q 561 573 526 542 q 596 661 596 604 l 596 678 q 561 762 596 726 q 460 797 526 797 l 285 797 l 285 542 z "},"S":{"ha":850,"x_min":50,"x_max":792,"o":"m 592 675 q 547 776 592 733 q 419 819 501 819 q 310 791 350 819 q 269 714 269 763 q 279 669 269 689 q 313 633 289 649 q 377 604 338 617 q 478 581 417 592 q 711 488 631 553 q 792 294 792 422 l 792 278 q 767 155 792 210 q 697 61 743 100 q 586 1 651 22 q 439 -19 521 -19 q 270 8 343 -19 q 149 83 197 35 q 75 195 100 131 q 50 336 50 260 l 50 378 l 233 378 l 233 344 q 284 205 233 257 q 442 153 335 153 q 565 189 525 153 q 606 275 606 225 q 597 320 606 299 q 568 359 589 342 q 511 390 547 376 q 419 414 475 404 q 285 447 346 426 q 178 500 224 467 q 108 583 133 533 q 83 706 83 633 l 83 714 q 108 824 83 774 q 176 913 132 875 q 281 971 219 950 q 419 992 343 992 q 572 967 506 992 q 684 901 639 943 q 752 806 729 860 q 775 692 775 751 l 775 642 l 592 642 l 592 675 z "},"T":{"ha":850,"x_min":75,"x_max":775,"o":"m 75 972 l 775 972 l 775 797 l 517 797 l 517 0 l 333 0 l 333 797 l 75 797 l 75 972 z "},"U":{"ha":850,"x_min":75,"x_max":775,"o":"m 775 972 l 775 336 q 687 75 775 169 q 425 -19 599 -19 q 163 75 251 -19 q 75 336 75 169 l 75 972 l 258 972 l 258 336 q 299 201 258 250 q 425 153 339 153 q 551 201 511 153 q 592 336 592 250 l 592 972 l 775 972 z "},"V":{"ha":850,"x_min":33,"x_max":817,"o":"m 33 972 l 222 972 l 413 92 l 438 92 l 628 972 l 817 972 l 597 0 l 253 0 l 33 972 z "},"W":{"ha":850,"x_min":11,"x_max":839,"o":"m 806 0 l 486 0 l 442 739 l 442 872 l 408 872 l 408 739 l 364 0 l 44 0 l 11 972 l 178 972 l 200 233 l 200 108 l 233 108 l 233 233 l 278 972 l 572 972 l 617 233 l 617 108 l 650 108 l 650 233 l 672 972 l 839 972 l 806 0 z "},"X":{"ha":850,"x_min":46,"x_max":804,"o":"m 244 972 l 408 575 l 442 575 l 606 972 l 804 972 l 604 500 l 604 475 l 804 0 l 606 0 l 442 400 l 408 400 l 244 0 l 46 0 l 246 475 l 246 500 l 46 972 l 244 972 z "},"Y":{"ha":850,"x_min":13,"x_max":838,"o":"m 333 342 l 292 342 l 13 972 l 213 972 l 413 508 l 438 508 l 638 972 l 838 972 l 558 342 l 517 342 l 517 0 l 333 0 l 333 342 z "},"Z":{"ha":850,"x_min":65,"x_max":782,"o":"m 74 972 l 765 972 l 765 672 l 215 200 l 215 175 l 782 175 l 782 0 l 65 0 l 65 300 l 615 772 l 615 797 l 74 797 l 74 972 z "},"a":{"ha":850,"x_min":56,"x_max":806,"o":"m 554 100 q 476 8 526 35 q 360 -19 426 -19 q 242 4 297 -19 q 146 74 188 28 q 80 185 104 119 q 56 333 56 250 l 56 356 q 79 503 56 438 q 143 614 103 568 q 237 684 183 660 q 351 708 290 708 q 470 683 425 708 q 542 606 515 658 l 567 606 l 567 689 l 742 689 l 742 208 q 779 167 742 167 l 806 167 l 806 0 l 686 0 q 609 28 639 0 q 579 100 579 56 l 554 100 m 399 147 q 521 198 475 147 q 567 336 567 249 l 567 353 q 521 491 567 440 q 399 542 475 542 q 276 491 322 542 q 231 353 231 440 l 231 336 q 276 198 231 249 q 399 147 322 147 z "},"b":{"ha":850,"x_min":79,"x_max":796,"o":"m 254 0 l 79 0 l 79 972 l 254 972 l 254 589 l 279 589 q 360 677 307 646 q 494 708 413 708 q 610 685 556 708 q 706 616 665 661 q 772 506 747 571 q 796 357 796 440 l 796 332 q 772 182 796 247 q 708 72 749 117 q 613 3 668 26 q 494 -19 558 -19 q 413 -10 447 -19 q 352 17 378 0 q 309 55 326 33 q 279 100 292 76 l 254 100 l 254 0 m 438 147 q 570 198 519 147 q 621 336 621 249 l 621 353 q 570 491 621 440 q 438 542 519 542 q 305 490 356 542 q 254 353 254 438 l 254 336 q 305 199 254 251 q 438 147 356 147 z "},"c":{"ha":850,"x_min":72,"x_max":781,"o":"m 781 253 q 669 56 757 131 q 433 -19 581 -19 q 291 4 357 -19 q 176 72 225 28 q 100 182 128 117 q 72 331 72 247 l 72 347 q 100 497 72 431 q 177 611 128 564 q 292 683 226 658 q 433 708 358 708 q 667 633 578 708 q 781 436 757 558 l 608 392 q 556 497 600 453 q 431 542 511 542 q 360 528 393 542 q 301 488 326 514 q 262 426 276 463 q 247 343 247 389 l 247 335 q 262 253 247 289 q 301 194 276 218 q 360 159 326 171 q 431 147 393 147 q 553 188 511 147 q 608 296 596 228 l 781 253 z "},"d":{"ha":850,"x_min":61,"x_max":778,"o":"m 603 100 l 578 100 q 551 55 567 76 q 509 17 535 33 q 448 -10 483 0 q 363 -19 413 -19 q 244 3 299 -19 q 148 72 189 26 q 84 182 107 117 q 61 332 61 247 l 61 357 q 85 506 61 440 q 152 616 110 571 q 251 685 194 661 q 369 708 307 708 q 501 677 453 708 q 578 589 550 646 l 603 589 l 603 972 l 778 972 l 778 0 l 603 0 l 603 100 m 419 147 q 552 199 501 147 q 603 336 603 251 l 603 353 q 552 490 603 438 q 419 542 501 542 q 287 491 338 542 q 236 353 236 440 l 236 336 q 287 198 236 249 q 419 147 338 147 z "},"e":{"ha":850,"x_min":82,"x_max":768,"o":"m 263 288 q 277 231 264 257 q 313 187 290 206 q 366 158 336 168 q 429 147 396 147 q 529 170 494 147 q 579 225 564 193 l 729 142 q 694 87 717 115 q 637 35 672 58 q 551 -4 601 11 q 432 -19 500 -19 q 290 6 354 -19 q 180 78 226 31 q 108 193 133 125 q 82 347 82 261 l 82 356 q 109 500 82 435 q 183 611 136 565 q 294 683 231 657 q 429 708 357 708 q 582 677 518 708 q 688 598 646 646 q 749 492 729 550 q 768 381 768 435 l 768 288 l 263 288 m 428 550 q 319 516 361 550 q 265 438 278 482 l 590 438 q 538 518 582 486 q 428 550 494 550 z "},"f":{"ha":850,"x_min":103,"x_max":744,"o":"m 103 689 l 299 689 l 299 831 q 339 931 299 890 q 439 972 379 972 l 719 972 l 719 806 l 511 806 q 474 764 474 806 l 474 689 l 744 689 l 744 522 l 474 522 l 474 0 l 299 0 l 299 522 l 103 522 l 103 689 z "},"g":{"ha":850,"x_min":58,"x_max":775,"o":"m 600 100 l 575 100 q 548 55 564 76 q 506 17 532 33 q 445 -10 481 0 q 360 -19 410 -19 q 241 3 296 -19 q 145 72 186 26 q 81 182 104 117 q 58 332 58 247 l 58 357 q 83 506 58 440 q 149 616 107 571 q 248 685 192 661 q 367 708 304 708 q 499 677 450 708 q 575 589 547 646 l 600 589 l 600 689 l 775 689 l 775 -169 q 745 -247 775 -217 q 668 -278 715 -278 l 204 -278 l 204 -111 l 563 -111 q 600 -69 600 -111 l 600 100 m 417 147 q 549 199 499 147 q 600 336 600 251 l 600 353 q 549 490 600 438 q 417 542 499 542 q 284 491 335 542 q 233 353 233 440 l 233 336 q 284 198 233 249 q 417 147 335 147 z "},"h":{"ha":850,"x_min":111,"x_max":753,"o":"m 286 0 l 111 0 l 111 972 l 286 972 l 286 578 l 311 578 q 389 674 338 640 q 515 708 440 708 q 610 692 567 708 q 685 642 653 675 q 735 556 717 608 q 753 433 753 504 l 753 0 l 578 0 l 578 392 q 542 508 578 465 q 440 550 507 550 q 324 498 363 550 q 286 358 286 446 l 286 0 z "},"i":{"ha":850,"x_min":121,"x_max":729,"o":"m 121 167 l 354 167 l 354 522 l 138 522 l 138 689 l 529 689 l 529 167 l 729 167 l 729 0 l 121 0 l 121 167 m 572 893 q 562 841 572 865 q 533 799 551 817 q 491 772 515 782 q 440 761 467 761 q 389 772 413 761 q 347 799 365 782 q 319 841 329 817 q 308 893 308 865 q 319 945 308 921 q 347 987 329 969 q 389 1015 365 1004 q 440 1025 413 1025 q 491 1015 467 1025 q 533 987 515 1004 q 562 945 551 969 q 572 893 572 921 z "},"j":{"ha":850,"x_min":150,"x_max":658,"o":"m 175 689 l 617 689 l 617 -136 q 578 -243 617 -208 q 476 -278 539 -278 l 150 -278 l 150 -111 l 400 -111 q 442 -65 442 -111 l 442 522 l 175 522 l 175 689 m 658 893 q 648 841 658 865 q 619 799 638 817 q 577 772 601 782 q 526 761 553 761 q 475 772 499 761 q 433 799 451 782 q 405 841 415 817 q 394 893 394 865 q 405 945 394 921 q 433 987 415 969 q 475 1015 451 1004 q 526 1025 499 1025 q 577 1015 553 1025 q 619 987 601 1004 q 648 945 638 969 q 658 893 658 921 z "},"k":{"ha":850,"x_min":164,"x_max":769,"o":"m 339 436 l 372 436 l 556 689 l 747 689 l 747 681 l 525 365 l 525 340 l 769 8 l 769 0 l 569 0 l 372 269 l 339 269 l 339 0 l 164 0 l 164 972 l 339 972 l 339 436 z "},"l":{"ha":850,"x_min":104,"x_max":746,"o":"m 104 167 l 346 167 l 346 806 l 113 806 l 113 972 l 521 972 l 521 167 l 746 167 l 746 0 l 104 0 l 104 167 z "},"m":{"ha":850,"x_min":50,"x_max":800,"o":"m 800 0 l 625 0 l 625 483 q 610 527 625 513 q 572 542 596 542 q 528 525 544 542 q 513 475 513 508 l 513 0 l 338 0 l 338 483 q 322 527 338 513 q 283 542 306 542 q 242 525 258 542 q 225 475 225 508 l 225 0 l 50 0 l 50 689 l 225 689 l 225 622 l 250 622 q 288 684 258 660 q 367 708 318 708 q 444 684 413 708 q 488 622 476 660 l 513 622 q 559 684 524 660 q 647 708 594 708 q 758 662 717 708 q 800 533 800 615 l 800 0 z "},"n":{"ha":850,"x_min":108,"x_max":750,"o":"m 283 0 l 108 0 l 108 689 l 283 689 l 283 586 l 308 586 q 385 676 332 644 q 508 708 438 708 q 602 692 558 708 q 679 643 646 676 q 731 558 713 610 q 750 436 750 507 l 750 0 l 575 0 l 575 392 q 540 508 575 465 q 438 550 504 550 q 322 498 360 550 q 283 358 283 446 l 283 0 z "},"o":{"ha":850,"x_min":67,"x_max":783,"o":"m 783 336 q 754 184 783 250 q 675 73 725 118 q 560 4 625 28 q 425 -19 496 -19 q 290 4 354 -19 q 175 73 225 28 q 96 184 125 118 q 67 336 67 250 l 67 353 q 96 503 67 438 q 175 615 125 569 q 290 685 225 661 q 425 708 354 708 q 560 685 496 708 q 675 615 625 661 q 754 503 725 569 q 783 353 783 438 l 783 336 m 425 147 q 496 160 463 147 q 554 196 529 172 q 594 253 579 219 q 608 331 608 288 l 608 358 q 594 435 608 401 q 554 493 579 469 q 496 529 529 517 q 425 542 463 542 q 354 529 388 542 q 296 493 321 517 q 256 435 271 469 q 242 358 242 401 l 242 331 q 256 253 242 288 q 296 196 271 219 q 354 160 321 172 q 425 147 388 147 z "},"p":{"ha":850,"x_min":72,"x_max":789,"o":"m 247 -278 l 72 -278 l 72 689 l 247 689 l 247 589 l 272 589 q 353 677 300 646 q 488 708 406 708 q 603 685 549 708 q 699 616 658 661 q 765 506 740 571 q 789 357 789 440 l 789 332 q 765 182 789 247 q 701 72 742 117 q 606 3 661 26 q 488 -19 551 -19 q 406 -10 440 -19 q 345 17 371 0 q 302 55 319 33 q 272 100 285 76 l 247 100 l 247 -278 m 431 147 q 563 198 513 147 q 614 336 614 249 l 614 353 q 563 491 614 440 q 431 542 513 542 q 298 490 349 542 q 247 353 247 438 l 247 336 q 298 199 247 251 q 431 147 349 147 z "},"q":{"ha":850,"x_min":61,"x_max":778,"o":"m 603 100 l 578 100 q 551 55 567 76 q 509 17 535 33 q 448 -10 483 0 q 363 -19 413 -19 q 244 3 299 -19 q 148 72 189 26 q 84 182 107 117 q 61 332 61 247 l 61 357 q 85 506 61 440 q 152 616 110 571 q 251 685 194 661 q 369 708 307 708 q 501 677 453 708 q 578 589 550 646 l 603 589 l 603 689 l 778 689 l 778 -278 l 603 -278 l 603 100 m 419 147 q 552 199 501 147 q 603 336 603 251 l 603 353 q 552 490 603 438 q 419 542 501 542 q 287 491 338 542 q 236 353 236 440 l 236 336 q 287 198 236 249 q 419 147 338 147 z "},"r":{"ha":850,"x_min":58,"x_max":797,"o":"m 75 689 l 367 689 l 367 589 l 392 589 q 458 677 411 646 q 569 708 504 708 q 735 644 672 708 q 797 447 797 579 l 797 417 l 617 400 l 617 419 q 588 510 617 476 q 500 544 558 544 q 408 504 442 544 q 375 389 375 464 l 375 167 l 533 167 l 533 0 l 58 0 l 58 167 l 200 167 l 200 522 l 75 522 l 75 689 z "},"s":{"ha":850,"x_min":125,"x_max":728,"o":"m 328 494 q 363 447 328 461 q 489 422 397 432 q 661 359 594 411 q 728 214 728 307 l 728 206 q 653 42 728 103 q 442 -19 578 -19 q 304 1 361 -19 q 210 53 247 22 q 152 123 172 85 q 125 197 132 161 l 286 250 q 333 172 297 206 q 442 139 368 139 q 531 159 507 139 q 556 203 556 179 q 549 228 556 217 q 526 251 543 240 q 481 268 510 261 q 410 279 453 275 q 224 340 293 289 q 156 489 156 390 l 156 497 q 178 588 156 549 q 236 653 200 626 q 319 694 272 681 q 417 708 367 708 q 530 692 482 708 q 611 651 578 676 q 665 594 644 625 q 697 533 686 563 l 539 469 q 496 528 526 507 q 417 550 465 550 q 350 534 372 550 q 328 494 328 518 z "},"t":{"ha":850,"x_min":89,"x_max":717,"o":"m 89 689 l 293 689 l 293 972 l 468 972 l 468 689 l 717 689 l 717 522 l 468 522 l 468 208 q 506 167 468 167 l 692 167 l 692 0 l 400 0 q 323 31 353 0 q 293 108 293 61 l 293 522 l 89 522 l 89 689 z "},"u":{"ha":850,"x_min":108,"x_max":750,"o":"m 575 689 l 750 689 l 750 0 l 575 0 l 575 100 l 550 100 q 353 -19 504 -19 q 257 -3 301 -19 q 179 49 213 14 q 127 135 146 83 q 108 258 108 188 l 108 689 l 283 689 l 283 294 q 318 180 283 221 q 422 139 353 139 q 538 190 501 139 q 575 328 575 240 l 575 689 z "},"v":{"ha":850,"x_min":60,"x_max":788,"o":"m 60 689 l 249 689 l 411 83 l 436 83 l 599 689 l 788 689 l 590 0 l 257 0 l 60 689 z "},"w":{"ha":850,"x_min":21,"x_max":829,"o":"m 783 0 l 481 0 l 442 522 l 442 606 l 408 606 l 408 522 l 369 0 l 67 0 l 21 689 l 182 689 l 213 167 l 213 83 l 246 83 l 246 167 l 281 689 l 569 689 l 604 167 l 604 83 l 638 83 l 638 167 l 668 689 l 829 689 l 783 0 z "},"x":{"ha":850,"x_min":82,"x_max":768,"o":"m 565 689 l 758 689 l 592 365 l 592 340 l 768 0 l 567 0 l 438 269 l 413 269 l 283 0 l 82 0 l 258 340 l 258 365 l 90 689 l 285 689 l 413 436 l 438 436 l 565 689 z "},"y":{"ha":850,"x_min":108,"x_max":750,"o":"m 575 689 l 750 689 l 750 -169 q 720 -247 750 -217 q 643 -278 690 -278 l 233 -278 l 233 -111 l 538 -111 q 575 -69 575 -111 l 575 100 l 550 100 q 353 -19 504 -19 q 257 -3 301 -19 q 179 49 213 14 q 127 135 146 83 q 108 258 108 188 l 108 689 l 283 689 l 283 294 q 318 180 283 221 q 422 139 353 139 q 538 190 501 139 q 575 328 575 240 l 575 689 z "},"z":{"ha":850,"x_min":126,"x_max":726,"o":"m 726 167 l 726 0 l 126 0 l 126 292 l 560 503 l 560 528 l 135 528 l 135 689 l 710 689 l 710 406 l 276 192 l 276 167 l 726 167 z "},"[":{"ha":850,"x_min":328,"x_max":653,"o":"m 328 1047 q 367 1149 328 1110 q 469 1189 407 1189 l 653 1189 l 653 1022 l 540 1022 q 503 981 503 1022 l 503 -8 q 540 -50 503 -50 l 653 -50 l 653 -217 l 469 -217 q 367 -177 407 -217 q 328 -75 328 -137 l 328 1047 z "},"]":{"ha":850,"x_min":197,"x_max":522,"o":"m 522 -75 q 483 -177 522 -137 q 381 -217 443 -217 l 197 -217 l 197 -50 l 310 -50 q 347 -8 347 -50 l 347 981 q 310 1022 347 1022 l 197 1022 l 197 1189 l 381 1189 q 483 1149 443 1189 q 522 1047 522 1110 l 522 -75 z "},"{":{"ha":850,"x_min":231,"x_max":681,"o":"m 356 1047 q 395 1149 356 1110 q 497 1189 435 1189 l 681 1189 l 681 1022 l 568 1022 q 531 981 531 1022 l 531 607 q 501 529 531 560 q 422 499 471 499 l 414 499 l 414 474 l 422 474 q 501 443 471 474 q 531 365 531 413 l 531 -8 q 568 -50 531 -50 l 681 -50 l 681 -217 l 497 -217 q 395 -177 435 -217 q 356 -75 356 -137 l 356 346 q 318 386 356 386 l 231 386 l 231 586 l 318 586 q 356 626 356 586 l 356 1047 z "},"}":{"ha":850,"x_min":169,"x_max":619,"o":"m 494 626 q 532 586 494 586 l 619 586 l 619 386 l 532 386 q 494 346 494 386 l 494 -75 q 455 -177 494 -137 q 353 -217 415 -217 l 169 -217 l 169 -50 l 282 -50 q 319 -8 319 -50 l 319 365 q 349 443 319 413 q 428 474 379 474 l 436 474 l 436 499 l 428 499 q 349 529 379 499 q 319 607 319 560 l 319 981 q 282 1022 319 1022 l 169 1022 l 169 1189 l 353 1189 q 455 1149 415 1189 q 494 1047 494 1110 l 494 626 z "},"(":{"ha":850,"x_min":225,"x_max":792,"o":"m 792 -42 l 792 -217 l 733 -217 q 538 -187 631 -217 q 376 -94 446 -157 q 266 68 307 -31 q 225 303 225 167 l 225 669 q 266 904 225 806 q 376 1066 307 1003 q 538 1159 446 1129 q 733 1189 631 1189 l 792 1189 l 792 1014 l 742 1014 q 608 994 669 1014 q 502 932 547 975 q 431 822 457 889 q 406 658 406 754 l 406 314 q 431 151 406 218 q 502 40 457 83 q 608 -22 547 -3 q 742 -42 669 -42 l 792 -42 z "},")":{"ha":850,"x_min":58,"x_max":625,"o":"m 108 -42 q 242 -22 181 -42 q 348 40 303 -3 q 419 151 393 83 q 444 314 444 218 l 444 658 q 419 822 444 754 q 348 932 393 889 q 242 994 303 975 q 108 1014 181 1014 l 58 1014 l 58 1189 l 117 1189 q 312 1159 219 1189 q 474 1066 404 1129 q 584 904 543 1003 q 625 669 625 806 l 625 303 q 584 68 625 167 q 474 -94 543 -31 q 312 -187 404 -157 q 117 -217 219 -217 l 58 -217 l 58 -42 l 108 -42 z "},"/":{"ha":850,"x_min":138,"x_max":713,"o":"m 554 1146 l 713 1096 l 297 -174 l 138 -124 l 554 1146 z "},"|":{"ha":850,"x_min":342,"x_max":508,"o":"m 508 -217 l 342 -217 l 342 1189 l 508 1189 l 508 -217 z "},"¦":{"ha":850,"x_min":342,"x_max":508,"o":"m 508 403 l 508 -217 l 342 -217 l 342 403 l 508 403 m 342 569 l 342 1189 l 508 1189 l 508 569 l 342 569 z "},"\\":{"ha":850,"x_min":138,"x_max":713,"o":"m 713 -124 l 553 -174 l 138 1096 l 296 1146 l 713 -124 z "},"'":{"ha":850,"x_min":293,"x_max":556,"o":"m 371 740 q 315 788 336 756 q 293 861 293 821 q 303 912 293 888 q 332 953 314 936 q 374 981 350 971 q 425 992 397 992 q 476 981 451 992 q 517 953 500 971 q 545 912 535 936 q 556 861 556 888 q 534 788 556 821 q 479 740 513 756 l 479 567 l 371 567 l 371 740 z "},"\"":{"ha":850,"x_min":136,"x_max":714,"o":"m 638 567 l 526 567 l 526 740 q 472 788 493 756 q 450 861 450 821 q 460 912 450 888 q 489 953 471 936 q 531 981 507 971 q 582 992 554 992 q 633 981 608 992 q 675 953 657 971 q 703 912 693 936 q 714 861 714 888 q 692 788 714 821 q 638 740 671 756 l 638 567 m 324 567 l 213 567 l 213 740 q 158 788 179 756 q 136 861 136 821 q 147 912 136 888 q 175 953 157 936 q 217 981 193 971 q 268 992 240 992 q 319 981 294 992 q 361 953 343 971 q 390 912 379 936 q 400 861 400 888 q 378 788 400 821 q 324 740 357 756 l 324 567 z "},"‘":{"ha":850,"x_min":293,"x_max":557,"o":"m 557 697 q 547 646 557 669 q 518 605 536 622 q 476 577 500 588 q 425 567 451 567 q 374 577 397 567 q 332 605 350 588 q 303 646 314 622 q 293 697 293 669 l 293 867 q 328 956 293 919 q 417 992 364 992 l 506 992 l 506 883 l 439 883 q 401 842 401 883 l 401 825 q 414 828 407 828 q 428 829 421 829 q 522 792 486 829 q 557 697 557 756 z "},"’":{"ha":850,"x_min":293,"x_max":557,"o":"m 293 861 q 303 912 293 888 q 332 953 314 936 q 374 981 350 971 q 425 992 397 992 q 476 981 451 992 q 518 953 500 971 q 547 912 536 936 q 557 861 557 888 l 557 692 q 522 603 557 639 q 433 567 486 567 l 344 567 l 344 675 l 411 675 q 449 717 449 675 l 449 733 q 425 729 438 729 q 374 740 397 729 q 332 768 350 750 q 303 810 314 786 q 293 861 293 833 z "},"“":{"ha":850,"x_min":136,"x_max":714,"o":"m 714 697 q 703 646 714 669 q 675 605 693 622 q 633 577 657 588 q 582 567 608 567 q 531 577 554 567 q 489 605 507 588 q 460 646 471 622 q 450 697 450 669 l 450 867 q 485 956 450 919 q 574 992 521 992 l 663 992 l 663 883 l 596 883 q 558 842 558 883 l 558 825 q 571 828 564 828 q 585 829 578 829 q 678 792 643 829 q 714 697 714 756 m 400 697 q 390 646 400 669 q 361 605 379 622 q 319 577 343 588 q 268 567 294 567 q 217 577 240 567 q 175 605 193 588 q 147 646 157 622 q 136 697 136 669 l 136 867 q 172 956 136 919 q 260 992 207 992 l 349 992 l 349 883 l 282 883 q 244 842 244 883 l 244 825 q 257 828 250 828 q 271 829 264 829 q 365 792 329 829 q 400 697 400 756 z "},"”":{"ha":850,"x_min":136,"x_max":714,"o":"m 136 861 q 147 912 136 888 q 175 953 157 936 q 217 981 193 971 q 268 992 240 992 q 319 981 294 992 q 361 953 343 971 q 390 912 379 936 q 400 861 400 888 l 400 692 q 365 603 400 639 q 276 567 329 567 l 188 567 l 188 675 l 254 675 q 292 717 292 675 l 292 733 q 268 729 281 729 q 217 740 240 729 q 175 768 193 750 q 147 810 157 786 q 136 861 136 833 m 450 861 q 460 912 450 888 q 489 953 471 936 q 531 981 507 971 q 582 992 554 992 q 633 981 608 992 q 675 953 657 971 q 703 912 693 936 q 714 861 714 888 l 714 692 q 678 603 714 639 q 590 567 643 567 l 501 567 l 501 675 l 568 675 q 606 717 606 675 l 606 733 q 582 729 594 729 q 531 740 554 729 q 489 768 507 750 q 460 810 471 786 q 450 861 450 833 z "},"‚":{"ha":850,"x_min":293,"x_max":557,"o":"m 293 132 q 303 183 293 158 q 332 224 314 207 q 374 252 350 242 q 425 263 397 263 q 476 252 451 263 q 518 224 500 242 q 547 183 536 207 q 557 132 557 158 l 557 -37 q 522 -126 557 -90 q 433 -162 486 -162 l 344 -162 l 344 -54 l 411 -54 q 449 -12 449 -54 l 449 4 q 425 0 438 0 q 374 10 397 0 q 332 39 350 21 q 303 81 314 57 q 293 132 293 104 z "},"„":{"ha":850,"x_min":136,"x_max":714,"o":"m 136 132 q 147 183 136 158 q 175 224 157 207 q 217 252 193 242 q 268 263 240 263 q 319 252 294 263 q 361 224 343 242 q 390 183 379 207 q 400 132 400 158 l 400 -37 q 365 -126 400 -90 q 276 -162 329 -162 l 188 -162 l 188 -54 l 254 -54 q 292 -12 292 -54 l 292 4 q 268 0 281 0 q 217 10 240 0 q 175 39 193 21 q 147 81 157 57 q 136 132 136 104 m 450 132 q 460 183 450 158 q 489 224 471 207 q 531 252 507 242 q 582 263 554 263 q 633 252 608 263 q 675 224 657 242 q 703 183 693 207 q 714 132 714 158 l 714 -37 q 678 -126 714 -90 q 590 -162 643 -162 l 501 -162 l 501 -54 l 568 -54 q 606 -12 606 -54 l 606 4 q 582 0 594 0 q 531 10 554 0 q 489 39 507 21 q 460 81 471 57 q 450 132 450 104 z "},".":{"ha":850,"x_min":293,"x_max":557,"o":"m 557 113 q 547 60 557 85 q 518 19 536 36 q 476 -9 500 1 q 425 -19 451 -19 q 374 -9 397 -19 q 332 19 350 1 q 303 60 314 36 q 293 113 293 85 q 303 165 293 140 q 332 206 314 189 q 374 234 350 224 q 425 244 397 244 q 476 234 451 244 q 518 206 500 224 q 547 165 536 189 q 557 113 557 140 z "},",":{"ha":850,"x_min":293,"x_max":557,"o":"m 293 113 q 303 163 293 139 q 332 205 314 188 q 374 233 350 222 q 425 243 397 243 q 476 233 451 243 q 518 205 500 222 q 547 163 536 188 q 557 113 557 139 l 557 -57 q 522 -146 557 -110 q 433 -182 486 -182 l 344 -182 l 344 -74 l 411 -74 q 449 -32 449 -74 l 449 -15 q 425 -19 438 -19 q 374 -9 397 -19 q 332 19 350 1 q 303 61 314 38 q 293 113 293 85 z "},":":{"ha":850,"x_min":293,"x_max":557,"o":"m 557 113 q 547 60 557 85 q 518 19 536 36 q 476 -9 500 1 q 425 -19 451 -19 q 374 -9 397 -19 q 332 19 350 1 q 303 60 314 36 q 293 113 293 85 q 303 165 293 140 q 332 206 314 189 q 374 234 350 224 q 425 244 397 244 q 476 234 451 244 q 518 206 500 224 q 547 165 536 189 q 557 113 557 140 m 557 576 q 547 524 557 549 q 518 483 536 500 q 476 455 500 465 q 425 444 451 444 q 374 455 397 444 q 332 483 350 465 q 303 524 314 500 q 293 576 293 549 q 303 628 293 604 q 332 670 314 653 q 374 698 350 688 q 425 708 397 708 q 476 698 451 708 q 518 670 500 688 q 547 628 536 653 q 557 576 557 604 z "},";":{"ha":850,"x_min":293,"x_max":557,"o":"m 293 113 q 303 165 293 140 q 332 206 314 189 q 374 234 350 224 q 425 244 397 244 q 476 234 451 244 q 518 206 500 224 q 547 165 536 189 q 557 113 557 140 l 557 -57 q 522 -146 557 -110 q 433 -182 486 -182 l 344 -182 l 344 -74 l 411 -74 q 449 -32 449 -74 l 449 -15 q 425 -19 438 -19 q 374 -9 397 -19 q 332 19 350 1 q 303 60 314 36 q 293 113 293 85 m 557 576 q 547 524 557 549 q 518 483 536 500 q 476 455 500 465 q 425 444 451 444 q 374 455 397 444 q 332 483 350 465 q 303 524 314 500 q 293 576 293 549 q 303 628 293 604 q 332 670 314 653 q 374 698 350 688 q 425 708 397 708 q 476 698 451 708 q 518 670 500 688 q 547 628 536 653 q 557 576 557 604 z "},"…":{"ha":850,"x_min":29,"x_max":821,"o":"m 821 113 q 810 60 821 85 q 782 19 800 36 q 740 -9 764 1 q 689 -19 715 -19 q 638 -9 661 -19 q 596 19 614 1 q 567 60 578 36 q 557 113 557 85 q 567 165 557 140 q 596 206 578 189 q 638 234 614 224 q 689 244 661 244 q 740 234 715 244 q 782 206 764 224 q 810 165 800 189 q 821 113 821 140 m 557 113 q 547 60 557 85 q 518 19 536 36 q 476 -9 500 1 q 425 -19 451 -19 q 374 -9 397 -19 q 332 19 350 1 q 303 60 314 36 q 293 113 293 85 q 283 60 293 85 q 254 19 272 36 q 212 -9 236 1 q 161 -19 188 -19 q 110 -9 133 -19 q 68 19 86 1 q 40 60 50 36 q 29 113 29 85 q 40 165 29 140 q 68 206 50 189 q 110 234 86 224 q 161 244 133 244 q 212 234 188 244 q 254 206 236 224 q 283 165 272 189 q 293 113 293 140 q 303 165 293 140 q 332 206 314 189 q 374 234 350 224 q 425 244 397 244 q 476 234 451 244 q 518 206 500 224 q 547 165 536 189 q 557 113 557 140 z "},"!":{"ha":850,"x_min":293,"x_max":557,"o":"m 517 972 l 517 294 l 333 294 l 333 972 l 517 972 m 557 113 q 547 60 557 85 q 518 19 536 36 q 476 -9 500 1 q 425 -19 451 -19 q 374 -9 397 -19 q 332 19 350 1 q 303 60 314 36 q 293 113 293 85 q 303 165 293 140 q 332 206 314 189 q 374 234 350 224 q 425 244 397 244 q 476 234 451 244 q 518 206 500 224 q 547 165 536 189 q 557 113 557 140 z "},"¡":{"ha":850,"x_min":293,"x_max":557,"o":"m 517 -278 l 517 400 l 333 400 l 333 -278 l 517 -278 m 557 582 q 547 634 557 610 q 518 676 536 658 q 476 703 500 693 q 425 714 451 714 q 374 703 397 714 q 332 676 350 693 q 303 634 314 658 q 293 582 293 610 q 303 530 293 554 q 332 488 314 506 q 374 460 350 471 q 425 450 397 450 q 476 460 451 450 q 518 488 500 471 q 547 530 536 506 q 557 582 557 554 z "},"?":{"ha":850,"x_min":92,"x_max":767,"o":"m 456 542 q 549 579 515 542 q 583 678 583 617 q 543 776 583 736 q 433 817 503 817 q 367 803 396 817 q 317 767 338 790 q 285 715 296 744 q 275 653 275 685 l 275 594 l 92 594 l 92 669 q 115 790 92 732 q 181 893 138 849 q 290 965 225 938 q 436 992 354 992 q 571 967 510 992 q 676 900 632 943 q 743 799 719 857 q 767 675 767 742 l 767 667 q 749 558 767 610 q 700 468 732 507 q 621 406 668 429 q 515 382 574 382 q 486 371 496 382 q 476 340 476 360 l 476 294 l 301 294 l 301 414 q 338 505 301 468 q 429 542 375 542 l 456 542 m 522 113 q 512 60 522 85 q 483 19 501 36 q 441 -9 465 1 q 390 -19 417 -19 q 339 -9 363 -19 q 297 19 315 1 q 269 60 279 36 q 258 113 258 85 q 269 165 258 140 q 297 206 279 189 q 339 234 315 224 q 390 244 363 244 q 441 234 417 244 q 483 206 465 224 q 512 165 501 189 q 522 113 522 140 z "},"¿":{"ha":850,"x_min":88,"x_max":764,"o":"m 399 153 q 305 115 339 153 q 271 17 271 78 q 311 -82 271 -42 q 421 -122 351 -122 q 488 -109 458 -122 q 538 -73 517 -96 q 569 -20 558 -50 q 579 42 579 10 l 579 100 l 763 100 l 763 25 q 740 -96 763 -37 q 673 -199 717 -154 q 565 -270 629 -243 q 418 -297 500 -297 q 283 -273 344 -297 q 179 -206 222 -249 q 111 -105 135 -162 q 88 19 88 -47 l 88 28 q 105 136 88 85 q 154 226 122 188 q 233 289 186 265 q 339 313 281 313 q 368 324 358 313 q 378 354 378 335 l 378 400 l 553 400 l 553 281 q 516 190 553 226 q 425 153 479 153 l 399 153 m 332 582 q 342 634 332 610 q 371 676 353 658 q 413 703 389 693 q 464 714 438 714 q 515 703 492 714 q 557 676 539 693 q 585 634 575 658 q 596 582 596 610 q 585 530 596 554 q 557 488 575 506 q 515 460 539 471 q 464 450 492 450 q 413 460 438 450 q 371 488 389 471 q 342 530 353 506 q 332 582 332 554 z "},"‹":{"ha":850,"x_min":250,"x_max":600,"o":"m 592 0 l 250 211 l 250 478 l 592 689 l 600 689 l 600 492 l 358 357 l 358 332 l 600 197 l 600 0 l 592 0 z "},"›":{"ha":850,"x_min":250,"x_max":600,"o":"m 250 0 l 250 197 l 492 332 l 492 357 l 250 492 l 250 689 l 258 689 l 600 478 l 600 211 l 258 0 l 250 0 z "},"«":{"ha":850,"x_min":58,"x_max":793,"o":"m 408 0 l 408 197 l 167 332 l 167 357 l 408 492 l 408 689 l 400 689 l 58 478 l 58 211 l 400 0 l 408 0 m 792 0 l 792 197 l 550 332 l 550 357 l 792 492 l 792 689 l 783 689 l 442 478 l 442 211 l 783 0 l 792 0 z "},"»":{"ha":850,"x_min":60,"x_max":792,"o":"m 60 0 l 60 197 l 301 332 l 301 357 l 60 492 l 60 689 l 68 689 l 410 478 l 410 211 l 68 0 l 60 0 m 442 0 l 442 197 l 683 332 l 683 357 l 442 492 l 442 689 l 450 689 l 792 478 l 792 211 l 450 0 l 442 0 z "},"-":{"ha":850,"x_min":208,"x_max":642,"o":"m 208 461 l 642 461 l 642 303 l 208 303 l 208 461 z "},"–":{"ha":850,"x_min":93,"x_max":757,"o":"m 93 461 l 757 461 l 757 303 l 93 303 l 93 461 z "},"—":{"ha":850,"x_min":8,"x_max":842,"o":"m 8 461 l 842 461 l 842 303 l 8 303 l 8 461 z "},"·":{"ha":850,"x_min":293,"x_max":557,"o":"m 557 486 q 547 434 557 458 q 518 392 536 410 q 476 365 500 375 q 425 354 451 354 q 374 365 397 354 q 332 392 350 375 q 303 434 314 410 q 293 486 293 458 q 303 538 293 514 q 332 580 314 563 q 374 608 350 597 q 425 618 397 618 q 476 608 451 618 q 518 580 500 597 q 547 538 536 563 q 557 486 557 514 z "},"•":{"ha":850,"x_min":225,"x_max":625,"o":"m 225 486 q 241 564 225 528 q 284 627 257 600 q 347 670 311 654 q 425 686 383 686 q 503 670 467 686 q 566 627 539 654 q 609 564 593 600 q 625 486 625 528 q 609 408 625 444 q 566 345 593 372 q 503 302 539 318 q 425 286 467 286 q 347 302 383 286 q 284 345 311 318 q 241 408 257 372 q 225 486 225 444 z "},"_":{"ha":850,"x_min":85,"x_max":765,"o":"m 85 -67 l 765 -67 l 765 -225 l 85 -225 l 85 -67 z "},"@":{"ha":850,"x_min":19,"x_max":817,"o":"m 83 708 l 83 875 l 519 875 q 736 803 656 875 q 817 586 817 731 l 817 114 q 780 18 817 56 q 685 -19 743 -19 l 514 -19 q 437 3 461 -19 q 408 58 413 26 l 383 58 q 338 3 371 26 q 244 -19 306 -19 q 155 -1 196 -19 q 84 56 114 18 q 37 153 54 94 q 19 290 19 211 l 19 299 q 38 436 19 378 q 88 533 57 494 q 162 590 119 571 q 253 608 204 608 q 334 588 306 608 q 375 539 363 568 l 400 539 l 400 589 l 567 589 l 567 178 q 604 139 567 139 l 613 139 q 650 178 650 139 l 650 542 q 483 708 650 708 l 83 708 m 294 139 q 376 181 351 139 q 400 290 400 224 l 400 299 q 376 408 400 365 q 294 450 351 450 q 214 408 242 450 q 186 299 186 365 l 186 290 q 214 181 186 224 q 294 139 242 139 z "},"&":{"ha":850,"x_min":58,"x_max":821,"o":"m 518 408 l 364 408 q 269 379 306 408 q 233 292 233 350 l 233 283 q 269 196 233 225 q 364 167 306 167 l 518 167 l 518 408 m 693 689 l 693 575 l 821 575 l 821 400 l 693 400 l 693 0 l 346 0 q 222 19 276 0 q 132 73 168 39 q 77 153 96 107 q 58 254 58 200 l 58 271 q 105 405 58 354 q 222 475 151 456 l 222 500 q 105 569 151 519 q 58 703 58 619 l 58 719 q 77 820 58 774 q 132 900 96 867 q 222 953 168 933 q 346 972 276 972 l 497 972 l 497 806 l 364 806 q 269 778 306 806 q 233 694 233 751 l 233 686 q 269 601 233 628 q 364 575 306 575 l 518 575 l 518 689 l 693 689 z "},"*":{"ha":850,"x_min":81,"x_max":769,"o":"m 622 196 l 521 297 l 475 400 l 453 390 l 492 289 l 492 142 l 358 142 l 358 289 l 397 390 l 375 400 l 329 297 l 228 196 l 135 289 l 236 390 l 339 436 l 329 458 l 228 419 l 81 419 l 81 553 l 228 553 l 329 514 l 339 536 l 236 582 l 135 683 l 228 776 l 329 675 l 375 572 l 397 582 l 358 683 l 358 831 l 492 831 l 492 683 l 453 582 l 475 572 l 521 675 l 622 776 l 715 683 l 614 582 l 511 536 l 521 514 l 622 553 l 769 553 l 769 419 l 622 419 l 521 458 l 511 436 l 614 390 l 715 289 l 622 196 z "},"À":{"ha":850,"x_min":21,"x_max":829,"o":"m 590 208 l 260 208 l 213 0 l 21 0 l 253 972 l 597 972 l 829 0 l 638 0 l 590 208 m 299 383 l 550 383 l 438 881 l 413 881 l 299 383 m 497 1075 l 356 1075 l 239 1264 l 425 1264 l 497 1075 z "},"Á":{"ha":850,"x_min":21,"x_max":829,"o":"m 590 208 l 260 208 l 213 0 l 21 0 l 253 972 l 597 972 l 829 0 l 638 0 l 590 208 m 299 383 l 550 383 l 438 881 l 413 881 l 299 383 m 426 1264 l 613 1264 l 496 1075 l 354 1075 l 426 1264 z "},"Â":{"ha":850,"x_min":21,"x_max":829,"o":"m 590 208 l 260 208 l 213 0 l 21 0 l 253 972 l 597 972 l 829 0 l 638 0 l 590 208 m 299 383 l 550 383 l 438 881 l 413 881 l 299 383 m 493 1075 l 433 1197 l 417 1197 l 357 1075 l 189 1075 l 306 1264 l 544 1264 l 661 1075 l 493 1075 z "},"Ã":{"ha":850,"x_min":21,"x_max":829,"o":"m 590 208 l 260 208 l 213 0 l 21 0 l 253 972 l 597 972 l 829 0 l 638 0 l 590 208 m 299 383 l 550 383 l 438 881 l 413 881 l 299 383 m 447 1240 q 469 1217 458 1228 q 500 1207 481 1207 q 531 1216 519 1207 q 554 1240 543 1225 l 596 1293 l 703 1208 l 625 1108 q 571 1062 600 1076 q 506 1047 542 1047 q 452 1060 478 1047 q 403 1100 426 1072 q 381 1123 392 1113 q 350 1133 369 1133 q 319 1124 331 1133 q 296 1100 307 1115 l 254 1047 l 147 1132 l 225 1232 q 281 1279 251 1265 q 344 1293 310 1293 q 398 1281 372 1293 q 447 1240 424 1268 z "},"Ä":{"ha":850,"x_min":21,"x_max":829,"o":"m 590 208 l 260 208 l 213 0 l 21 0 l 253 972 l 597 972 l 829 0 l 638 0 l 590 208 m 299 383 l 550 383 l 438 881 l 413 881 l 299 383 m 392 1171 q 381 1119 392 1143 q 353 1077 371 1094 q 310 1049 335 1060 q 260 1039 286 1039 q 208 1049 232 1039 q 167 1077 185 1060 q 138 1119 149 1094 q 128 1171 128 1143 q 138 1223 128 1199 q 167 1265 149 1247 q 208 1292 185 1282 q 260 1303 232 1303 q 310 1292 286 1303 q 353 1265 335 1282 q 381 1223 371 1247 q 392 1171 392 1199 m 722 1171 q 712 1119 722 1143 q 683 1077 701 1094 q 641 1049 665 1060 q 590 1039 617 1039 q 539 1049 563 1039 q 497 1077 515 1060 q 469 1119 479 1094 q 458 1171 458 1143 q 469 1223 458 1199 q 497 1265 479 1247 q 539 1292 515 1282 q 590 1303 563 1303 q 641 1292 617 1303 q 683 1265 665 1282 q 712 1223 701 1247 q 722 1171 722 1199 z "},"Ā":{"ha":850,"x_min":21,"x_max":829,"o":"m 590 208 l 260 208 l 213 0 l 21 0 l 253 972 l 597 972 l 829 0 l 638 0 l 590 208 m 299 383 l 550 383 l 438 881 l 413 881 l 299 383 m 629 1075 l 221 1075 l 221 1217 l 629 1217 l 629 1075 z "},"Ă":{"ha":850,"x_min":21,"x_max":829,"o":"m 590 208 l 260 208 l 213 0 l 21 0 l 253 972 l 597 972 l 829 0 l 638 0 l 590 208 m 299 383 l 550 383 l 438 881 l 413 881 l 299 383 m 608 1264 l 608 1244 q 558 1120 608 1165 q 425 1075 507 1075 q 292 1120 343 1075 q 242 1244 242 1165 l 242 1264 l 367 1264 l 367 1256 q 381 1214 367 1231 q 425 1197 396 1197 q 469 1214 454 1197 q 483 1256 483 1231 l 483 1264 l 608 1264 z "},"Å":{"ha":850,"x_min":21,"x_max":829,"o":"m 590 208 l 260 208 l 213 0 l 21 0 l 253 972 l 597 972 l 829 0 l 638 0 l 590 208 m 299 383 l 550 383 l 438 881 l 413 881 l 299 383 m 275 1217 q 287 1275 275 1247 q 319 1323 299 1303 q 366 1355 339 1343 q 425 1367 393 1367 q 483 1355 456 1367 q 531 1323 511 1343 q 563 1275 551 1303 q 575 1217 575 1247 q 563 1158 575 1185 q 531 1110 551 1131 q 483 1078 511 1090 q 425 1067 456 1067 q 366 1078 393 1067 q 319 1110 339 1090 q 287 1158 299 1131 q 275 1217 275 1185 m 383 1217 q 395 1187 383 1199 q 425 1175 407 1175 q 455 1187 443 1175 q 467 1217 467 1199 q 455 1247 467 1235 q 425 1258 443 1258 q 395 1247 407 1258 q 383 1217 383 1235 z "},"Ǎ":{"ha":850,"x_min":21,"x_max":829,"o":"m 590 208 l 260 208 l 213 0 l 21 0 l 253 972 l 597 972 l 829 0 l 638 0 l 590 208 m 299 383 l 550 383 l 438 881 l 413 881 l 299 383 m 661 1264 l 544 1075 l 306 1075 l 189 1264 l 357 1264 l 417 1142 l 433 1142 l 493 1264 l 661 1264 z "},"Ą":{"ha":850,"x_min":21,"x_max":833,"o":"m 590 208 l 260 208 l 213 0 l 21 0 l 253 972 l 597 972 l 829 0 l 757 0 l 739 -78 q 738 -89 738 -85 q 769 -119 738 -119 l 833 -119 l 833 -236 l 722 -236 q 646 -210 681 -236 q 611 -132 611 -183 q 615 -100 611 -119 l 638 0 l 590 208 m 299 383 l 550 383 l 438 881 l 413 881 l 299 383 z "},"Ạ":{"ha":850,"x_min":21,"x_max":829,"o":"m 590 208 l 260 208 l 213 0 l 21 0 l 253 972 l 597 972 l 829 0 l 638 0 l 590 208 m 299 383 l 550 383 l 438 881 l 413 881 l 299 383 m 557 -219 q 547 -272 557 -247 q 518 -313 536 -296 q 476 -341 500 -331 q 425 -351 451 -351 q 374 -341 397 -351 q 332 -313 350 -331 q 303 -272 314 -296 q 293 -219 293 -247 q 303 -167 293 -192 q 332 -126 314 -143 q 374 -98 350 -108 q 425 -87 397 -87 q 476 -98 451 -87 q 518 -126 500 -108 q 547 -167 536 -143 q 557 -219 557 -192 z "},"Ả":{"ha":850,"x_min":21,"x_max":829,"o":"m 590 208 l 260 208 l 213 0 l 21 0 l 253 972 l 597 972 l 829 0 l 638 0 l 590 208 m 299 383 l 550 383 l 438 881 l 413 881 l 299 383 m 476 1042 l 463 1106 l 479 1106 q 501 1084 486 1093 q 543 1075 517 1075 q 630 1111 601 1075 q 658 1197 658 1147 q 615 1299 658 1262 q 506 1336 571 1336 q 439 1328 465 1336 q 389 1308 413 1321 l 425 1214 q 494 1233 457 1233 q 528 1224 515 1233 q 542 1197 542 1214 q 535 1176 542 1185 q 514 1167 528 1167 q 486 1186 490 1167 l 351 1186 l 351 1169 l 379 1042 l 476 1042 z "},"Ấ":{"ha":850,"x_min":21,"x_max":894,"o":"m 590 208 l 260 208 l 213 0 l 21 0 l 253 972 l 597 972 l 829 0 l 638 0 l 590 208 m 299 383 l 550 383 l 438 881 l 413 881 l 299 383 m 493 1075 l 433 1197 l 417 1197 l 357 1075 l 189 1075 l 306 1264 l 544 1264 l 661 1075 l 493 1075 m 708 1386 l 894 1386 l 778 1197 l 636 1197 l 708 1386 z "},"Ầ":{"ha":850,"x_min":-43,"x_max":829,"o":"m 590 208 l 260 208 l 213 0 l 21 0 l 253 972 l 597 972 l 829 0 l 638 0 l 590 208 m 299 383 l 550 383 l 438 881 l 413 881 l 299 383 m 493 1075 l 433 1197 l 417 1197 l 357 1075 l 189 1075 l 306 1264 l 544 1264 l 661 1075 l 493 1075 m 215 1197 l 74 1197 l -43 1386 l 143 1386 l 215 1197 z "},"Ẩ":{"ha":850,"x_min":21,"x_max":915,"o":"m 590 208 l 260 208 l 213 0 l 21 0 l 253 972 l 597 972 l 829 0 l 638 0 l 590 208 m 299 383 l 550 383 l 438 881 l 413 881 l 299 383 m 493 1075 l 433 1197 l 417 1197 l 357 1075 l 189 1075 l 306 1264 l 544 1264 l 661 1075 l 493 1075 m 733 1192 l 719 1256 l 736 1256 q 758 1234 743 1243 q 800 1225 774 1225 q 887 1261 858 1225 q 915 1347 915 1297 q 872 1449 915 1412 q 763 1486 828 1486 q 696 1478 722 1486 q 646 1458 669 1471 l 682 1364 q 751 1383 714 1383 q 785 1374 772 1383 q 799 1347 799 1364 q 792 1326 799 1335 q 771 1317 785 1317 q 743 1336 747 1317 l 608 1336 l 608 1319 l 636 1192 l 733 1192 z "},"Ẫ":{"ha":850,"x_min":21,"x_max":829,"o":"m 590 208 l 260 208 l 213 0 l 21 0 l 253 972 l 597 972 l 829 0 l 638 0 l 590 208 m 299 383 l 550 383 l 438 881 l 413 881 l 299 383 m 493 1031 l 433 1153 l 417 1153 l 357 1031 l 189 1031 l 306 1219 l 544 1219 l 661 1031 l 493 1031 m 447 1454 q 469 1431 458 1442 q 500 1421 481 1421 q 531 1430 519 1421 q 554 1454 543 1439 l 596 1507 l 703 1422 l 625 1322 q 571 1276 600 1290 q 506 1261 542 1261 q 452 1274 478 1261 q 403 1314 426 1286 q 381 1337 392 1326 q 350 1347 369 1347 q 319 1338 331 1347 q 296 1314 307 1329 l 254 1261 l 147 1346 l 225 1446 q 281 1493 251 1479 q 344 1507 310 1507 q 398 1494 372 1507 q 447 1454 424 1482 z "},"Ậ":{"ha":850,"x_min":21,"x_max":829,"o":"m 590 208 l 260 208 l 213 0 l 21 0 l 253 972 l 597 972 l 829 0 l 638 0 l 590 208 m 299 383 l 550 383 l 438 881 l 413 881 l 299 383 m 493 1075 l 433 1197 l 417 1197 l 357 1075 l 189 1075 l 306 1264 l 544 1264 l 661 1075 l 493 1075 m 557 -219 q 547 -272 557 -247 q 518 -313 536 -296 q 476 -341 500 -331 q 425 -351 451 -351 q 374 -341 397 -351 q 332 -313 350 -331 q 303 -272 314 -296 q 293 -219 293 -247 q 303 -167 293 -192 q 332 -126 314 -143 q 374 -98 350 -108 q 425 -87 397 -87 q 476 -98 451 -87 q 518 -126 500 -108 q 547 -167 536 -143 q 557 -219 557 -192 z "},"Ắ":{"ha":850,"x_min":21,"x_max":829,"o":"m 590 208 l 260 208 l 213 0 l 21 0 l 253 972 l 597 972 l 829 0 l 638 0 l 590 208 m 299 383 l 550 383 l 438 881 l 413 881 l 299 383 m 608 1211 l 608 1192 q 558 1067 608 1113 q 425 1022 507 1022 q 292 1067 343 1022 q 242 1192 242 1113 l 242 1211 l 367 1211 l 367 1203 q 381 1161 367 1178 q 425 1144 396 1144 q 469 1161 454 1144 q 483 1203 483 1178 l 483 1211 l 608 1211 m 426 1450 l 613 1450 l 496 1261 l 354 1261 l 426 1450 z "},"Ằ":{"ha":850,"x_min":21,"x_max":829,"o":"m 590 208 l 260 208 l 213 0 l 21 0 l 253 972 l 597 972 l 829 0 l 638 0 l 590 208 m 299 383 l 550 383 l 438 881 l 413 881 l 299 383 m 608 1211 l 608 1192 q 558 1067 608 1113 q 425 1022 507 1022 q 292 1067 343 1022 q 242 1192 242 1113 l 242 1211 l 367 1211 l 367 1203 q 381 1161 367 1178 q 425 1144 396 1144 q 469 1161 454 1144 q 483 1203 483 1178 l 483 1211 l 608 1211 m 496 1261 l 354 1261 l 238 1450 l 424 1450 l 496 1261 z "},"Ẳ":{"ha":850,"x_min":21,"x_max":829,"o":"m 590 208 l 260 208 l 213 0 l 21 0 l 253 972 l 597 972 l 829 0 l 638 0 l 590 208 m 299 383 l 550 383 l 438 881 l 413 881 l 299 383 m 608 1211 l 608 1192 q 558 1067 608 1113 q 425 1022 507 1022 q 292 1067 343 1022 q 242 1192 242 1113 l 242 1211 l 367 1211 l 367 1203 q 381 1161 367 1178 q 425 1144 396 1144 q 469 1161 454 1144 q 483 1203 483 1178 l 483 1211 l 608 1211 m 474 1261 l 460 1325 l 476 1325 q 499 1303 483 1312 q 540 1294 514 1294 q 627 1331 599 1294 q 656 1417 656 1367 q 612 1519 656 1482 q 503 1556 568 1556 q 436 1548 463 1556 q 386 1528 410 1540 l 422 1433 q 492 1453 454 1453 q 526 1443 513 1453 q 539 1417 539 1433 q 532 1395 539 1404 q 511 1386 525 1386 q 483 1406 488 1386 l 349 1406 l 349 1389 l 376 1261 l 474 1261 z "},"Ẵ":{"ha":850,"x_min":21,"x_max":829,"o":"m 590 208 l 260 208 l 213 0 l 21 0 l 253 972 l 597 972 l 829 0 l 638 0 l 590 208 m 299 383 l 550 383 l 438 881 l 413 881 l 299 383 m 608 1211 l 608 1192 q 558 1067 608 1113 q 425 1022 507 1022 q 292 1067 343 1022 q 242 1192 242 1113 l 242 1211 l 367 1211 l 367 1203 q 381 1161 367 1178 q 425 1144 396 1144 q 469 1161 454 1144 q 483 1203 483 1178 l 483 1211 l 608 1211 m 447 1454 q 469 1431 458 1442 q 500 1421 481 1421 q 531 1430 519 1421 q 554 1454 543 1439 l 596 1507 l 703 1422 l 625 1322 q 571 1276 600 1290 q 506 1261 542 1261 q 452 1274 478 1261 q 403 1314 426 1286 q 381 1337 392 1326 q 350 1347 369 1347 q 319 1338 331 1347 q 296 1314 307 1329 l 254 1261 l 147 1346 l 225 1446 q 281 1493 251 1479 q 344 1507 310 1507 q 398 1494 372 1507 q 447 1454 424 1482 z "},"Ặ":{"ha":850,"x_min":21,"x_max":829,"o":"m 590 208 l 260 208 l 213 0 l 21 0 l 253 972 l 597 972 l 829 0 l 638 0 l 590 208 m 299 383 l 550 383 l 438 881 l 413 881 l 299 383 m 608 1264 l 608 1244 q 558 1120 608 1165 q 425 1075 507 1075 q 292 1120 343 1075 q 242 1244 242 1165 l 242 1264 l 367 1264 l 367 1256 q 381 1214 367 1231 q 425 1197 396 1197 q 469 1214 454 1197 q 483 1256 483 1231 l 483 1264 l 608 1264 m 557 -219 q 547 -272 557 -247 q 518 -313 536 -296 q 476 -341 500 -331 q 425 -351 451 -351 q 374 -341 397 -351 q 332 -313 350 -331 q 303 -272 314 -296 q 293 -219 293 -247 q 303 -167 293 -192 q 332 -126 314 -143 q 374 -98 350 -108 q 425 -87 397 -87 q 476 -98 451 -87 q 518 -126 500 -108 q 547 -167 536 -143 q 557 -219 557 -192 z "},"Æ":{"ha":850,"x_min":0,"x_max":828,"o":"m 397 208 l 239 208 l 192 0 l 0 0 l 232 972 l 819 972 l 819 797 l 581 797 l 581 575 l 811 575 l 811 400 l 581 400 l 581 175 l 828 175 l 828 0 l 397 0 l 397 208 m 278 383 l 397 383 l 397 797 l 372 797 l 278 383 z "},"Ƀ":{"ha":850,"x_min":64,"x_max":778,"o":"m 64 175 l 156 175 l 156 217 l 64 217 l 64 358 l 156 358 l 156 797 l 64 797 l 64 972 l 490 972 q 613 953 560 972 q 703 900 667 933 q 759 820 740 867 q 778 719 778 774 l 778 703 q 731 569 778 619 q 614 500 685 519 l 614 475 q 731 405 685 456 q 778 271 778 354 l 778 254 q 759 153 778 200 q 703 73 740 107 q 613 19 667 39 q 490 0 560 0 l 64 0 l 64 175 m 339 575 l 472 575 q 567 599 531 575 q 603 682 603 624 l 603 690 q 567 773 603 749 q 472 797 531 797 l 339 797 l 339 575 m 339 358 l 447 358 l 447 217 l 339 217 l 339 175 l 472 175 q 567 200 531 175 q 603 283 603 225 l 603 292 q 567 375 603 350 q 472 400 531 400 l 339 400 l 339 358 z "},"Ç":{"ha":850,"x_min":67,"x_max":783,"o":"m 428 147 q 515 163 481 147 q 567 206 549 179 q 593 269 586 233 q 600 342 600 304 l 600 367 l 783 367 l 783 342 q 703 87 783 179 q 472 -18 624 -6 l 463 -64 l 479 -64 q 501 -42 486 -51 q 543 -33 517 -33 q 630 -69 601 -33 q 658 -156 658 -106 q 615 -258 658 -221 q 506 -294 571 -294 q 439 -287 465 -294 q 389 -267 413 -279 l 425 -172 q 494 -192 457 -192 q 528 -182 515 -192 q 542 -156 542 -172 q 535 -134 542 -143 q 514 -125 528 -125 q 486 -144 490 -125 l 351 -144 l 351 -128 l 375 -17 q 149 99 231 -1 q 67 378 67 199 l 67 594 q 92 762 67 688 q 164 887 117 836 q 278 965 211 938 q 428 992 344 992 q 581 967 514 992 q 692 894 647 942 q 760 781 738 847 q 783 631 783 714 l 783 606 l 600 606 l 600 631 q 592 700 600 665 q 564 763 583 735 q 511 808 544 790 q 428 825 478 825 q 349 808 382 825 q 293 760 315 790 q 260 691 271 731 q 250 608 250 651 l 250 364 q 260 277 250 317 q 290 208 269 238 q 345 163 311 179 q 428 147 379 147 z "},"Ć":{"ha":850,"x_min":67,"x_max":783,"o":"m 428 147 q 515 163 481 147 q 567 206 549 179 q 593 269 586 233 q 600 342 600 304 l 600 367 l 783 367 l 783 342 q 692 74 783 168 q 428 -19 601 -19 q 164 82 261 -19 q 67 378 67 183 l 67 594 q 92 762 67 688 q 164 887 117 836 q 278 965 211 938 q 428 992 344 992 q 581 967 514 992 q 692 894 647 942 q 760 781 738 847 q 783 631 783 714 l 783 606 l 600 606 l 600 631 q 592 700 600 665 q 564 763 583 735 q 511 808 544 790 q 428 825 478 825 q 349 808 382 825 q 293 760 315 790 q 260 691 271 731 q 250 608 250 651 l 250 364 q 260 277 250 317 q 290 208 269 238 q 345 163 311 179 q 428 147 379 147 m 428 1264 l 614 1264 l 497 1075 l 356 1075 l 428 1264 z "},"Ĉ":{"ha":850,"x_min":67,"x_max":783,"o":"m 428 147 q 515 163 481 147 q 567 206 549 179 q 593 269 586 233 q 600 342 600 304 l 600 367 l 783 367 l 783 342 q 692 74 783 168 q 428 -19 601 -19 q 164 82 261 -19 q 67 378 67 183 l 67 594 q 92 762 67 688 q 164 887 117 836 q 278 965 211 938 q 428 992 344 992 q 581 967 514 992 q 692 894 647 942 q 760 781 738 847 q 783 631 783 714 l 783 606 l 600 606 l 600 631 q 592 700 600 665 q 564 763 583 735 q 511 808 544 790 q 428 825 478 825 q 349 808 382 825 q 293 760 315 790 q 260 691 271 731 q 250 608 250 651 l 250 364 q 260 277 250 317 q 290 208 269 238 q 345 163 311 179 q 428 147 379 147 m 496 1075 l 436 1197 l 419 1197 l 360 1075 l 192 1075 l 308 1264 l 547 1264 l 664 1075 l 496 1075 z "},"Č":{"ha":850,"x_min":67,"x_max":783,"o":"m 428 147 q 515 163 481 147 q 567 206 549 179 q 593 269 586 233 q 600 342 600 304 l 600 367 l 783 367 l 783 342 q 692 74 783 168 q 428 -19 601 -19 q 164 82 261 -19 q 67 378 67 183 l 67 594 q 92 762 67 688 q 164 887 117 836 q 278 965 211 938 q 428 992 344 992 q 581 967 514 992 q 692 894 647 942 q 760 781 738 847 q 783 631 783 714 l 783 606 l 600 606 l 600 631 q 592 700 600 665 q 564 763 583 735 q 511 808 544 790 q 428 825 478 825 q 349 808 382 825 q 293 760 315 790 q 260 691 271 731 q 250 608 250 651 l 250 364 q 260 277 250 317 q 290 208 269 238 q 345 163 311 179 q 428 147 379 147 m 664 1264 l 547 1075 l 308 1075 l 192 1264 l 360 1264 l 419 1142 l 436 1142 l 496 1264 l 664 1264 z "},"Ċ":{"ha":850,"x_min":67,"x_max":783,"o":"m 428 147 q 515 163 481 147 q 567 206 549 179 q 593 269 586 233 q 600 342 600 304 l 600 367 l 783 367 l 783 342 q 692 74 783 168 q 428 -19 601 -19 q 164 82 261 -19 q 67 378 67 183 l 67 594 q 92 762 67 688 q 164 887 117 836 q 278 965 211 938 q 428 992 344 992 q 581 967 514 992 q 692 894 647 942 q 760 781 738 847 q 783 631 783 714 l 783 606 l 600 606 l 600 631 q 592 700 600 665 q 564 763 583 735 q 511 808 544 790 q 428 825 478 825 q 349 808 382 825 q 293 760 315 790 q 260 691 271 731 q 250 608 250 651 l 250 364 q 260 277 250 317 q 290 208 269 238 q 345 163 311 179 q 428 147 379 147 m 560 1213 q 549 1160 560 1185 q 521 1119 539 1136 q 478 1091 503 1101 q 428 1081 454 1081 q 376 1091 400 1081 q 335 1119 353 1101 q 306 1160 317 1136 q 296 1213 296 1185 q 306 1265 296 1240 q 335 1306 317 1289 q 376 1334 353 1324 q 428 1344 400 1344 q 478 1334 454 1344 q 521 1306 503 1324 q 549 1265 539 1289 q 560 1213 560 1240 z "},"Ð":{"ha":850,"x_min":64,"x_max":772,"o":"m 64 569 l 156 569 l 156 797 l 64 797 l 64 972 l 417 972 q 685 888 597 972 q 772 628 772 804 l 772 344 q 685 84 772 168 q 417 0 597 0 l 64 0 l 64 175 l 156 175 l 156 403 l 64 403 l 64 569 m 417 175 q 551 220 513 175 q 589 361 589 265 l 589 628 q 551 754 589 711 q 417 797 513 797 l 339 797 l 339 569 l 475 569 l 475 403 l 339 403 l 339 175 l 417 175 z "},"Ď":{"ha":850,"x_min":64,"x_max":772,"o":"m 64 972 l 417 972 q 685 888 597 972 q 772 628 772 804 l 772 344 q 685 84 772 168 q 417 0 597 0 l 64 0 l 64 176 l 156 176 l 156 797 l 64 797 l 64 972 m 417 175 q 551 220 513 175 q 589 361 589 265 l 589 628 q 551 754 589 711 q 417 797 513 797 l 339 797 l 339 175 l 417 175 m 654 1264 l 538 1075 l 299 1075 l 182 1264 l 350 1264 l 410 1142 l 426 1142 l 486 1264 l 654 1264 z "},"Ḍ":{"ha":850,"x_min":64,"x_max":772,"o":"m 64 972 l 417 972 q 685 888 597 972 q 772 628 772 804 l 772 344 q 685 84 772 168 q 417 0 597 0 l 64 0 l 64 176 l 156 176 l 156 797 l 64 797 l 64 972 m 417 175 q 551 220 513 175 q 589 361 589 265 l 589 628 q 551 754 589 711 q 417 797 513 797 l 339 797 l 339 175 l 417 175 m 551 -219 q 541 -272 551 -247 q 513 -313 531 -296 q 470 -341 494 -331 q 419 -351 446 -351 q 368 -341 392 -351 q 326 -313 344 -331 q 298 -272 308 -296 q 288 -219 288 -247 q 298 -167 288 -192 q 326 -126 308 -143 q 368 -98 344 -108 q 419 -87 392 -87 q 470 -98 446 -87 q 513 -126 494 -108 q 541 -167 531 -143 q 551 -219 551 -192 z "},"Ḏ":{"ha":850,"x_min":64,"x_max":772,"o":"m 64 972 l 417 972 q 685 888 597 972 q 772 628 772 804 l 772 344 q 685 84 772 168 q 417 0 597 0 l 64 0 l 64 176 l 156 176 l 156 797 l 64 797 l 64 972 m 417 175 q 551 220 513 175 q 589 361 589 265 l 589 628 q 551 754 589 711 q 417 797 513 797 l 339 797 l 339 175 l 417 175 m 624 -231 l 215 -231 l 215 -89 l 624 -89 l 624 -231 z "},"Đ":{"ha":850,"x_min":64,"x_max":772,"o":"m 64 569 l 156 569 l 156 797 l 64 797 l 64 972 l 417 972 q 685 888 597 972 q 772 628 772 804 l 772 344 q 685 84 772 168 q 417 0 597 0 l 64 0 l 64 175 l 156 175 l 156 403 l 64 403 l 64 569 m 417 175 q 551 220 513 175 q 589 361 589 265 l 589 628 q 551 754 589 711 q 417 797 513 797 l 339 797 l 339 569 l 475 569 l 475 403 l 339 403 l 339 175 l 417 175 z "},"È":{"ha":850,"x_min":114,"x_max":744,"o":"m 114 972 l 728 972 l 728 797 l 297 797 l 297 575 l 711 575 l 711 400 l 297 400 l 297 175 l 744 175 l 744 0 l 114 0 l 114 972 m 508 1075 l 367 1075 l 250 1264 l 436 1264 l 508 1075 z "},"É":{"ha":850,"x_min":114,"x_max":744,"o":"m 114 972 l 728 972 l 728 797 l 297 797 l 297 575 l 711 575 l 711 400 l 297 400 l 297 175 l 744 175 l 744 0 l 114 0 l 114 972 m 429 1264 l 615 1264 l 499 1075 l 357 1075 l 429 1264 z "},"Ê":{"ha":850,"x_min":114,"x_max":744,"o":"m 114 972 l 728 972 l 728 797 l 297 797 l 297 575 l 711 575 l 711 400 l 297 400 l 297 175 l 744 175 l 744 0 l 114 0 l 114 972 m 490 1075 l 431 1197 l 414 1197 l 354 1075 l 186 1075 l 303 1264 l 542 1264 l 658 1075 l 490 1075 z "},"Ě":{"ha":850,"x_min":114,"x_max":744,"o":"m 114 972 l 728 972 l 728 797 l 297 797 l 297 575 l 711 575 l 711 400 l 297 400 l 297 175 l 744 175 l 744 0 l 114 0 l 114 972 m 674 1264 l 557 1075 l 318 1075 l 201 1264 l 369 1264 l 429 1142 l 446 1142 l 506 1264 l 674 1264 z "},"Ë":{"ha":850,"x_min":114,"x_max":744,"o":"m 114 972 l 728 972 l 728 797 l 297 797 l 297 575 l 711 575 l 711 400 l 297 400 l 297 175 l 744 175 l 744 0 l 114 0 l 114 972 m 389 1171 q 378 1119 389 1143 q 350 1077 368 1094 q 308 1049 332 1060 q 257 1039 283 1039 q 206 1049 229 1039 q 164 1077 182 1060 q 135 1119 146 1094 q 125 1171 125 1143 q 135 1223 125 1199 q 164 1265 146 1247 q 206 1292 182 1282 q 257 1303 229 1303 q 308 1292 283 1303 q 350 1265 332 1282 q 378 1223 368 1247 q 389 1171 389 1199 m 719 1171 q 709 1119 719 1143 q 681 1077 699 1094 q 638 1049 663 1060 q 588 1039 614 1039 q 536 1049 560 1039 q 494 1077 513 1060 q 466 1119 476 1094 q 456 1171 456 1143 q 466 1223 456 1199 q 494 1265 476 1247 q 536 1292 513 1282 q 588 1303 560 1303 q 638 1292 614 1303 q 681 1265 663 1282 q 709 1223 699 1247 q 719 1171 719 1199 z "},"Ē":{"ha":850,"x_min":114,"x_max":744,"o":"m 114 972 l 728 972 l 728 797 l 297 797 l 297 575 l 711 575 l 711 400 l 297 400 l 297 175 l 744 175 l 744 0 l 114 0 l 114 972 m 633 1075 l 225 1075 l 225 1217 l 633 1217 l 633 1075 z "},"Ĕ":{"ha":850,"x_min":114,"x_max":744,"o":"m 114 972 l 728 972 l 728 797 l 297 797 l 297 575 l 711 575 l 711 400 l 297 400 l 297 175 l 744 175 l 744 0 l 114 0 l 114 972 m 613 1264 l 613 1244 q 562 1120 613 1165 q 429 1075 511 1075 q 297 1120 347 1075 q 246 1244 246 1165 l 246 1264 l 371 1264 l 371 1256 q 385 1214 371 1231 q 429 1197 400 1197 q 473 1214 458 1197 q 488 1256 488 1231 l 488 1264 l 613 1264 z "},"Ė":{"ha":850,"x_min":114,"x_max":744,"o":"m 114 972 l 728 972 l 728 797 l 297 797 l 297 575 l 711 575 l 711 400 l 297 400 l 297 175 l 744 175 l 744 0 l 114 0 l 114 972 m 561 1213 q 551 1160 561 1185 q 522 1119 540 1136 q 480 1091 504 1101 q 429 1081 456 1081 q 378 1091 401 1081 q 336 1119 354 1101 q 308 1160 318 1136 q 297 1213 297 1185 q 308 1265 297 1240 q 336 1306 318 1289 q 378 1334 354 1324 q 429 1344 401 1344 q 480 1334 456 1344 q 522 1306 504 1324 q 551 1265 540 1289 q 561 1213 561 1240 z "},"Ę":{"ha":850,"x_min":114,"x_max":821,"o":"m 114 972 l 728 972 l 728 797 l 297 797 l 297 575 l 711 575 l 711 400 l 297 400 l 297 175 l 744 175 l 744 0 l 726 -78 q 725 -89 725 -85 q 757 -119 725 -119 l 821 -119 l 821 -236 l 710 -236 q 633 -210 668 -236 q 599 -132 599 -183 q 603 -100 599 -119 l 625 0 l 114 0 l 114 972 z "},"Ẹ":{"ha":850,"x_min":114,"x_max":744,"o":"m 114 972 l 728 972 l 728 797 l 297 797 l 297 575 l 711 575 l 711 400 l 297 400 l 297 175 l 744 175 l 744 0 l 114 0 l 114 972 m 561 -219 q 551 -272 561 -247 q 522 -313 540 -296 q 480 -341 504 -331 q 429 -351 456 -351 q 378 -341 401 -351 q 336 -313 354 -331 q 308 -272 318 -296 q 297 -219 297 -247 q 308 -167 297 -192 q 336 -126 318 -143 q 378 -98 354 -108 q 429 -87 401 -87 q 480 -98 456 -87 q 522 -126 504 -108 q 551 -167 540 -143 q 561 -219 561 -192 z "},"Ẻ":{"ha":850,"x_min":114,"x_max":744,"o":"m 114 972 l 728 972 l 728 797 l 297 797 l 297 575 l 711 575 l 711 400 l 297 400 l 297 175 l 744 175 l 744 0 l 114 0 l 114 972 m 443 1042 l 429 1106 l 446 1106 q 468 1084 453 1093 q 510 1075 483 1075 q 597 1111 568 1075 q 625 1197 625 1147 q 581 1299 625 1262 q 472 1336 538 1336 q 406 1328 432 1336 q 356 1308 379 1321 l 392 1214 q 461 1233 424 1233 q 495 1224 482 1233 q 508 1197 508 1214 q 501 1176 508 1185 q 481 1167 494 1167 q 453 1186 457 1167 l 318 1186 l 318 1169 l 346 1042 l 443 1042 z "},"Ẽ":{"ha":850,"x_min":114,"x_max":744,"o":"m 114 972 l 728 972 l 728 797 l 297 797 l 297 575 l 711 575 l 711 400 l 297 400 l 297 175 l 744 175 l 744 0 l 114 0 l 114 972 m 444 1240 q 467 1217 456 1228 q 497 1207 478 1207 q 528 1216 517 1207 q 551 1240 540 1225 l 593 1293 l 700 1208 l 622 1108 q 568 1062 597 1076 q 503 1047 539 1047 q 449 1060 475 1047 q 400 1100 424 1072 q 378 1123 389 1113 q 347 1133 367 1133 q 316 1124 328 1133 q 293 1100 304 1115 l 251 1047 l 144 1132 l 222 1232 q 278 1279 249 1265 q 342 1293 307 1293 q 395 1281 369 1293 q 444 1240 421 1268 z "},"Ế":{"ha":850,"x_min":114,"x_max":890,"o":"m 114 972 l 728 972 l 728 797 l 297 797 l 297 575 l 711 575 l 711 400 l 297 400 l 297 175 l 744 175 l 744 0 l 114 0 l 114 972 m 490 1075 l 431 1197 l 414 1197 l 354 1075 l 186 1075 l 303 1264 l 542 1264 l 658 1075 l 490 1075 m 704 1386 l 890 1386 l 774 1197 l 632 1197 l 704 1386 z "},"Ề":{"ha":850,"x_min":-46,"x_max":744,"o":"m 114 972 l 728 972 l 728 797 l 297 797 l 297 575 l 711 575 l 711 400 l 297 400 l 297 175 l 744 175 l 744 0 l 114 0 l 114 972 m 490 1075 l 431 1197 l 414 1197 l 354 1075 l 186 1075 l 303 1264 l 542 1264 l 658 1075 l 490 1075 m 213 1197 l 71 1197 l -46 1386 l 140 1386 l 213 1197 z "},"Ể":{"ha":850,"x_min":114,"x_max":911,"o":"m 114 972 l 728 972 l 728 797 l 297 797 l 297 575 l 711 575 l 711 400 l 297 400 l 297 175 l 744 175 l 744 0 l 114 0 l 114 972 m 490 1075 l 431 1197 l 414 1197 l 354 1075 l 186 1075 l 303 1264 l 542 1264 l 658 1075 l 490 1075 m 729 1197 l 715 1261 l 732 1261 q 754 1240 739 1249 q 796 1231 769 1231 q 883 1267 854 1231 q 911 1353 911 1303 q 867 1455 911 1418 q 758 1492 824 1492 q 692 1484 718 1492 q 642 1464 665 1476 l 678 1369 q 747 1389 710 1389 q 781 1379 768 1389 q 794 1353 794 1369 q 788 1331 794 1340 q 767 1322 781 1322 q 739 1342 743 1322 l 604 1342 l 604 1325 l 632 1197 l 729 1197 z "},"Ễ":{"ha":850,"x_min":114,"x_max":744,"o":"m 114 972 l 728 972 l 728 797 l 297 797 l 297 575 l 711 575 l 711 400 l 297 400 l 297 175 l 744 175 l 744 0 l 114 0 l 114 972 m 490 1031 l 431 1153 l 414 1153 l 354 1031 l 186 1031 l 303 1219 l 542 1219 l 658 1031 l 490 1031 m 444 1454 q 467 1431 456 1442 q 497 1421 478 1421 q 528 1430 517 1421 q 551 1454 540 1439 l 593 1507 l 700 1422 l 622 1322 q 568 1276 597 1290 q 503 1261 539 1261 q 449 1274 475 1261 q 400 1314 424 1286 q 378 1337 389 1326 q 347 1347 367 1347 q 316 1338 328 1347 q 293 1314 304 1329 l 251 1261 l 144 1346 l 222 1446 q 278 1493 249 1479 q 342 1507 307 1507 q 395 1494 369 1507 q 444 1454 421 1482 z "},"Ệ":{"ha":850,"x_min":114,"x_max":744,"o":"m 114 972 l 728 972 l 728 797 l 297 797 l 297 575 l 711 575 l 711 400 l 297 400 l 297 175 l 744 175 l 744 0 l 114 0 l 114 972 m 490 1075 l 431 1197 l 414 1197 l 354 1075 l 186 1075 l 303 1264 l 542 1264 l 658 1075 l 490 1075 m 561 -219 q 551 -272 561 -247 q 522 -313 540 -296 q 480 -341 504 -331 q 429 -351 456 -351 q 378 -341 401 -351 q 336 -313 354 -331 q 308 -272 318 -296 q 297 -219 297 -247 q 308 -167 297 -192 q 336 -126 318 -143 q 378 -98 354 -108 q 429 -87 401 -87 q 480 -98 456 -87 q 522 -126 504 -108 q 551 -167 540 -143 q 561 -219 561 -192 z "},"Ĝ":{"ha":850,"x_min":61,"x_max":778,"o":"m 361 492 l 778 492 l 778 0 l 611 0 l 611 108 l 586 108 q 522 17 569 54 q 381 -19 475 -19 q 256 6 314 -19 q 154 80 197 31 q 86 202 111 129 q 61 372 61 275 l 61 600 q 88 767 61 694 q 163 890 115 840 q 278 966 211 940 q 425 992 344 992 q 574 965 508 992 q 685 890 639 938 q 754 777 731 842 q 778 639 778 713 l 778 622 l 594 622 l 594 639 q 549 772 594 726 q 422 817 504 817 q 294 765 344 817 q 244 586 244 713 l 244 381 q 428 156 244 156 q 552 199 510 156 q 594 317 594 243 l 361 317 l 361 492 m 493 1075 l 433 1197 l 417 1197 l 357 1075 l 189 1075 l 306 1264 l 544 1264 l 661 1075 l 493 1075 z "},"Ğ":{"ha":850,"x_min":61,"x_max":778,"o":"m 361 492 l 778 492 l 778 0 l 611 0 l 611 108 l 586 108 q 522 17 569 54 q 381 -19 475 -19 q 256 6 314 -19 q 154 80 197 31 q 86 202 111 129 q 61 372 61 275 l 61 600 q 88 767 61 694 q 163 890 115 840 q 278 966 211 940 q 425 992 344 992 q 574 965 508 992 q 685 890 639 938 q 754 777 731 842 q 778 639 778 713 l 778 622 l 594 622 l 594 639 q 549 772 594 726 q 422 817 504 817 q 294 765 344 817 q 244 586 244 713 l 244 381 q 428 156 244 156 q 552 199 510 156 q 594 317 594 243 l 361 317 l 361 492 m 608 1264 l 608 1244 q 558 1120 608 1165 q 425 1075 507 1075 q 292 1120 343 1075 q 242 1244 242 1165 l 242 1264 l 367 1264 l 367 1256 q 381 1214 367 1231 q 425 1197 396 1197 q 469 1214 454 1197 q 483 1256 483 1231 l 483 1264 l 608 1264 z "},"Ġ":{"ha":850,"x_min":61,"x_max":778,"o":"m 361 492 l 778 492 l 778 0 l 611 0 l 611 108 l 586 108 q 522 17 569 54 q 381 -19 475 -19 q 256 6 314 -19 q 154 80 197 31 q 86 202 111 129 q 61 372 61 275 l 61 600 q 88 767 61 694 q 163 890 115 840 q 278 966 211 940 q 425 992 344 992 q 574 965 508 992 q 685 890 639 938 q 754 777 731 842 q 778 639 778 713 l 778 622 l 594 622 l 594 639 q 549 772 594 726 q 422 817 504 817 q 294 765 344 817 q 244 586 244 713 l 244 381 q 428 156 244 156 q 552 199 510 156 q 594 317 594 243 l 361 317 l 361 492 m 557 1213 q 547 1160 557 1185 q 518 1119 536 1136 q 476 1091 500 1101 q 425 1081 451 1081 q 374 1091 397 1081 q 332 1119 350 1101 q 303 1160 314 1136 q 293 1213 293 1185 q 303 1265 293 1240 q 332 1306 314 1289 q 374 1334 350 1324 q 425 1344 397 1344 q 476 1334 451 1344 q 518 1306 500 1324 q 547 1265 536 1289 q 557 1213 557 1240 z "},"Ģ":{"ha":850,"x_min":61,"x_max":778,"o":"m 501 -344 q 465 -433 501 -397 q 376 -469 429 -469 l 293 -469 l 293 -361 l 356 -361 q 393 -319 393 -361 l 393 -303 l 381 -303 q 334 -293 356 -303 q 296 -267 313 -283 q 269 -228 279 -250 q 260 -182 260 -207 q 269 -135 260 -157 q 296 -97 279 -114 q 334 -71 313 -81 q 381 -61 356 -61 q 427 -71 406 -61 q 465 -97 449 -81 q 492 -135 482 -114 q 501 -182 501 -157 l 501 -344 m 361 492 l 778 492 l 778 0 l 611 0 l 611 108 l 586 108 q 522 17 569 54 q 381 -19 475 -19 q 256 6 314 -19 q 154 80 197 31 q 86 202 111 129 q 61 372 61 275 l 61 600 q 88 767 61 694 q 163 890 115 840 q 278 966 211 940 q 425 992 344 992 q 574 965 508 992 q 685 890 639 938 q 754 777 731 842 q 778 639 778 713 l 778 622 l 594 622 l 594 639 q 549 772 594 726 q 422 817 504 817 q 294 765 344 817 q 244 586 244 713 l 244 381 q 428 156 244 156 q 552 199 510 156 q 594 317 594 243 l 361 317 l 361 492 z "},"Ḡ":{"ha":850,"x_min":61,"x_max":778,"o":"m 361 492 l 778 492 l 778 0 l 611 0 l 611 108 l 586 108 q 522 17 569 54 q 381 -19 475 -19 q 256 6 314 -19 q 154 80 197 31 q 86 202 111 129 q 61 372 61 275 l 61 600 q 88 767 61 694 q 163 890 115 840 q 278 966 211 940 q 425 992 344 992 q 574 965 508 992 q 685 890 639 938 q 754 777 731 842 q 778 639 778 713 l 778 622 l 594 622 l 594 639 q 549 772 594 726 q 422 817 504 817 q 294 765 344 817 q 244 586 244 713 l 244 381 q 428 156 244 156 q 552 199 510 156 q 594 317 594 243 l 361 317 l 361 492 m 629 1075 l 221 1075 l 221 1217 l 629 1217 l 629 1075 z "},"Ǧ":{"ha":850,"x_min":61,"x_max":778,"o":"m 361 492 l 778 492 l 778 0 l 611 0 l 611 108 l 586 108 q 522 17 569 54 q 381 -19 475 -19 q 256 6 314 -19 q 154 80 197 31 q 86 202 111 129 q 61 372 61 275 l 61 600 q 88 767 61 694 q 163 890 115 840 q 278 966 211 940 q 425 992 344 992 q 574 965 508 992 q 685 890 639 938 q 754 777 731 842 q 778 639 778 713 l 778 622 l 594 622 l 594 639 q 549 772 594 726 q 422 817 504 817 q 294 765 344 817 q 244 586 244 713 l 244 381 q 428 156 244 156 q 552 199 510 156 q 594 317 594 243 l 361 317 l 361 492 m 661 1264 l 544 1075 l 306 1075 l 189 1264 l 357 1264 l 417 1142 l 433 1142 l 493 1264 l 661 1264 z "},"Ĥ":{"ha":850,"x_min":85,"x_max":765,"o":"m 85 972 l 268 972 l 268 575 l 582 575 l 582 972 l 765 972 l 765 0 l 582 0 l 582 400 l 268 400 l 268 0 l 85 0 l 85 972 m 493 1075 l 433 1197 l 417 1197 l 357 1075 l 189 1075 l 306 1264 l 544 1264 l 661 1075 l 493 1075 z "},"Ḥ":{"ha":850,"x_min":85,"x_max":765,"o":"m 85 972 l 268 972 l 268 575 l 582 575 l 582 972 l 765 972 l 765 0 l 582 0 l 582 400 l 268 400 l 268 0 l 85 0 l 85 972 m 557 -219 q 547 -272 557 -247 q 518 -313 536 -296 q 476 -341 500 -331 q 425 -351 451 -351 q 374 -341 397 -351 q 332 -313 350 -331 q 303 -272 314 -296 q 293 -219 293 -247 q 303 -167 293 -192 q 332 -126 314 -143 q 374 -98 350 -108 q 425 -87 397 -87 q 476 -98 451 -87 q 518 -126 500 -108 q 547 -167 536 -143 q 557 -219 557 -192 z "},"Ḫ":{"ha":850,"x_min":85,"x_max":765,"o":"m 85 972 l 268 972 l 268 575 l 582 575 l 582 972 l 765 972 l 765 0 l 582 0 l 582 400 l 268 400 l 268 0 l 85 0 l 85 972 m 608 -87 l 608 -107 q 558 -231 608 -186 q 425 -276 507 -276 q 292 -231 343 -276 q 242 -107 242 -186 l 242 -87 l 367 -87 l 367 -96 q 381 -137 367 -121 q 425 -154 396 -154 q 469 -137 454 -154 q 483 -96 483 -121 l 483 -87 l 608 -87 z "},"Ħ":{"ha":850,"x_min":18,"x_max":832,"o":"m 101 689 l 18 689 l 18 856 l 101 856 l 101 972 l 285 972 l 285 856 l 565 856 l 565 972 l 749 972 l 749 856 l 832 856 l 832 689 l 749 689 l 749 0 l 565 0 l 565 400 l 285 400 l 285 0 l 101 0 l 101 689 m 565 575 l 565 689 l 285 689 l 285 575 l 565 575 z "},"Ì":{"ha":850,"x_min":100,"x_max":750,"o":"m 100 972 l 750 972 l 750 797 l 517 797 l 517 175 l 750 175 l 750 0 l 100 0 l 100 175 l 333 175 l 333 797 l 100 797 l 100 972 m 488 1075 l 346 1075 l 229 1264 l 415 1264 l 488 1075 z "},"Í":{"ha":850,"x_min":100,"x_max":750,"o":"m 100 972 l 750 972 l 750 797 l 517 797 l 517 175 l 750 175 l 750 0 l 100 0 l 100 175 l 333 175 l 333 797 l 100 797 l 100 972 m 428 1264 l 614 1264 l 497 1075 l 356 1075 l 428 1264 z "},"Î":{"ha":850,"x_min":100,"x_max":750,"o":"m 100 972 l 750 972 l 750 797 l 517 797 l 517 175 l 750 175 l 750 0 l 100 0 l 100 175 l 333 175 l 333 797 l 100 797 l 100 972 m 493 1075 l 433 1197 l 417 1197 l 357 1075 l 189 1075 l 306 1264 l 544 1264 l 661 1075 l 493 1075 z "},"Ĩ":{"ha":850,"x_min":100,"x_max":750,"o":"m 100 972 l 750 972 l 750 797 l 517 797 l 517 175 l 750 175 l 750 0 l 100 0 l 100 175 l 333 175 l 333 797 l 100 797 l 100 972 m 447 1238 q 469 1215 458 1225 q 500 1204 481 1204 q 531 1213 519 1204 q 554 1238 543 1222 l 596 1290 l 703 1206 l 625 1106 q 571 1059 600 1074 q 506 1044 542 1044 q 452 1057 478 1044 q 403 1097 426 1069 q 381 1120 392 1110 q 350 1131 369 1131 q 319 1122 331 1131 q 296 1097 307 1113 l 254 1044 l 147 1129 l 225 1229 q 281 1276 251 1263 q 344 1290 310 1290 q 398 1278 372 1290 q 447 1238 424 1265 z "},"Ï":{"ha":850,"x_min":100,"x_max":750,"o":"m 100 972 l 750 972 l 750 797 l 517 797 l 517 175 l 750 175 l 750 0 l 100 0 l 100 175 l 333 175 l 333 797 l 100 797 l 100 972 m 392 1171 q 381 1119 392 1143 q 353 1077 371 1094 q 310 1049 335 1060 q 260 1039 286 1039 q 208 1049 232 1039 q 167 1077 185 1060 q 138 1119 149 1094 q 128 1171 128 1143 q 138 1223 128 1199 q 167 1265 149 1247 q 208 1292 185 1282 q 260 1303 232 1303 q 310 1292 286 1303 q 353 1265 335 1282 q 381 1223 371 1247 q 392 1171 392 1199 m 722 1171 q 712 1119 722 1143 q 683 1077 701 1094 q 641 1049 665 1060 q 590 1039 617 1039 q 539 1049 563 1039 q 497 1077 515 1060 q 469 1119 479 1094 q 458 1171 458 1143 q 469 1223 458 1199 q 497 1265 479 1247 q 539 1292 515 1282 q 590 1303 563 1303 q 641 1292 617 1303 q 683 1265 665 1282 q 712 1223 701 1247 q 722 1171 722 1199 z "},"Ī":{"ha":850,"x_min":100,"x_max":750,"o":"m 100 972 l 750 972 l 750 797 l 517 797 l 517 175 l 750 175 l 750 0 l 100 0 l 100 175 l 333 175 l 333 797 l 100 797 l 100 972 m 629 1075 l 221 1075 l 221 1217 l 629 1217 l 629 1075 z "},"İ":{"ha":850,"x_min":100,"x_max":750,"o":"m 100 972 l 750 972 l 750 797 l 517 797 l 517 175 l 750 175 l 750 0 l 100 0 l 100 175 l 333 175 l 333 797 l 100 797 l 100 972 m 557 1213 q 547 1160 557 1185 q 518 1119 536 1136 q 476 1091 500 1101 q 425 1081 451 1081 q 374 1091 397 1081 q 332 1119 350 1101 q 303 1160 314 1136 q 293 1213 293 1185 q 303 1265 293 1240 q 332 1306 314 1289 q 374 1334 350 1324 q 425 1344 397 1344 q 476 1334 451 1344 q 518 1306 500 1324 q 547 1265 536 1289 q 557 1213 557 1240 z "},"Ǐ":{"ha":850,"x_min":100,"x_max":750,"o":"m 100 972 l 750 972 l 750 797 l 517 797 l 517 175 l 750 175 l 750 0 l 100 0 l 100 175 l 333 175 l 333 797 l 100 797 l 100 972 m 661 1264 l 544 1075 l 306 1075 l 189 1264 l 357 1264 l 417 1142 l 433 1142 l 493 1264 l 661 1264 z "},"Į":{"ha":850,"x_min":100,"x_max":826,"o":"m 100 972 l 750 972 l 750 797 l 517 797 l 517 175 l 750 175 l 750 0 l 732 -78 q 731 -89 731 -85 q 763 -119 731 -119 l 826 -119 l 826 -236 l 715 -236 q 639 -210 674 -236 q 604 -132 604 -183 q 608 -100 604 -119 l 631 0 l 100 0 l 100 175 l 333 175 l 333 797 l 100 797 l 100 972 z "},"Ỉ":{"ha":850,"x_min":100,"x_max":750,"o":"m 100 972 l 750 972 l 750 797 l 517 797 l 517 175 l 750 175 l 750 0 l 100 0 l 100 175 l 333 175 l 333 797 l 100 797 l 100 972 m 476 1042 l 463 1106 l 479 1106 q 501 1084 486 1093 q 543 1075 517 1075 q 630 1111 601 1075 q 658 1197 658 1147 q 615 1299 658 1262 q 506 1336 571 1336 q 439 1328 465 1336 q 389 1308 413 1321 l 425 1214 q 494 1233 457 1233 q 528 1224 515 1233 q 542 1197 542 1214 q 535 1176 542 1185 q 514 1167 528 1167 q 486 1186 490 1167 l 351 1186 l 351 1169 l 379 1042 l 476 1042 z "},"Ị":{"ha":850,"x_min":100,"x_max":750,"o":"m 100 972 l 750 972 l 750 797 l 517 797 l 517 175 l 750 175 l 750 0 l 100 0 l 100 175 l 333 175 l 333 797 l 100 797 l 100 972 m 557 -219 q 547 -272 557 -247 q 518 -313 536 -296 q 476 -341 500 -331 q 425 -351 451 -351 q 374 -341 397 -351 q 332 -313 350 -331 q 303 -272 314 -296 q 293 -219 293 -247 q 303 -167 293 -192 q 332 -126 314 -143 q 374 -98 350 -108 q 425 -87 397 -87 q 476 -98 451 -87 q 518 -126 500 -108 q 547 -167 536 -143 q 557 -219 557 -192 z "},"Ĭ":{"ha":850,"x_min":100,"x_max":750,"o":"m 100 972 l 750 972 l 750 797 l 517 797 l 517 175 l 750 175 l 750 0 l 100 0 l 100 175 l 333 175 l 333 797 l 100 797 l 100 972 m 608 1264 l 608 1244 q 558 1120 608 1165 q 425 1075 507 1075 q 292 1120 343 1075 q 242 1244 242 1165 l 242 1264 l 367 1264 l 367 1256 q 381 1214 367 1231 q 425 1197 396 1197 q 469 1214 454 1197 q 483 1256 483 1231 l 483 1264 l 608 1264 z "},"Ĵ":{"ha":850,"x_min":85,"x_max":863,"o":"m 718 292 q 636 60 718 140 q 411 -19 554 -19 q 278 1 338 -19 q 175 60 218 21 q 108 158 132 100 q 85 292 85 215 l 85 383 l 268 383 l 268 292 q 304 190 268 226 q 406 153 340 153 q 501 189 467 153 q 535 292 535 225 l 535 800 l 435 800 l 435 972 l 801 972 l 801 800 l 718 800 l 718 292 m 694 1075 l 635 1197 l 618 1197 l 558 1075 l 390 1075 l 507 1264 l 746 1264 l 863 1075 l 694 1075 z "},"Ķ":{"ha":850,"x_min":107,"x_max":811,"o":"m 567 -344 q 531 -433 567 -397 q 442 -469 494 -469 l 358 -469 l 358 -361 l 421 -361 q 458 -319 458 -361 l 458 -303 l 446 -303 q 399 -293 421 -303 q 361 -267 378 -283 q 335 -228 344 -250 q 325 -182 325 -207 q 335 -135 325 -157 q 361 -97 344 -114 q 399 -71 378 -81 q 446 -61 421 -61 q 492 -71 471 -61 q 531 -97 514 -81 q 557 -135 547 -114 q 567 -182 567 -157 l 567 -344 m 290 0 l 107 0 l 107 972 l 290 972 l 290 574 l 331 574 l 588 972 l 794 972 l 794 964 l 494 499 l 494 474 l 811 8 l 811 0 l 596 0 l 331 399 l 290 399 l 290 0 z "},"Ĺ":{"ha":850,"x_min":114,"x_max":739,"o":"m 114 972 l 297 972 l 297 175 l 739 175 l 739 0 l 114 0 l 114 972 m 208 1264 l 394 1264 l 278 1075 l 136 1075 l 208 1264 z "},"Ľ":{"ha":850,"x_min":114,"x_max":739,"o":"m 738 689 q 701 600 738 636 q 613 564 665 564 l 529 564 l 529 672 l 592 672 q 629 714 629 672 l 629 731 l 617 731 q 570 740 592 731 q 532 767 549 750 q 506 805 515 783 q 496 851 496 826 q 506 898 496 876 q 532 936 515 919 q 570 963 549 953 q 617 972 592 972 q 663 963 642 972 q 701 936 685 953 q 728 898 718 919 q 738 851 738 876 l 738 689 m 114 972 l 297 972 l 297 175 l 739 175 l 739 0 l 114 0 l 114 972 z "},"Ļ":{"ha":850,"x_min":114,"x_max":739,"o":"m 547 -344 q 511 -433 547 -397 q 422 -469 475 -469 l 339 -469 l 339 -361 l 401 -361 q 439 -319 439 -361 l 439 -303 l 426 -303 q 380 -293 401 -303 q 342 -267 358 -283 q 315 -228 325 -250 q 306 -182 306 -207 q 315 -135 306 -157 q 342 -97 325 -114 q 380 -71 358 -81 q 426 -61 401 -61 q 473 -71 451 -61 q 511 -97 494 -81 q 538 -135 528 -114 q 547 -182 547 -157 l 547 -344 m 114 972 l 297 972 l 297 175 l 739 175 l 739 0 l 114 0 l 114 972 z "},"Ḷ":{"ha":850,"x_min":114,"x_max":739,"o":"m 114 972 l 297 972 l 297 175 l 739 175 l 739 0 l 114 0 l 114 972 m 558 -219 q 548 -272 558 -247 q 519 -313 538 -296 q 477 -341 501 -331 q 426 -351 453 -351 q 375 -341 399 -351 q 333 -313 351 -331 q 305 -272 315 -296 q 294 -219 294 -247 q 305 -167 294 -192 q 333 -126 315 -143 q 375 -98 351 -108 q 426 -87 399 -87 q 477 -98 453 -87 q 519 -126 501 -108 q 548 -167 538 -143 q 558 -219 558 -192 z "},"Ḹ":{"ha":850,"x_min":114,"x_max":739,"o":"m 114 972 l 297 972 l 297 175 l 739 175 l 739 0 l 114 0 l 114 972 m 638 1075 l 229 1075 l 229 1217 l 638 1217 l 638 1075 m 558 -219 q 548 -272 558 -247 q 519 -313 538 -296 q 477 -341 501 -331 q 426 -351 453 -351 q 375 -341 399 -351 q 333 -313 351 -331 q 305 -272 315 -296 q 294 -219 294 -247 q 305 -167 294 -192 q 333 -126 315 -143 q 375 -98 351 -108 q 426 -87 399 -87 q 477 -98 453 -87 q 519 -126 501 -108 q 548 -167 538 -143 q 558 -219 558 -192 z "},"Ḻ":{"ha":850,"x_min":114,"x_max":739,"o":"m 114 972 l 297 972 l 297 175 l 739 175 l 739 0 l 114 0 l 114 972 m 631 -231 l 222 -231 l 222 -89 l 631 -89 l 631 -231 z "},"Ł":{"ha":850,"x_min":0,"x_max":753,"o":"m 128 325 l 75 299 l 0 447 l 128 511 l 128 972 l 311 972 l 311 604 l 385 642 l 460 493 l 311 418 l 311 175 l 753 175 l 753 0 l 128 0 l 128 325 z "},"Ŀ":{"ha":850,"x_min":114,"x_max":739,"o":"m 114 972 l 297 972 l 297 175 l 739 175 l 739 0 l 114 0 l 114 972 m 739 486 q 728 434 739 458 q 700 392 718 410 q 658 365 682 375 q 607 354 633 354 q 556 365 579 354 q 514 392 532 375 q 485 434 496 410 q 475 486 475 458 q 485 538 475 514 q 514 580 496 563 q 556 608 532 597 q 607 618 579 618 q 658 608 633 618 q 700 580 682 597 q 728 538 718 563 q 739 486 739 514 z "},"Ṃ":{"ha":850,"x_min":31,"x_max":819,"o":"m 31 972 l 353 972 l 408 242 l 408 100 l 442 100 l 442 242 l 497 972 l 819 972 l 819 0 l 653 0 l 653 650 l 669 872 l 636 872 l 564 0 l 289 0 l 214 872 l 181 872 l 197 650 l 197 0 l 31 0 l 31 972 m 557 -219 q 547 -272 557 -247 q 518 -313 536 -296 q 476 -341 500 -331 q 425 -351 451 -351 q 374 -341 397 -351 q 332 -313 350 -331 q 303 -272 314 -296 q 293 -219 293 -247 q 303 -167 293 -192 q 332 -126 314 -143 q 374 -98 350 -108 q 425 -87 397 -87 q 476 -98 451 -87 q 518 -126 500 -108 q 547 -167 536 -143 q 557 -219 557 -192 z "},"Ń":{"ha":850,"x_min":85,"x_max":765,"o":"m 557 92 l 582 92 l 582 972 l 765 972 l 765 0 l 407 0 l 293 881 l 268 881 l 268 0 l 85 0 l 85 972 l 443 972 l 557 92 m 513 1264 l 699 1264 l 582 1075 l 440 1075 l 513 1264 z "},"Ň":{"ha":850,"x_min":85,"x_max":765,"o":"m 557 92 l 582 92 l 582 972 l 765 972 l 765 0 l 407 0 l 293 881 l 268 881 l 268 0 l 85 0 l 85 972 l 443 972 l 557 92 m 747 1264 l 631 1075 l 392 1075 l 275 1264 l 443 1264 l 503 1142 l 519 1142 l 579 1264 l 747 1264 z "},"Ñ":{"ha":850,"x_min":85,"x_max":765,"o":"m 557 92 l 582 92 l 582 972 l 765 972 l 765 0 l 407 0 l 293 881 l 268 881 l 268 0 l 85 0 l 85 972 l 443 972 l 557 92 m 456 1238 q 478 1215 467 1225 q 508 1204 489 1204 q 540 1213 528 1204 q 563 1238 551 1222 l 604 1290 l 711 1206 l 633 1106 q 579 1059 608 1074 q 514 1044 550 1044 q 460 1057 486 1044 q 411 1097 435 1069 q 389 1120 400 1110 q 358 1131 378 1131 q 327 1122 339 1131 q 304 1097 315 1113 l 263 1044 l 156 1129 l 233 1229 q 289 1276 260 1263 q 353 1290 318 1290 q 406 1278 381 1290 q 456 1238 432 1265 z "},"Ņ":{"ha":850,"x_min":85,"x_max":765,"o":"m 546 -344 q 510 -433 546 -397 q 421 -469 474 -469 l 338 -469 l 338 -361 l 400 -361 q 438 -319 438 -361 l 438 -303 l 425 -303 q 378 -293 400 -303 q 340 -267 357 -283 q 314 -228 324 -250 q 304 -182 304 -207 q 314 -135 304 -157 q 340 -97 324 -114 q 378 -71 357 -81 q 425 -61 400 -61 q 472 -71 450 -61 q 510 -97 493 -81 q 536 -135 526 -114 q 546 -182 546 -157 l 546 -344 m 557 92 l 582 92 l 582 972 l 765 972 l 765 0 l 407 0 l 293 881 l 268 881 l 268 0 l 85 0 l 85 972 l 443 972 l 557 92 z "},"Ṅ":{"ha":850,"x_min":85,"x_max":765,"o":"m 557 92 l 582 92 l 582 972 l 765 972 l 765 0 l 407 0 l 293 881 l 268 881 l 268 0 l 85 0 l 85 972 l 443 972 l 557 92 m 643 1213 q 633 1160 643 1185 q 604 1119 622 1136 q 562 1091 586 1101 q 511 1081 538 1081 q 460 1091 483 1081 q 418 1119 436 1101 q 390 1160 400 1136 q 379 1213 379 1185 q 390 1265 379 1240 q 418 1306 400 1289 q 460 1334 436 1324 q 511 1344 483 1344 q 562 1334 538 1344 q 604 1306 586 1324 q 633 1265 622 1289 q 643 1213 643 1240 z "},"Ṇ":{"ha":850,"x_min":85,"x_max":765,"o":"m 557 92 l 582 92 l 582 972 l 765 972 l 765 0 l 407 0 l 293 881 l 268 881 l 268 0 l 85 0 l 85 972 l 443 972 l 557 92 m 557 -219 q 547 -272 557 -247 q 518 -313 536 -296 q 476 -341 500 -331 q 425 -351 451 -351 q 374 -341 397 -351 q 332 -313 350 -331 q 303 -272 314 -296 q 293 -219 293 -247 q 303 -167 293 -192 q 332 -126 314 -143 q 374 -98 350 -108 q 425 -87 397 -87 q 476 -98 451 -87 q 518 -126 500 -108 q 547 -167 536 -143 q 557 -219 557 -192 z "},"Ṉ":{"ha":850,"x_min":85,"x_max":765,"o":"m 557 92 l 582 92 l 582 972 l 765 972 l 765 0 l 407 0 l 293 881 l 268 881 l 268 0 l 85 0 l 85 972 l 443 972 l 557 92 m 629 -231 l 221 -231 l 221 -89 l 629 -89 l 629 -231 z "},"Ò":{"ha":850,"x_min":67,"x_max":783,"o":"m 67 594 q 162 888 67 783 q 425 992 257 992 q 688 888 593 992 q 783 594 783 783 l 783 378 q 688 82 783 183 q 425 -19 593 -19 q 162 82 257 -19 q 67 378 67 183 l 67 594 m 425 147 q 508 163 475 147 q 563 208 542 179 q 592 278 583 238 q 600 367 600 318 l 600 606 q 590 692 600 651 q 560 761 581 732 q 506 808 539 790 q 425 825 472 825 q 344 808 378 825 q 290 761 311 790 q 260 692 269 732 q 250 606 250 651 l 250 367 q 258 278 250 318 q 288 208 267 238 q 342 163 308 179 q 425 147 375 147 m 499 1075 l 357 1075 l 240 1264 l 426 1264 l 499 1075 z "},"Ó":{"ha":850,"x_min":67,"x_max":783,"o":"m 67 594 q 162 888 67 783 q 425 992 257 992 q 688 888 593 992 q 783 594 783 783 l 783 378 q 688 82 783 183 q 425 -19 593 -19 q 162 82 257 -19 q 67 378 67 183 l 67 594 m 425 147 q 508 163 475 147 q 563 208 542 179 q 592 278 583 238 q 600 367 600 318 l 600 606 q 590 692 600 651 q 560 761 581 732 q 506 808 539 790 q 425 825 472 825 q 344 808 378 825 q 290 761 311 790 q 260 692 269 732 q 250 606 250 651 l 250 367 q 258 278 250 318 q 288 208 267 238 q 342 163 308 179 q 425 147 375 147 m 425 1264 l 611 1264 l 494 1075 l 353 1075 l 425 1264 z "},"Ô":{"ha":850,"x_min":67,"x_max":783,"o":"m 67 594 q 162 888 67 783 q 425 992 257 992 q 688 888 593 992 q 783 594 783 783 l 783 378 q 688 82 783 183 q 425 -19 593 -19 q 162 82 257 -19 q 67 378 67 183 l 67 594 m 425 147 q 508 163 475 147 q 563 208 542 179 q 592 278 583 238 q 600 367 600 318 l 600 606 q 590 692 600 651 q 560 761 581 732 q 506 808 539 790 q 425 825 472 825 q 344 808 378 825 q 290 761 311 790 q 260 692 269 732 q 250 606 250 651 l 250 367 q 258 278 250 318 q 288 208 267 238 q 342 163 308 179 q 425 147 375 147 m 493 1075 l 433 1197 l 417 1197 l 357 1075 l 189 1075 l 306 1264 l 544 1264 l 661 1075 l 493 1075 z "},"Õ":{"ha":850,"x_min":67,"x_max":783,"o":"m 67 594 q 162 888 67 783 q 425 992 257 992 q 688 888 593 992 q 783 594 783 783 l 783 378 q 688 82 783 183 q 425 -19 593 -19 q 162 82 257 -19 q 67 378 67 183 l 67 594 m 425 147 q 508 163 475 147 q 563 208 542 179 q 592 278 583 238 q 600 367 600 318 l 600 606 q 590 692 600 651 q 560 761 581 732 q 506 808 539 790 q 425 825 472 825 q 344 808 378 825 q 290 761 311 790 q 260 692 269 732 q 250 606 250 651 l 250 367 q 258 278 250 318 q 288 208 267 238 q 342 163 308 179 q 425 147 375 147 m 447 1240 q 469 1217 458 1228 q 500 1207 481 1207 q 531 1216 519 1207 q 554 1240 543 1225 l 596 1293 l 703 1208 l 625 1108 q 571 1062 600 1076 q 506 1047 542 1047 q 452 1060 478 1047 q 403 1100 426 1072 q 381 1123 392 1113 q 350 1133 369 1133 q 319 1124 331 1133 q 296 1100 307 1115 l 254 1047 l 147 1132 l 225 1232 q 281 1279 251 1265 q 344 1293 310 1293 q 398 1281 372 1293 q 447 1240 424 1268 z "},"Ö":{"ha":850,"x_min":67,"x_max":783,"o":"m 67 594 q 162 888 67 783 q 425 992 257 992 q 688 888 593 992 q 783 594 783 783 l 783 378 q 688 82 783 183 q 425 -19 593 -19 q 162 82 257 -19 q 67 378 67 183 l 67 594 m 425 147 q 508 163 475 147 q 563 208 542 179 q 592 278 583 238 q 600 367 600 318 l 600 606 q 590 692 600 651 q 560 761 581 732 q 506 808 539 790 q 425 825 472 825 q 344 808 378 825 q 290 761 311 790 q 260 692 269 732 q 250 606 250 651 l 250 367 q 258 278 250 318 q 288 208 267 238 q 342 163 308 179 q 425 147 375 147 m 392 1171 q 381 1119 392 1143 q 353 1077 371 1094 q 310 1049 335 1060 q 260 1039 286 1039 q 208 1049 232 1039 q 167 1077 185 1060 q 138 1119 149 1094 q 128 1171 128 1143 q 138 1223 128 1199 q 167 1265 149 1247 q 208 1292 185 1282 q 260 1303 232 1303 q 310 1292 286 1303 q 353 1265 335 1282 q 381 1223 371 1247 q 392 1171 392 1199 m 722 1171 q 712 1119 722 1143 q 683 1077 701 1094 q 641 1049 665 1060 q 590 1039 617 1039 q 539 1049 563 1039 q 497 1077 515 1060 q 469 1119 479 1094 q 458 1171 458 1143 q 469 1223 458 1199 q 497 1265 479 1247 q 539 1292 515 1282 q 590 1303 563 1303 q 641 1292 617 1303 q 683 1265 665 1282 q 712 1223 701 1247 q 722 1171 722 1199 z "},"Ō":{"ha":850,"x_min":67,"x_max":783,"o":"m 67 594 q 162 888 67 783 q 425 992 257 992 q 688 888 593 992 q 783 594 783 783 l 783 378 q 688 82 783 183 q 425 -19 593 -19 q 162 82 257 -19 q 67 378 67 183 l 67 594 m 425 147 q 508 163 475 147 q 563 208 542 179 q 592 278 583 238 q 600 367 600 318 l 600 606 q 590 692 600 651 q 560 761 581 732 q 506 808 539 790 q 425 825 472 825 q 344 808 378 825 q 290 761 311 790 q 260 692 269 732 q 250 606 250 651 l 250 367 q 258 278 250 318 q 288 208 267 238 q 342 163 308 179 q 425 147 375 147 m 629 1075 l 221 1075 l 221 1217 l 629 1217 l 629 1075 z "},"Ő":{"ha":850,"x_min":67,"x_max":783,"o":"m 67 594 q 162 888 67 783 q 425 992 257 992 q 688 888 593 992 q 783 594 783 783 l 783 378 q 688 82 783 183 q 425 -19 593 -19 q 162 82 257 -19 q 67 378 67 183 l 67 594 m 425 147 q 508 163 475 147 q 563 208 542 179 q 592 278 583 238 q 600 367 600 318 l 600 606 q 590 692 600 651 q 560 761 581 732 q 506 808 539 790 q 425 825 472 825 q 344 808 378 825 q 290 761 311 790 q 260 692 269 732 q 250 606 250 651 l 250 367 q 258 278 250 318 q 288 208 267 238 q 342 163 308 179 q 425 147 375 147 m 301 1264 l 488 1264 l 371 1075 l 229 1075 l 301 1264 m 533 1264 l 719 1264 l 603 1075 l 461 1075 l 533 1264 z "},"Ŏ":{"ha":850,"x_min":67,"x_max":783,"o":"m 67 594 q 162 888 67 783 q 425 992 257 992 q 688 888 593 992 q 783 594 783 783 l 783 378 q 688 82 783 183 q 425 -19 593 -19 q 162 82 257 -19 q 67 378 67 183 l 67 594 m 425 147 q 508 163 475 147 q 563 208 542 179 q 592 278 583 238 q 600 367 600 318 l 600 606 q 590 692 600 651 q 560 761 581 732 q 506 808 539 790 q 425 825 472 825 q 344 808 378 825 q 290 761 311 790 q 260 692 269 732 q 250 606 250 651 l 250 367 q 258 278 250 318 q 288 208 267 238 q 342 163 308 179 q 425 147 375 147 m 608 1264 l 608 1244 q 558 1120 608 1165 q 425 1075 507 1075 q 292 1120 343 1075 q 242 1244 242 1165 l 242 1264 l 367 1264 l 367 1256 q 381 1214 367 1231 q 425 1197 396 1197 q 469 1214 454 1197 q 483 1256 483 1231 l 483 1264 l 608 1264 z "},"Ǒ":{"ha":850,"x_min":67,"x_max":783,"o":"m 67 594 q 162 888 67 783 q 425 992 257 992 q 688 888 593 992 q 783 594 783 783 l 783 378 q 688 82 783 183 q 425 -19 593 -19 q 162 82 257 -19 q 67 378 67 183 l 67 594 m 425 147 q 508 163 475 147 q 563 208 542 179 q 592 278 583 238 q 600 367 600 318 l 600 606 q 590 692 600 651 q 560 761 581 732 q 506 808 539 790 q 425 825 472 825 q 344 808 378 825 q 290 761 311 790 q 260 692 269 732 q 250 606 250 651 l 250 367 q 258 278 250 318 q 288 208 267 238 q 342 163 308 179 q 425 147 375 147 m 661 1264 l 544 1075 l 306 1075 l 189 1264 l 357 1264 l 417 1142 l 433 1142 l 493 1264 l 661 1264 z "},"Ǫ":{"ha":850,"x_min":67,"x_max":783,"o":"m 67 594 q 162 888 67 783 q 425 992 257 992 q 688 888 593 992 q 783 594 783 783 l 783 378 q 703 100 783 200 q 482 -15 624 0 l 468 -78 q 467 -89 467 -85 q 499 -119 467 -119 l 563 -119 l 563 -236 l 451 -236 q 375 -210 410 -236 q 340 -132 340 -183 q 344 -100 340 -119 l 363 -15 q 145 102 224 3 q 67 378 67 201 l 67 594 m 425 147 q 508 163 475 147 q 563 208 542 179 q 592 278 583 238 q 600 367 600 318 l 600 606 q 590 692 600 651 q 560 761 581 732 q 506 808 539 790 q 425 825 472 825 q 344 808 378 825 q 290 761 311 790 q 260 692 269 732 q 250 606 250 651 l 250 367 q 258 278 250 318 q 288 208 267 238 q 342 163 308 179 q 425 147 375 147 z "},"Ọ":{"ha":850,"x_min":67,"x_max":783,"o":"m 67 594 q 162 888 67 783 q 425 992 257 992 q 688 888 593 992 q 783 594 783 783 l 783 378 q 688 82 783 183 q 425 -19 593 -19 q 162 82 257 -19 q 67 378 67 183 l 67 594 m 425 147 q 508 163 475 147 q 563 208 542 179 q 592 278 583 238 q 600 367 600 318 l 600 606 q 590 692 600 651 q 560 761 581 732 q 506 808 539 790 q 425 825 472 825 q 344 808 378 825 q 290 761 311 790 q 260 692 269 732 q 250 606 250 651 l 250 367 q 258 278 250 318 q 288 208 267 238 q 342 163 308 179 q 425 147 375 147 m 557 -219 q 547 -272 557 -247 q 518 -313 536 -296 q 476 -341 500 -331 q 425 -351 451 -351 q 374 -341 397 -351 q 332 -313 350 -331 q 303 -272 314 -296 q 293 -219 293 -247 q 303 -167 293 -192 q 332 -126 314 -143 q 374 -98 350 -108 q 425 -87 397 -87 q 476 -98 451 -87 q 518 -126 500 -108 q 547 -167 536 -143 q 557 -219 557 -192 z "},"Ỏ":{"ha":850,"x_min":67,"x_max":783,"o":"m 67 594 q 162 888 67 783 q 425 992 257 992 q 688 888 593 992 q 783 594 783 783 l 783 378 q 688 82 783 183 q 425 -19 593 -19 q 162 82 257 -19 q 67 378 67 183 l 67 594 m 425 147 q 508 163 475 147 q 563 208 542 179 q 592 278 583 238 q 600 367 600 318 l 600 606 q 590 692 600 651 q 560 761 581 732 q 506 808 539 790 q 425 825 472 825 q 344 808 378 825 q 290 761 311 790 q 260 692 269 732 q 250 606 250 651 l 250 367 q 258 278 250 318 q 288 208 267 238 q 342 163 308 179 q 425 147 375 147 m 476 1042 l 463 1106 l 479 1106 q 501 1084 486 1093 q 543 1075 517 1075 q 630 1111 601 1075 q 658 1197 658 1147 q 615 1299 658 1262 q 506 1336 571 1336 q 439 1328 465 1336 q 389 1308 413 1321 l 425 1214 q 494 1233 457 1233 q 528 1224 515 1233 q 542 1197 542 1214 q 535 1176 542 1185 q 514 1167 528 1167 q 486 1186 490 1167 l 351 1186 l 351 1169 l 379 1042 l 476 1042 z "},"Ố":{"ha":850,"x_min":67,"x_max":893,"o":"m 67 594 q 162 888 67 783 q 425 992 257 992 q 688 888 593 992 q 783 594 783 783 l 783 378 q 688 82 783 183 q 425 -19 593 -19 q 162 82 257 -19 q 67 378 67 183 l 67 594 m 425 147 q 508 163 475 147 q 563 208 542 179 q 592 278 583 238 q 600 367 600 318 l 600 606 q 590 692 600 651 q 560 761 581 732 q 506 808 539 790 q 425 825 472 825 q 344 808 378 825 q 290 761 311 790 q 260 692 269 732 q 250 606 250 651 l 250 367 q 258 278 250 318 q 288 208 267 238 q 342 163 308 179 q 425 147 375 147 m 493 1075 l 433 1197 l 417 1197 l 357 1075 l 189 1075 l 306 1264 l 544 1264 l 661 1075 l 493 1075 m 707 1386 l 893 1386 l 776 1197 l 635 1197 l 707 1386 z "},"Ồ":{"ha":850,"x_min":-42,"x_max":783,"o":"m 67 594 q 162 888 67 783 q 425 992 257 992 q 688 888 593 992 q 783 594 783 783 l 783 378 q 688 82 783 183 q 425 -19 593 -19 q 162 82 257 -19 q 67 378 67 183 l 67 594 m 425 147 q 508 163 475 147 q 563 208 542 179 q 592 278 583 238 q 600 367 600 318 l 600 606 q 590 692 600 651 q 560 761 581 732 q 506 808 539 790 q 425 825 472 825 q 344 808 378 825 q 290 761 311 790 q 260 692 269 732 q 250 606 250 651 l 250 367 q 258 278 250 318 q 288 208 267 238 q 342 163 308 179 q 425 147 375 147 m 493 1075 l 433 1197 l 417 1197 l 357 1075 l 189 1075 l 306 1264 l 544 1264 l 661 1075 l 493 1075 m 217 1197 l 75 1197 l -42 1386 l 144 1386 l 217 1197 z "},"Ổ":{"ha":850,"x_min":67,"x_max":915,"o":"m 67 594 q 162 888 67 783 q 425 992 257 992 q 688 888 593 992 q 783 594 783 783 l 783 378 q 688 82 783 183 q 425 -19 593 -19 q 162 82 257 -19 q 67 378 67 183 l 67 594 m 425 147 q 508 163 475 147 q 563 208 542 179 q 592 278 583 238 q 600 367 600 318 l 600 606 q 590 692 600 651 q 560 761 581 732 q 506 808 539 790 q 425 825 472 825 q 344 808 378 825 q 290 761 311 790 q 260 692 269 732 q 250 606 250 651 l 250 367 q 258 278 250 318 q 288 208 267 238 q 342 163 308 179 q 425 147 375 147 m 493 1075 l 433 1197 l 417 1197 l 357 1075 l 189 1075 l 306 1264 l 544 1264 l 661 1075 l 493 1075 m 733 1197 l 719 1261 l 736 1261 q 758 1240 743 1249 q 800 1231 774 1231 q 887 1267 858 1231 q 915 1353 915 1303 q 872 1455 915 1418 q 763 1492 828 1492 q 696 1484 722 1492 q 646 1464 669 1476 l 682 1369 q 751 1389 714 1389 q 785 1379 772 1389 q 799 1353 799 1369 q 792 1331 799 1340 q 771 1322 785 1322 q 743 1342 747 1322 l 608 1342 l 608 1325 l 636 1197 l 733 1197 z "},"Ỗ":{"ha":850,"x_min":67,"x_max":783,"o":"m 67 594 q 162 888 67 783 q 425 992 257 992 q 688 888 593 992 q 783 594 783 783 l 783 378 q 688 82 783 183 q 425 -19 593 -19 q 162 82 257 -19 q 67 378 67 183 l 67 594 m 425 147 q 508 163 475 147 q 563 208 542 179 q 592 278 583 238 q 600 367 600 318 l 600 606 q 590 692 600 651 q 560 761 581 732 q 506 808 539 790 q 425 825 472 825 q 344 808 378 825 q 290 761 311 790 q 260 692 269 732 q 250 606 250 651 l 250 367 q 258 278 250 318 q 288 208 267 238 q 342 163 308 179 q 425 147 375 147 m 493 1031 l 433 1153 l 417 1153 l 357 1031 l 189 1031 l 306 1219 l 544 1219 l 661 1031 l 493 1031 m 447 1454 q 469 1431 458 1442 q 500 1421 481 1421 q 531 1430 519 1421 q 554 1454 543 1439 l 596 1507 l 703 1422 l 625 1322 q 571 1276 600 1290 q 506 1261 542 1261 q 452 1274 478 1261 q 403 1314 426 1286 q 381 1337 392 1326 q 350 1347 369 1347 q 319 1338 331 1347 q 296 1314 307 1329 l 254 1261 l 147 1346 l 225 1446 q 281 1493 251 1479 q 344 1507 310 1507 q 398 1494 372 1507 q 447 1454 424 1482 z "},"Ộ":{"ha":850,"x_min":67,"x_max":783,"o":"m 67 594 q 162 888 67 783 q 425 992 257 992 q 688 888 593 992 q 783 594 783 783 l 783 378 q 688 82 783 183 q 425 -19 593 -19 q 162 82 257 -19 q 67 378 67 183 l 67 594 m 425 147 q 508 163 475 147 q 563 208 542 179 q 592 278 583 238 q 600 367 600 318 l 600 606 q 590 692 600 651 q 560 761 581 732 q 506 808 539 790 q 425 825 472 825 q 344 808 378 825 q 290 761 311 790 q 260 692 269 732 q 250 606 250 651 l 250 367 q 258 278 250 318 q 288 208 267 238 q 342 163 308 179 q 425 147 375 147 m 493 1075 l 433 1197 l 417 1197 l 357 1075 l 189 1075 l 306 1264 l 544 1264 l 661 1075 l 493 1075 m 557 -219 q 547 -272 557 -247 q 518 -313 536 -296 q 476 -341 500 -331 q 425 -351 451 -351 q 374 -341 397 -351 q 332 -313 350 -331 q 303 -272 314 -296 q 293 -219 293 -247 q 303 -167 293 -192 q 332 -126 314 -143 q 374 -98 350 -108 q 425 -87 397 -87 q 476 -98 451 -87 q 518 -126 500 -108 q 547 -167 536 -143 q 557 -219 557 -192 z "},"Ơ":{"ha":850,"x_min":19,"x_max":842,"o":"m 842 683 q 806 594 842 631 q 717 558 769 558 l 586 558 l 586 292 q 512 60 586 139 q 303 -19 438 -19 q 94 60 168 -19 q 19 292 19 139 l 19 681 q 94 913 19 833 q 303 992 168 992 q 512 913 438 992 q 586 681 586 833 l 586 667 l 696 667 q 733 708 733 667 l 733 731 l 721 731 q 674 740 696 731 q 636 767 653 750 q 610 805 619 783 q 600 851 600 826 q 610 898 600 876 q 636 936 619 919 q 674 963 653 953 q 721 972 696 972 q 767 963 746 972 q 806 936 789 953 q 832 898 822 919 q 842 851 842 876 l 842 683 m 303 156 q 376 187 349 156 q 403 281 403 218 l 403 692 q 376 785 403 754 q 303 817 349 817 q 230 785 257 817 q 203 692 203 754 l 203 281 q 230 187 203 218 q 303 156 257 156 z "},"Ớ":{"ha":850,"x_min":19,"x_max":842,"o":"m 842 683 q 806 594 842 631 q 717 558 769 558 l 586 558 l 586 292 q 512 60 586 139 q 303 -19 438 -19 q 94 60 168 -19 q 19 292 19 139 l 19 681 q 94 913 19 833 q 303 992 168 992 q 512 913 438 992 q 586 681 586 833 l 586 667 l 696 667 q 733 708 733 667 l 733 731 l 721 731 q 674 740 696 731 q 636 767 653 750 q 610 805 619 783 q 600 851 600 826 q 610 898 600 876 q 636 936 619 919 q 674 963 653 953 q 721 972 696 972 q 767 963 746 972 q 806 936 789 953 q 832 898 822 919 q 842 851 842 876 l 842 683 m 303 156 q 376 187 349 156 q 403 281 403 218 l 403 692 q 376 785 403 754 q 303 817 349 817 q 230 785 257 817 q 203 692 203 754 l 203 281 q 230 187 203 218 q 303 156 257 156 m 306 1264 l 492 1264 l 375 1075 l 233 1075 l 306 1264 z "},"Ờ":{"ha":850,"x_min":19,"x_max":842,"o":"m 842 683 q 806 594 842 631 q 717 558 769 558 l 586 558 l 586 292 q 512 60 586 139 q 303 -19 438 -19 q 94 60 168 -19 q 19 292 19 139 l 19 681 q 94 913 19 833 q 303 992 168 992 q 512 913 438 992 q 586 681 586 833 l 586 667 l 696 667 q 733 708 733 667 l 733 731 l 721 731 q 674 740 696 731 q 636 767 653 750 q 610 805 619 783 q 600 851 600 826 q 610 898 600 876 q 636 936 619 919 q 674 963 653 953 q 721 972 696 972 q 767 963 746 972 q 806 936 789 953 q 832 898 822 919 q 842 851 842 876 l 842 683 m 303 156 q 376 187 349 156 q 403 281 403 218 l 403 692 q 376 785 403 754 q 303 817 349 817 q 230 785 257 817 q 203 692 203 754 l 203 281 q 230 187 203 218 q 303 156 257 156 m 375 1075 l 233 1075 l 117 1264 l 303 1264 l 375 1075 z "},"Ở":{"ha":850,"x_min":19,"x_max":842,"o":"m 842 683 q 806 594 842 631 q 717 558 769 558 l 586 558 l 586 292 q 512 60 586 139 q 303 -19 438 -19 q 94 60 168 -19 q 19 292 19 139 l 19 681 q 94 913 19 833 q 303 992 168 992 q 512 913 438 992 q 586 681 586 833 l 586 667 l 696 667 q 733 708 733 667 l 733 731 l 721 731 q 674 740 696 731 q 636 767 653 750 q 610 805 619 783 q 600 851 600 826 q 610 898 600 876 q 636 936 619 919 q 674 963 653 953 q 721 972 696 972 q 767 963 746 972 q 806 936 789 953 q 832 898 822 919 q 842 851 842 876 l 842 683 m 303 156 q 376 187 349 156 q 403 281 403 218 l 403 692 q 376 785 403 754 q 303 817 349 817 q 230 785 257 817 q 203 692 203 754 l 203 281 q 230 187 203 218 q 303 156 257 156 m 356 1042 l 342 1106 l 358 1106 q 381 1084 365 1093 q 422 1075 396 1075 q 509 1111 481 1075 q 538 1197 538 1147 q 494 1299 538 1262 q 385 1336 450 1336 q 318 1328 344 1336 q 268 1308 292 1321 l 304 1214 q 374 1233 336 1233 q 408 1224 394 1233 q 421 1197 421 1214 q 414 1176 421 1185 q 393 1167 407 1167 q 365 1186 369 1167 l 231 1186 l 231 1169 l 258 1042 l 356 1042 z "},"Ỡ":{"ha":850,"x_min":19,"x_max":842,"o":"m 842 683 q 806 594 842 631 q 717 558 769 558 l 586 558 l 586 292 q 512 60 586 139 q 303 -19 438 -19 q 94 60 168 -19 q 19 292 19 139 l 19 681 q 94 913 19 833 q 303 992 168 992 q 512 913 438 992 q 586 681 586 833 l 586 667 l 696 667 q 733 708 733 667 l 733 731 l 721 731 q 674 740 696 731 q 636 767 653 750 q 610 805 619 783 q 600 851 600 826 q 610 898 600 876 q 636 936 619 919 q 674 963 653 953 q 721 972 696 972 q 767 963 746 972 q 806 936 789 953 q 832 898 822 919 q 842 851 842 876 l 842 683 m 303 156 q 376 187 349 156 q 403 281 403 218 l 403 692 q 376 785 403 754 q 303 817 349 817 q 230 785 257 817 q 203 692 203 754 l 203 281 q 230 187 203 218 q 303 156 257 156 m 326 1238 q 349 1215 338 1225 q 379 1204 360 1204 q 410 1213 399 1204 q 433 1238 422 1222 l 475 1290 l 582 1206 l 504 1106 q 450 1059 479 1074 q 385 1044 421 1044 q 331 1057 357 1044 q 282 1097 306 1069 q 260 1120 271 1110 q 229 1131 249 1131 q 198 1122 210 1131 q 175 1097 186 1113 l 133 1044 l 26 1129 l 104 1229 q 160 1276 131 1263 q 224 1290 189 1290 q 277 1278 251 1290 q 326 1238 303 1265 z "},"Ợ":{"ha":850,"x_min":19,"x_max":842,"o":"m 842 683 q 806 594 842 631 q 717 558 769 558 l 586 558 l 586 292 q 512 60 586 139 q 303 -19 438 -19 q 94 60 168 -19 q 19 292 19 139 l 19 681 q 94 913 19 833 q 303 992 168 992 q 512 913 438 992 q 586 681 586 833 l 586 667 l 696 667 q 733 708 733 667 l 733 731 l 721 731 q 674 740 696 731 q 636 767 653 750 q 610 805 619 783 q 600 851 600 826 q 610 898 600 876 q 636 936 619 919 q 674 963 653 953 q 721 972 696 972 q 767 963 746 972 q 806 936 789 953 q 832 898 822 919 q 842 851 842 876 l 842 683 m 303 156 q 376 187 349 156 q 403 281 403 218 l 403 692 q 376 785 403 754 q 303 817 349 817 q 230 785 257 817 q 203 692 203 754 l 203 281 q 230 187 203 218 q 303 156 257 156 m 436 -219 q 426 -272 436 -247 q 397 -313 415 -296 q 355 -341 379 -331 q 304 -351 331 -351 q 253 -341 276 -351 q 211 -313 229 -331 q 183 -272 193 -296 q 172 -219 172 -247 q 183 -167 172 -192 q 211 -126 193 -143 q 253 -98 229 -108 q 304 -87 276 -87 q 355 -98 331 -87 q 397 -126 379 -108 q 426 -167 415 -143 q 436 -219 436 -192 z "},"Ø":{"ha":850,"x_min":67,"x_max":783,"o":"m 67 594 q 162 888 67 783 q 425 992 257 992 q 508 983 468 992 l 542 1085 l 693 1038 l 654 918 q 750 785 717 867 q 783 594 783 704 l 783 378 q 688 82 783 183 q 425 -19 593 -19 q 349 -14 381 -19 l 311 -129 l 158 -82 l 200 47 q 101 178 135 96 q 67 378 67 261 l 67 594 m 250 367 q 253 303 250 332 q 267 249 257 274 l 456 822 q 440 824 449 824 q 425 825 432 825 q 344 808 378 825 q 290 761 311 790 q 260 692 269 732 q 250 606 250 651 l 250 367 m 425 147 q 508 163 475 147 q 563 208 542 179 q 592 278 583 238 q 600 367 600 318 l 600 606 q 597 659 600 633 q 585 708 593 685 l 401 147 l 425 147 z "},"Œ":{"ha":850,"x_min":33,"x_max":822,"o":"m 392 0 q 128 101 224 0 q 33 397 33 203 l 33 575 q 128 868 33 764 q 392 972 224 972 l 814 972 l 814 797 l 575 797 l 575 575 l 806 575 l 806 400 l 575 400 l 575 175 l 822 175 l 822 0 l 392 0 m 392 797 q 311 781 344 797 q 257 738 278 765 q 226 671 236 710 q 217 586 217 632 l 217 386 q 254 231 217 288 q 392 175 292 175 l 392 797 z "},"Ŕ":{"ha":850,"x_min":101,"x_max":779,"o":"m 754 0 l 571 0 l 571 292 q 553 346 571 325 q 496 367 536 367 l 285 367 l 285 0 l 101 0 l 101 972 l 474 972 q 606 951 549 972 q 701 894 663 931 q 759 808 739 857 q 779 704 779 760 l 779 671 q 747 559 779 611 q 649 479 715 507 l 649 454 q 726 417 697 449 q 754 336 754 385 l 754 0 m 285 542 l 460 542 q 561 573 526 542 q 596 661 596 604 l 596 678 q 561 762 596 726 q 460 797 526 797 l 285 797 l 285 542 m 401 1264 l 588 1264 l 471 1075 l 329 1075 l 401 1264 z "},"Ř":{"ha":850,"x_min":101,"x_max":779,"o":"m 754 0 l 571 0 l 571 292 q 553 346 571 325 q 496 367 536 367 l 285 367 l 285 0 l 101 0 l 101 972 l 474 972 q 606 951 549 972 q 701 894 663 931 q 759 808 739 857 q 779 704 779 760 l 779 671 q 747 559 779 611 q 649 479 715 507 l 649 454 q 726 417 697 449 q 754 336 754 385 l 754 0 m 285 542 l 460 542 q 561 573 526 542 q 596 661 596 604 l 596 678 q 561 762 596 726 q 460 797 526 797 l 285 797 l 285 542 m 642 1264 l 525 1075 l 286 1075 l 169 1264 l 338 1264 l 397 1142 l 414 1142 l 474 1264 l 642 1264 z "},"Ŗ":{"ha":850,"x_min":101,"x_max":779,"o":"m 549 -344 q 513 -433 549 -397 q 424 -469 476 -469 l 340 -469 l 340 -361 l 403 -361 q 440 -319 440 -361 l 440 -303 l 428 -303 q 381 -293 403 -303 q 343 -267 360 -283 q 317 -228 326 -250 q 307 -182 307 -207 q 317 -135 307 -157 q 343 -97 326 -114 q 381 -71 360 -81 q 428 -61 403 -61 q 474 -71 453 -61 q 513 -97 496 -81 q 539 -135 529 -114 q 549 -182 549 -157 l 549 -344 m 754 0 l 571 0 l 571 292 q 553 346 571 325 q 496 367 536 367 l 285 367 l 285 0 l 101 0 l 101 972 l 474 972 q 606 951 549 972 q 701 894 663 931 q 759 808 739 857 q 779 704 779 760 l 779 671 q 747 559 779 611 q 649 479 715 507 l 649 454 q 726 417 697 449 q 754 336 754 385 l 754 0 m 285 542 l 460 542 q 561 573 526 542 q 596 661 596 604 l 596 678 q 561 762 596 726 q 460 797 526 797 l 285 797 l 285 542 z "},"Ṛ":{"ha":850,"x_min":101,"x_max":779,"o":"m 754 0 l 571 0 l 571 292 q 553 346 571 325 q 496 367 536 367 l 285 367 l 285 0 l 101 0 l 101 972 l 474 972 q 606 951 549 972 q 701 894 663 931 q 759 808 739 857 q 779 704 779 760 l 779 671 q 747 559 779 611 q 649 479 715 507 l 649 454 q 726 417 697 449 q 754 336 754 385 l 754 0 m 285 542 l 460 542 q 561 573 526 542 q 596 661 596 604 l 596 678 q 561 762 596 726 q 460 797 526 797 l 285 797 l 285 542 m 560 -219 q 549 -272 560 -247 q 521 -313 539 -296 q 478 -341 503 -331 q 428 -351 454 -351 q 376 -341 400 -351 q 335 -313 353 -331 q 306 -272 317 -296 q 296 -219 296 -247 q 306 -167 296 -192 q 335 -126 317 -143 q 376 -98 353 -108 q 428 -87 400 -87 q 478 -98 454 -87 q 521 -126 503 -108 q 549 -167 539 -143 q 560 -219 560 -192 z "},"Ṝ":{"ha":850,"x_min":101,"x_max":779,"o":"m 625 1075 l 217 1075 l 217 1217 l 625 1217 l 625 1075 m 560 -219 q 549 -272 560 -247 q 521 -313 539 -296 q 478 -341 503 -331 q 428 -351 454 -351 q 376 -341 400 -351 q 335 -313 353 -331 q 306 -272 317 -296 q 296 -219 296 -247 q 306 -167 296 -192 q 335 -126 317 -143 q 376 -98 353 -108 q 428 -87 400 -87 q 478 -98 454 -87 q 521 -126 503 -108 q 549 -167 539 -143 q 560 -219 560 -192 m 754 0 l 571 0 l 571 292 q 553 346 571 325 q 496 367 536 367 l 285 367 l 285 0 l 101 0 l 101 972 l 474 972 q 606 951 549 972 q 701 894 663 931 q 759 808 739 857 q 779 704 779 760 l 779 671 q 747 559 779 611 q 649 479 715 507 l 649 454 q 726 417 697 449 q 754 336 754 385 l 754 0 m 285 542 l 460 542 q 561 573 526 542 q 596 661 596 604 l 596 678 q 561 762 596 726 q 460 797 526 797 l 285 797 l 285 542 z "},"Ṟ":{"ha":850,"x_min":101,"x_max":779,"o":"m 754 0 l 571 0 l 571 292 q 553 346 571 325 q 496 367 536 367 l 285 367 l 285 0 l 101 0 l 101 972 l 474 972 q 606 951 549 972 q 701 894 663 931 q 759 808 739 857 q 779 704 779 760 l 779 671 q 747 559 779 611 q 649 479 715 507 l 649 454 q 726 417 697 449 q 754 336 754 385 l 754 0 m 285 542 l 460 542 q 561 573 526 542 q 596 661 596 604 l 596 678 q 561 762 596 726 q 460 797 526 797 l 285 797 l 285 542 m 632 -231 l 224 -231 l 224 -89 l 632 -89 l 632 -231 z "},"Ś":{"ha":850,"x_min":50,"x_max":792,"o":"m 592 675 q 547 776 592 733 q 419 819 501 819 q 310 791 350 819 q 269 714 269 763 q 279 669 269 689 q 313 633 289 649 q 377 604 338 617 q 478 581 417 592 q 711 488 631 553 q 792 294 792 422 l 792 278 q 767 155 792 210 q 697 61 743 100 q 586 1 651 22 q 439 -19 521 -19 q 270 8 343 -19 q 149 83 197 35 q 75 195 100 131 q 50 336 50 260 l 50 378 l 233 378 l 233 344 q 284 205 233 257 q 442 153 335 153 q 565 189 525 153 q 606 275 606 225 q 597 320 606 299 q 568 359 589 342 q 511 390 547 376 q 419 414 475 404 q 285 447 346 426 q 178 500 224 467 q 108 583 133 533 q 83 706 83 633 l 83 714 q 108 824 83 774 q 176 913 132 875 q 281 971 219 950 q 419 992 343 992 q 572 967 506 992 q 684 901 639 943 q 752 806 729 860 q 775 692 775 751 l 775 642 l 592 642 l 592 675 m 421 1264 l 607 1264 l 490 1075 l 349 1075 l 421 1264 z "},"Ŝ":{"ha":850,"x_min":50,"x_max":792,"o":"m 592 675 q 547 776 592 733 q 419 819 501 819 q 310 791 350 819 q 269 714 269 763 q 279 669 269 689 q 313 633 289 649 q 377 604 338 617 q 478 581 417 592 q 711 488 631 553 q 792 294 792 422 l 792 278 q 767 155 792 210 q 697 61 743 100 q 586 1 651 22 q 439 -19 521 -19 q 270 8 343 -19 q 149 83 197 35 q 75 195 100 131 q 50 336 50 260 l 50 378 l 233 378 l 233 344 q 284 205 233 257 q 442 153 335 153 q 565 189 525 153 q 606 275 606 225 q 597 320 606 299 q 568 359 589 342 q 511 390 547 376 q 419 414 475 404 q 285 447 346 426 q 178 500 224 467 q 108 583 133 533 q 83 706 83 633 l 83 714 q 108 824 83 774 q 176 913 132 875 q 281 971 219 950 q 419 992 343 992 q 572 967 506 992 q 684 901 639 943 q 752 806 729 860 q 775 692 775 751 l 775 642 l 592 642 l 592 675 m 489 1075 l 429 1197 l 413 1197 l 353 1075 l 185 1075 l 301 1264 l 540 1264 l 657 1075 l 489 1075 z "},"Š":{"ha":850,"x_min":50,"x_max":792,"o":"m 592 675 q 547 776 592 733 q 419 819 501 819 q 310 791 350 819 q 269 714 269 763 q 279 669 269 689 q 313 633 289 649 q 377 604 338 617 q 478 581 417 592 q 711 488 631 553 q 792 294 792 422 l 792 278 q 767 155 792 210 q 697 61 743 100 q 586 1 651 22 q 439 -19 521 -19 q 270 8 343 -19 q 149 83 197 35 q 75 195 100 131 q 50 336 50 260 l 50 378 l 233 378 l 233 344 q 284 205 233 257 q 442 153 335 153 q 565 189 525 153 q 606 275 606 225 q 597 320 606 299 q 568 359 589 342 q 511 390 547 376 q 419 414 475 404 q 285 447 346 426 q 178 500 224 467 q 108 583 133 533 q 83 706 83 633 l 83 714 q 108 824 83 774 q 176 913 132 875 q 281 971 219 950 q 419 992 343 992 q 572 967 506 992 q 684 901 639 943 q 752 806 729 860 q 775 692 775 751 l 775 642 l 592 642 l 592 675 m 657 1264 l 540 1075 l 301 1075 l 185 1264 l 353 1264 l 413 1142 l 429 1142 l 489 1264 l 657 1264 z "},"Ș":{"ha":850,"x_min":50,"x_max":792,"o":"m 560 -344 q 524 -433 560 -397 q 435 -469 488 -469 l 351 -469 l 351 -361 l 414 -361 q 451 -319 451 -361 l 451 -303 l 439 -303 q 392 -293 414 -303 q 354 -267 371 -283 q 328 -228 338 -250 q 318 -182 318 -207 q 328 -135 318 -157 q 354 -97 338 -114 q 392 -71 371 -81 q 439 -61 414 -61 q 485 -71 464 -61 q 524 -97 507 -81 q 550 -135 540 -114 q 560 -182 560 -157 l 560 -344 m 592 675 q 547 776 592 733 q 419 819 501 819 q 310 791 350 819 q 269 714 269 763 q 279 669 269 689 q 313 633 289 649 q 377 604 338 617 q 478 581 417 592 q 711 488 631 553 q 792 294 792 422 l 792 278 q 767 155 792 210 q 697 61 743 100 q 586 1 651 22 q 439 -19 521 -19 q 270 8 343 -19 q 149 83 197 35 q 75 195 100 131 q 50 336 50 260 l 50 378 l 233 378 l 233 344 q 284 205 233 257 q 442 153 335 153 q 565 189 525 153 q 606 275 606 225 q 597 320 606 299 q 568 359 589 342 q 511 390 547 376 q 419 414 475 404 q 285 447 346 426 q 178 500 224 467 q 108 583 133 533 q 83 706 83 633 l 83 714 q 108 824 83 774 q 176 913 132 875 q 281 971 219 950 q 419 992 343 992 q 572 967 506 992 q 684 901 639 943 q 752 806 729 860 q 775 692 775 751 l 775 642 l 592 642 l 592 675 z "},"Ş":{"ha":850,"x_min":50,"x_max":792,"o":"m 592 675 q 547 776 592 733 q 419 819 501 819 q 310 791 350 819 q 269 714 269 763 q 279 669 269 689 q 313 633 289 649 q 377 604 338 617 q 478 581 417 592 q 711 488 631 553 q 792 294 792 422 l 792 278 q 767 155 792 210 q 697 61 743 100 q 586 1 651 22 q 439 -19 521 -19 l 425 -19 l 415 -64 l 432 -64 q 454 -42 439 -51 q 496 -33 469 -33 q 583 -69 554 -33 q 611 -156 611 -106 q 567 -258 611 -221 q 458 -294 524 -294 q 392 -287 418 -294 q 342 -267 365 -279 l 378 -172 q 447 -192 410 -192 q 481 -182 468 -192 q 494 -156 494 -172 q 488 -134 494 -143 q 467 -125 481 -125 q 439 -144 443 -125 l 304 -144 l 304 -128 l 329 -8 q 120 113 190 19 q 50 336 50 206 l 50 378 l 233 378 l 233 344 q 284 205 233 257 q 442 153 335 153 q 565 189 525 153 q 606 275 606 225 q 597 320 606 299 q 568 359 589 342 q 511 390 547 376 q 419 414 475 404 q 285 447 346 426 q 178 500 224 467 q 108 583 133 533 q 83 706 83 633 l 83 714 q 108 824 83 774 q 176 913 132 875 q 281 971 219 950 q 419 992 343 992 q 572 967 506 992 q 684 901 639 943 q 752 806 729 860 q 775 692 775 751 l 775 642 l 592 642 l 592 675 z "},"Ṡ":{"ha":850,"x_min":50,"x_max":792,"o":"m 592 675 q 547 776 592 733 q 419 819 501 819 q 310 791 350 819 q 269 714 269 763 q 279 669 269 689 q 313 633 289 649 q 377 604 338 617 q 478 581 417 592 q 711 488 631 553 q 792 294 792 422 l 792 278 q 767 155 792 210 q 697 61 743 100 q 586 1 651 22 q 439 -19 521 -19 q 270 8 343 -19 q 149 83 197 35 q 75 195 100 131 q 50 336 50 260 l 50 378 l 233 378 l 233 344 q 284 205 233 257 q 442 153 335 153 q 565 189 525 153 q 606 275 606 225 q 597 320 606 299 q 568 359 589 342 q 511 390 547 376 q 419 414 475 404 q 285 447 346 426 q 178 500 224 467 q 108 583 133 533 q 83 706 83 633 l 83 714 q 108 824 83 774 q 176 913 132 875 q 281 971 219 950 q 419 992 343 992 q 572 967 506 992 q 684 901 639 943 q 752 806 729 860 q 775 692 775 751 l 775 642 l 592 642 l 592 675 m 553 1207 q 542 1155 553 1179 q 514 1113 532 1131 q 472 1085 496 1096 q 421 1075 447 1075 q 369 1085 393 1075 q 328 1113 346 1096 q 299 1155 310 1131 q 289 1207 289 1179 q 299 1259 289 1235 q 328 1301 310 1283 q 369 1328 346 1318 q 421 1339 393 1339 q 472 1328 447 1339 q 514 1301 496 1318 q 542 1259 532 1283 q 553 1207 553 1235 z "},"Ṣ":{"ha":850,"x_min":50,"x_max":792,"o":"m 592 675 q 547 776 592 733 q 419 819 501 819 q 310 791 350 819 q 269 714 269 763 q 279 669 269 689 q 313 633 289 649 q 377 604 338 617 q 478 581 417 592 q 711 488 631 553 q 792 294 792 422 l 792 278 q 767 155 792 210 q 697 61 743 100 q 586 1 651 22 q 439 -19 521 -19 q 270 8 343 -19 q 149 83 197 35 q 75 195 100 131 q 50 336 50 260 l 50 378 l 233 378 l 233 344 q 284 205 233 257 q 442 153 335 153 q 565 189 525 153 q 606 275 606 225 q 597 320 606 299 q 568 359 589 342 q 511 390 547 376 q 419 414 475 404 q 285 447 346 426 q 178 500 224 467 q 108 583 133 533 q 83 706 83 633 l 83 714 q 108 824 83 774 q 176 913 132 875 q 281 971 219 950 q 419 992 343 992 q 572 967 506 992 q 684 901 639 943 q 752 806 729 860 q 775 692 775 751 l 775 642 l 592 642 l 592 675 m 571 -219 q 560 -272 571 -247 q 532 -313 550 -296 q 490 -341 514 -331 q 439 -351 465 -351 q 388 -341 411 -351 q 346 -313 364 -331 q 317 -272 328 -296 q 307 -219 307 -247 q 317 -167 307 -192 q 346 -126 328 -143 q 388 -98 364 -108 q 439 -87 411 -87 q 490 -98 465 -87 q 532 -126 514 -108 q 560 -167 550 -143 q 571 -219 571 -192 z "},"ẞ":{"ha":850,"x_min":47,"x_max":817,"o":"m 742 972 l 742 656 l 525 581 l 525 556 l 550 556 q 656 537 607 556 q 741 484 706 518 q 797 401 776 450 q 817 292 817 351 l 817 283 q 797 171 817 222 q 738 81 776 119 q 643 22 699 43 q 515 0 588 0 l 392 0 l 392 175 l 508 175 q 601 206 569 175 q 633 288 633 236 q 601 369 633 339 q 508 400 569 400 l 392 400 l 392 697 l 608 772 l 608 797 l 444 797 q 350 772 386 797 q 314 681 314 747 l 314 0 l 131 0 l 131 522 l 47 522 l 47 689 l 131 689 l 131 694 q 156 815 131 763 q 222 902 181 867 q 319 955 264 938 q 436 972 375 972 l 742 972 z "},"Ť":{"ha":850,"x_min":75,"x_max":775,"o":"m 75 972 l 775 972 l 775 797 l 517 797 l 517 0 l 333 0 l 333 797 l 75 797 l 75 972 m 661 1264 l 544 1075 l 306 1075 l 189 1264 l 357 1264 l 417 1142 l 433 1142 l 493 1264 l 661 1264 z "},"Ţ":{"ha":850,"x_min":75,"x_max":775,"o":"m 333 797 l 75 797 l 75 972 l 775 972 l 775 797 l 517 797 l 517 0 l 431 0 l 417 -64 l 433 -64 q 456 -42 440 -51 q 497 -33 471 -33 q 584 -69 556 -33 q 613 -156 613 -106 q 569 -258 613 -221 q 460 -294 525 -294 q 393 -287 419 -294 q 343 -267 367 -279 l 379 -172 q 449 -192 411 -192 q 483 -182 469 -192 q 496 -156 496 -172 q 489 -134 496 -143 q 468 -125 482 -125 q 440 -144 444 -125 l 306 -144 l 306 -128 l 333 0 l 333 797 z "},"Ț":{"ha":850,"x_min":75,"x_max":775,"o":"m 546 -344 q 510 -433 546 -397 q 421 -469 474 -469 l 338 -469 l 338 -361 l 400 -361 q 438 -319 438 -361 l 438 -303 l 425 -303 q 378 -293 400 -303 q 340 -267 357 -283 q 314 -228 324 -250 q 304 -182 304 -207 q 314 -135 304 -157 q 340 -97 324 -114 q 378 -71 357 -81 q 425 -61 400 -61 q 472 -71 450 -61 q 510 -97 493 -81 q 536 -135 526 -114 q 546 -182 546 -157 l 546 -344 m 75 972 l 775 972 l 775 797 l 517 797 l 517 0 l 333 0 l 333 797 l 75 797 l 75 972 z "},"Ṭ":{"ha":850,"x_min":75,"x_max":775,"o":"m 75 972 l 775 972 l 775 797 l 517 797 l 517 0 l 333 0 l 333 797 l 75 797 l 75 972 m 557 -219 q 547 -272 557 -247 q 518 -313 536 -296 q 476 -341 500 -331 q 425 -351 451 -351 q 374 -341 397 -351 q 332 -313 350 -331 q 303 -272 314 -296 q 293 -219 293 -247 q 303 -167 293 -192 q 332 -126 314 -143 q 374 -98 350 -108 q 425 -87 397 -87 q 476 -98 451 -87 q 518 -126 500 -108 q 547 -167 536 -143 q 557 -219 557 -192 z "},"Ṯ":{"ha":850,"x_min":75,"x_max":775,"o":"m 75 972 l 775 972 l 775 797 l 517 797 l 517 0 l 333 0 l 333 797 l 75 797 l 75 972 m 629 -231 l 221 -231 l 221 -89 l 629 -89 l 629 -231 z "},"Ŧ":{"ha":850,"x_min":75,"x_max":775,"o":"m 75 972 l 775 972 l 775 797 l 517 797 l 517 624 l 708 624 l 708 457 l 517 457 l 517 0 l 333 0 l 333 457 l 142 457 l 142 624 l 333 624 l 333 797 l 75 797 l 75 972 z "},"Ù":{"ha":850,"x_min":75,"x_max":775,"o":"m 775 972 l 775 336 q 687 75 775 169 q 425 -19 599 -19 q 163 75 251 -19 q 75 336 75 169 l 75 972 l 258 972 l 258 336 q 299 201 258 250 q 425 153 339 153 q 551 201 511 153 q 592 336 592 250 l 592 972 l 775 972 m 496 1075 l 354 1075 l 238 1264 l 424 1264 l 496 1075 z "},"Ú":{"ha":850,"x_min":75,"x_max":775,"o":"m 775 972 l 775 336 q 687 75 775 169 q 425 -19 599 -19 q 163 75 251 -19 q 75 336 75 169 l 75 972 l 258 972 l 258 336 q 299 201 258 250 q 425 153 339 153 q 551 201 511 153 q 592 336 592 250 l 592 972 l 775 972 m 428 1264 l 614 1264 l 497 1075 l 356 1075 l 428 1264 z "},"Û":{"ha":850,"x_min":75,"x_max":775,"o":"m 775 972 l 775 336 q 687 75 775 169 q 425 -19 599 -19 q 163 75 251 -19 q 75 336 75 169 l 75 972 l 258 972 l 258 336 q 299 201 258 250 q 425 153 339 153 q 551 201 511 153 q 592 336 592 250 l 592 972 l 775 972 m 493 1075 l 433 1197 l 417 1197 l 357 1075 l 189 1075 l 306 1264 l 544 1264 l 661 1075 l 493 1075 z "},"Ũ":{"ha":850,"x_min":75,"x_max":775,"o":"m 775 972 l 775 336 q 687 75 775 169 q 425 -19 599 -19 q 163 75 251 -19 q 75 336 75 169 l 75 972 l 258 972 l 258 336 q 299 201 258 250 q 425 153 339 153 q 551 201 511 153 q 592 336 592 250 l 592 972 l 775 972 m 447 1240 q 469 1217 458 1228 q 500 1207 481 1207 q 531 1216 519 1207 q 554 1240 543 1225 l 596 1293 l 703 1208 l 625 1108 q 571 1062 600 1076 q 506 1047 542 1047 q 452 1060 478 1047 q 403 1100 426 1072 q 381 1123 392 1113 q 350 1133 369 1133 q 319 1124 331 1133 q 296 1100 307 1115 l 254 1047 l 147 1132 l 225 1232 q 281 1279 251 1265 q 344 1293 310 1293 q 398 1281 372 1293 q 447 1240 424 1268 z "},"Ü":{"ha":850,"x_min":75,"x_max":775,"o":"m 775 972 l 775 336 q 687 75 775 169 q 425 -19 599 -19 q 163 75 251 -19 q 75 336 75 169 l 75 972 l 258 972 l 258 336 q 299 201 258 250 q 425 153 339 153 q 551 201 511 153 q 592 336 592 250 l 592 972 l 775 972 m 392 1171 q 381 1119 392 1143 q 353 1077 371 1094 q 310 1049 335 1060 q 260 1039 286 1039 q 208 1049 232 1039 q 167 1077 185 1060 q 138 1119 149 1094 q 128 1171 128 1143 q 138 1223 128 1199 q 167 1265 149 1247 q 208 1292 185 1282 q 260 1303 232 1303 q 310 1292 286 1303 q 353 1265 335 1282 q 381 1223 371 1247 q 392 1171 392 1199 m 722 1171 q 712 1119 722 1143 q 683 1077 701 1094 q 641 1049 665 1060 q 590 1039 617 1039 q 539 1049 563 1039 q 497 1077 515 1060 q 469 1119 479 1094 q 458 1171 458 1143 q 469 1223 458 1199 q 497 1265 479 1247 q 539 1292 515 1282 q 590 1303 563 1303 q 641 1292 617 1303 q 683 1265 665 1282 q 712 1223 701 1247 q 722 1171 722 1199 z "},"Ū":{"ha":850,"x_min":75,"x_max":775,"o":"m 775 972 l 775 336 q 687 75 775 169 q 425 -19 599 -19 q 163 75 251 -19 q 75 336 75 169 l 75 972 l 258 972 l 258 336 q 299 201 258 250 q 425 153 339 153 q 551 201 511 153 q 592 336 592 250 l 592 972 l 775 972 m 629 1075 l 221 1075 l 221 1217 l 629 1217 l 629 1075 z "},"Ŭ":{"ha":850,"x_min":75,"x_max":775,"o":"m 775 972 l 775 336 q 687 75 775 169 q 425 -19 599 -19 q 163 75 251 -19 q 75 336 75 169 l 75 972 l 258 972 l 258 336 q 299 201 258 250 q 425 153 339 153 q 551 201 511 153 q 592 336 592 250 l 592 972 l 775 972 m 608 1264 l 608 1244 q 558 1120 608 1165 q 425 1075 507 1075 q 292 1120 343 1075 q 242 1244 242 1165 l 242 1264 l 367 1264 l 367 1256 q 381 1214 367 1231 q 425 1197 396 1197 q 469 1214 454 1197 q 483 1256 483 1231 l 483 1264 l 608 1264 z "},"Ů":{"ha":850,"x_min":75,"x_max":775,"o":"m 775 972 l 775 336 q 687 75 775 169 q 425 -19 599 -19 q 163 75 251 -19 q 75 336 75 169 l 75 972 l 258 972 l 258 336 q 299 201 258 250 q 425 153 339 153 q 551 201 511 153 q 592 336 592 250 l 592 972 l 775 972 m 275 1217 q 287 1275 275 1247 q 319 1323 299 1303 q 366 1355 339 1343 q 425 1367 393 1367 q 483 1355 456 1367 q 531 1323 511 1343 q 563 1275 551 1303 q 575 1217 575 1247 q 563 1158 575 1185 q 531 1110 551 1131 q 483 1078 511 1090 q 425 1067 456 1067 q 366 1078 393 1067 q 319 1110 339 1090 q 287 1158 299 1131 q 275 1217 275 1185 m 383 1217 q 395 1187 383 1199 q 425 1175 407 1175 q 455 1187 443 1175 q 467 1217 467 1199 q 455 1247 467 1235 q 425 1258 443 1258 q 395 1247 407 1258 q 383 1217 383 1235 z "},"Ű":{"ha":850,"x_min":75,"x_max":775,"o":"m 775 972 l 775 336 q 687 75 775 169 q 425 -19 599 -19 q 163 75 251 -19 q 75 336 75 169 l 75 972 l 258 972 l 258 336 q 299 201 258 250 q 425 153 339 153 q 551 201 511 153 q 592 336 592 250 l 592 972 l 775 972 m 293 1264 l 479 1264 l 363 1075 l 221 1075 l 293 1264 m 525 1264 l 711 1264 l 594 1075 l 453 1075 l 525 1264 z "},"Ǔ":{"ha":850,"x_min":75,"x_max":775,"o":"m 775 972 l 775 336 q 687 75 775 169 q 425 -19 599 -19 q 163 75 251 -19 q 75 336 75 169 l 75 972 l 258 972 l 258 336 q 299 201 258 250 q 425 153 339 153 q 551 201 511 153 q 592 336 592 250 l 592 972 l 775 972 m 661 1264 l 544 1075 l 306 1075 l 189 1264 l 357 1264 l 417 1142 l 433 1142 l 493 1264 l 661 1264 z "},"Ų":{"ha":850,"x_min":75,"x_max":775,"o":"m 775 972 l 775 336 q 701 92 775 185 q 482 -17 628 -1 l 468 -78 q 467 -89 467 -85 q 499 -119 467 -119 l 563 -119 l 563 -236 l 451 -236 q 375 -210 410 -236 q 340 -132 340 -183 q 344 -100 340 -119 l 363 -15 q 147 92 219 0 q 75 336 75 185 l 75 972 l 258 972 l 258 336 q 299 201 258 250 q 425 153 339 153 q 551 201 511 153 q 592 336 592 250 l 592 972 l 775 972 z "},"Ǖ":{"ha":850,"x_min":75,"x_max":775,"o":"m 706 1328 l 144 1328 l 144 1469 l 706 1469 l 706 1328 m 775 972 l 775 336 q 687 75 775 169 q 425 -19 599 -19 q 163 75 251 -19 q 75 336 75 169 l 75 972 l 258 972 l 258 336 q 299 201 258 250 q 425 153 339 153 q 551 201 511 153 q 592 336 592 250 l 592 972 l 775 972 m 392 1154 q 381 1102 392 1126 q 353 1060 371 1078 q 310 1033 335 1043 q 260 1022 286 1022 q 208 1033 232 1022 q 167 1060 185 1043 q 138 1102 149 1078 q 128 1154 128 1126 q 138 1206 128 1182 q 167 1248 149 1231 q 208 1276 185 1265 q 260 1286 232 1286 q 310 1276 286 1286 q 353 1248 335 1265 q 381 1206 371 1231 q 392 1154 392 1182 m 722 1154 q 712 1102 722 1126 q 683 1060 701 1078 q 641 1033 665 1043 q 590 1022 617 1022 q 539 1033 563 1022 q 497 1060 515 1043 q 469 1102 479 1078 q 458 1154 458 1126 q 469 1206 458 1182 q 497 1248 479 1231 q 539 1276 515 1265 q 590 1286 563 1286 q 641 1276 617 1286 q 683 1248 665 1265 q 712 1206 701 1231 q 722 1154 722 1182 z "},"Ǘ":{"ha":850,"x_min":75,"x_max":775,"o":"m 775 972 l 775 336 q 687 75 775 169 q 425 -19 599 -19 q 163 75 251 -19 q 75 336 75 169 l 75 972 l 258 972 l 258 336 q 299 201 258 250 q 425 153 339 153 q 551 201 511 153 q 592 336 592 250 l 592 972 l 775 972 m 392 1154 q 381 1102 392 1126 q 353 1060 371 1078 q 310 1033 335 1043 q 260 1022 286 1022 q 208 1033 232 1022 q 167 1060 185 1043 q 138 1102 149 1078 q 128 1154 128 1126 q 138 1206 128 1182 q 167 1248 149 1231 q 208 1276 185 1265 q 260 1286 232 1286 q 310 1276 286 1286 q 353 1248 335 1265 q 381 1206 371 1231 q 392 1154 392 1182 m 722 1154 q 712 1102 722 1126 q 683 1060 701 1078 q 641 1033 665 1043 q 590 1022 617 1022 q 539 1033 563 1022 q 497 1060 515 1043 q 469 1102 479 1078 q 458 1154 458 1126 q 469 1206 458 1182 q 497 1248 479 1231 q 539 1276 515 1265 q 590 1286 563 1286 q 641 1276 617 1286 q 683 1248 665 1265 q 712 1206 701 1231 q 722 1154 722 1182 m 426 1508 l 613 1508 l 496 1319 l 354 1319 l 426 1508 z "},"Ǚ":{"ha":850,"x_min":75,"x_max":775,"o":"m 775 972 l 775 336 q 687 75 775 169 q 425 -19 599 -19 q 163 75 251 -19 q 75 336 75 169 l 75 972 l 258 972 l 258 336 q 299 201 258 250 q 425 153 339 153 q 551 201 511 153 q 592 336 592 250 l 592 972 l 775 972 m 392 1154 q 381 1102 392 1126 q 353 1060 371 1078 q 310 1033 335 1043 q 260 1022 286 1022 q 208 1033 232 1022 q 167 1060 185 1043 q 138 1102 149 1078 q 128 1154 128 1126 q 138 1206 128 1182 q 167 1248 149 1231 q 208 1276 185 1265 q 260 1286 232 1286 q 310 1276 286 1286 q 353 1248 335 1265 q 381 1206 371 1231 q 392 1154 392 1182 m 722 1154 q 712 1102 722 1126 q 683 1060 701 1078 q 641 1033 665 1043 q 590 1022 617 1022 q 539 1033 563 1022 q 497 1060 515 1043 q 469 1102 479 1078 q 458 1154 458 1126 q 469 1206 458 1182 q 497 1248 479 1231 q 539 1276 515 1265 q 590 1286 563 1286 q 641 1276 617 1286 q 683 1248 665 1265 q 712 1206 701 1231 q 722 1154 722 1182 m 661 1517 l 544 1328 l 306 1328 l 189 1517 l 357 1517 l 417 1394 l 433 1394 l 493 1517 l 661 1517 z "},"Ǜ":{"ha":850,"x_min":75,"x_max":775,"o":"m 775 972 l 775 336 q 687 75 775 169 q 425 -19 599 -19 q 163 75 251 -19 q 75 336 75 169 l 75 972 l 258 972 l 258 336 q 299 201 258 250 q 425 153 339 153 q 551 201 511 153 q 592 336 592 250 l 592 972 l 775 972 m 392 1154 q 381 1102 392 1126 q 353 1060 371 1078 q 310 1033 335 1043 q 260 1022 286 1022 q 208 1033 232 1022 q 167 1060 185 1043 q 138 1102 149 1078 q 128 1154 128 1126 q 138 1206 128 1182 q 167 1248 149 1231 q 208 1276 185 1265 q 260 1286 232 1286 q 310 1276 286 1286 q 353 1248 335 1265 q 381 1206 371 1231 q 392 1154 392 1182 m 722 1154 q 712 1102 722 1126 q 683 1060 701 1078 q 641 1033 665 1043 q 590 1022 617 1022 q 539 1033 563 1022 q 497 1060 515 1043 q 469 1102 479 1078 q 458 1154 458 1126 q 469 1206 458 1182 q 497 1248 479 1231 q 539 1276 515 1265 q 590 1286 563 1286 q 641 1276 617 1286 q 683 1248 665 1265 q 712 1206 701 1231 q 722 1154 722 1182 m 497 1319 l 356 1319 l 239 1508 l 425 1508 l 497 1319 z "},"Ụ":{"ha":850,"x_min":75,"x_max":775,"o":"m 775 972 l 775 336 q 687 75 775 169 q 425 -19 599 -19 q 163 75 251 -19 q 75 336 75 169 l 75 972 l 258 972 l 258 336 q 299 201 258 250 q 425 153 339 153 q 551 201 511 153 q 592 336 592 250 l 592 972 l 775 972 m 557 -219 q 547 -272 557 -247 q 518 -313 536 -296 q 476 -341 500 -331 q 425 -351 451 -351 q 374 -341 397 -351 q 332 -313 350 -331 q 303 -272 314 -296 q 293 -219 293 -247 q 303 -167 293 -192 q 332 -126 314 -143 q 374 -98 350 -108 q 425 -87 397 -87 q 476 -98 451 -87 q 518 -126 500 -108 q 547 -167 536 -143 q 557 -219 557 -192 z "},"Ủ":{"ha":850,"x_min":75,"x_max":775,"o":"m 775 972 l 775 336 q 687 75 775 169 q 425 -19 599 -19 q 163 75 251 -19 q 75 336 75 169 l 75 972 l 258 972 l 258 336 q 299 201 258 250 q 425 153 339 153 q 551 201 511 153 q 592 336 592 250 l 592 972 l 775 972 m 476 1042 l 463 1106 l 479 1106 q 501 1084 486 1093 q 543 1075 517 1075 q 630 1111 601 1075 q 658 1197 658 1147 q 615 1299 658 1262 q 506 1336 571 1336 q 439 1328 465 1336 q 389 1308 413 1321 l 425 1214 q 494 1233 457 1233 q 528 1224 515 1233 q 542 1197 542 1214 q 535 1176 542 1185 q 514 1167 528 1167 q 486 1186 490 1167 l 351 1186 l 351 1169 l 379 1042 l 476 1042 z "},"Ư":{"ha":850,"x_min":25,"x_max":842,"o":"m 842 683 q 806 594 842 631 q 717 558 769 558 l 558 558 l 558 275 q 491 54 558 128 q 292 -19 424 -19 q 92 54 160 -19 q 25 275 25 128 l 25 972 l 208 972 l 208 256 q 227 181 208 207 q 292 156 246 156 q 356 181 338 156 q 375 256 375 207 l 375 972 l 558 972 l 558 667 l 696 667 q 733 708 733 667 l 733 731 l 721 731 q 674 740 696 731 q 636 767 653 750 q 610 805 619 783 q 600 851 600 826 q 610 898 600 876 q 636 936 619 919 q 674 963 653 953 q 721 972 696 972 q 767 963 746 972 q 806 936 789 953 q 832 898 822 919 q 842 851 842 876 l 842 683 z "},"Ứ":{"ha":850,"x_min":25,"x_max":842,"o":"m 842 683 q 806 594 842 631 q 717 558 769 558 l 558 558 l 558 275 q 491 54 558 128 q 292 -19 424 -19 q 92 54 160 -19 q 25 275 25 128 l 25 972 l 208 972 l 208 256 q 227 181 208 207 q 292 156 246 156 q 356 181 338 156 q 375 256 375 207 l 375 972 l 558 972 l 558 667 l 696 667 q 733 708 733 667 l 733 731 l 721 731 q 674 740 696 731 q 636 767 653 750 q 610 805 619 783 q 600 851 600 826 q 610 898 600 876 q 636 936 619 919 q 674 963 653 953 q 721 972 696 972 q 767 963 746 972 q 806 936 789 953 q 832 898 822 919 q 842 851 842 876 l 842 683 m 294 1264 l 481 1264 l 364 1075 l 222 1075 l 294 1264 z "},"Ừ":{"ha":850,"x_min":25,"x_max":842,"o":"m 842 683 q 806 594 842 631 q 717 558 769 558 l 558 558 l 558 275 q 491 54 558 128 q 292 -19 424 -19 q 92 54 160 -19 q 25 275 25 128 l 25 972 l 208 972 l 208 256 q 227 181 208 207 q 292 156 246 156 q 356 181 338 156 q 375 256 375 207 l 375 972 l 558 972 l 558 667 l 696 667 q 733 708 733 667 l 733 731 l 721 731 q 674 740 696 731 q 636 767 653 750 q 610 805 619 783 q 600 851 600 826 q 610 898 600 876 q 636 936 619 919 q 674 963 653 953 q 721 972 696 972 q 767 963 746 972 q 806 936 789 953 q 832 898 822 919 q 842 851 842 876 l 842 683 m 364 1075 l 222 1075 l 106 1264 l 292 1264 l 364 1075 z "},"Ử":{"ha":850,"x_min":25,"x_max":842,"o":"m 842 683 q 806 594 842 631 q 717 558 769 558 l 558 558 l 558 275 q 491 54 558 128 q 292 -19 424 -19 q 92 54 160 -19 q 25 275 25 128 l 25 972 l 208 972 l 208 256 q 227 181 208 207 q 292 156 246 156 q 356 181 338 156 q 375 256 375 207 l 375 972 l 558 972 l 558 667 l 696 667 q 733 708 733 667 l 733 731 l 721 731 q 674 740 696 731 q 636 767 653 750 q 610 805 619 783 q 600 851 600 826 q 610 898 600 876 q 636 936 619 919 q 674 963 653 953 q 721 972 696 972 q 767 963 746 972 q 806 936 789 953 q 832 898 822 919 q 842 851 842 876 l 842 683 m 344 1042 l 331 1106 l 347 1106 q 369 1084 354 1093 q 411 1075 385 1075 q 498 1111 469 1075 q 526 1197 526 1147 q 483 1299 526 1262 q 374 1336 439 1336 q 307 1328 333 1336 q 257 1308 281 1321 l 293 1214 q 363 1233 325 1233 q 397 1224 383 1233 q 410 1197 410 1214 q 403 1176 410 1185 q 382 1167 396 1167 q 354 1186 358 1167 l 219 1186 l 219 1169 l 247 1042 l 344 1042 z "},"Ữ":{"ha":850,"x_min":15,"x_max":842,"o":"m 842 683 q 806 594 842 631 q 717 558 769 558 l 558 558 l 558 275 q 491 54 558 128 q 292 -19 424 -19 q 92 54 160 -19 q 25 275 25 128 l 25 972 l 208 972 l 208 256 q 227 181 208 207 q 292 156 246 156 q 356 181 338 156 q 375 256 375 207 l 375 972 l 558 972 l 558 667 l 696 667 q 733 708 733 667 l 733 731 l 721 731 q 674 740 696 731 q 636 767 653 750 q 610 805 619 783 q 600 851 600 826 q 610 898 600 876 q 636 936 619 919 q 674 963 653 953 q 721 972 696 972 q 767 963 746 972 q 806 936 789 953 q 832 898 822 919 q 842 851 842 876 l 842 683 m 315 1238 q 338 1215 326 1225 q 368 1204 349 1204 q 399 1213 388 1204 q 422 1238 411 1222 l 464 1290 l 571 1206 l 493 1106 q 439 1059 468 1074 q 374 1044 410 1044 q 320 1057 346 1044 q 271 1097 294 1069 q 249 1120 260 1110 q 218 1131 238 1131 q 187 1122 199 1131 q 164 1097 175 1113 l 122 1044 l 15 1129 l 93 1229 q 149 1276 119 1263 q 213 1290 178 1290 q 266 1278 240 1290 q 315 1238 292 1265 z "},"Ự":{"ha":850,"x_min":25,"x_max":842,"o":"m 842 683 q 806 594 842 631 q 717 558 769 558 l 558 558 l 558 275 q 491 54 558 128 q 292 -19 424 -19 q 92 54 160 -19 q 25 275 25 128 l 25 972 l 208 972 l 208 256 q 227 181 208 207 q 292 156 246 156 q 356 181 338 156 q 375 256 375 207 l 375 972 l 558 972 l 558 667 l 696 667 q 733 708 733 667 l 733 731 l 721 731 q 674 740 696 731 q 636 767 653 750 q 610 805 619 783 q 600 851 600 826 q 610 898 600 876 q 636 936 619 919 q 674 963 653 953 q 721 972 696 972 q 767 963 746 972 q 806 936 789 953 q 832 898 822 919 q 842 851 842 876 l 842 683 m 425 -219 q 415 -272 425 -247 q 386 -313 404 -296 q 344 -341 368 -331 q 293 -351 319 -351 q 242 -341 265 -351 q 200 -313 218 -331 q 172 -272 182 -296 q 161 -219 161 -247 q 172 -167 161 -192 q 200 -126 182 -143 q 242 -98 218 -108 q 293 -87 265 -87 q 344 -98 319 -87 q 386 -126 368 -108 q 415 -167 404 -143 q 425 -219 425 -192 z "},"Ŵ":{"ha":850,"x_min":11,"x_max":839,"o":"m 806 0 l 486 0 l 442 739 l 442 872 l 408 872 l 408 739 l 364 0 l 44 0 l 11 972 l 178 972 l 200 233 l 200 108 l 233 108 l 233 233 l 278 972 l 572 972 l 617 233 l 617 108 l 650 108 l 650 233 l 672 972 l 839 972 l 806 0 m 493 1075 l 433 1197 l 417 1197 l 357 1075 l 189 1075 l 306 1264 l 544 1264 l 661 1075 l 493 1075 z "},"Ẁ":{"ha":850,"x_min":11,"x_max":839,"o":"m 806 0 l 486 0 l 442 739 l 442 872 l 408 872 l 408 739 l 364 0 l 44 0 l 11 972 l 178 972 l 200 233 l 200 108 l 233 108 l 233 233 l 278 972 l 572 972 l 617 233 l 617 108 l 650 108 l 650 233 l 672 972 l 839 972 l 806 0 m 497 1075 l 356 1075 l 239 1264 l 425 1264 l 497 1075 z "},"Ẃ":{"ha":850,"x_min":11,"x_max":839,"o":"m 806 0 l 486 0 l 442 739 l 442 872 l 408 872 l 408 739 l 364 0 l 44 0 l 11 972 l 178 972 l 200 233 l 200 108 l 233 108 l 233 233 l 278 972 l 572 972 l 617 233 l 617 108 l 650 108 l 650 233 l 672 972 l 839 972 l 806 0 m 426 1264 l 613 1264 l 496 1075 l 354 1075 l 426 1264 z "},"Ẅ":{"ha":850,"x_min":11,"x_max":839,"o":"m 806 0 l 486 0 l 442 739 l 442 872 l 408 872 l 408 739 l 364 0 l 44 0 l 11 972 l 178 972 l 200 233 l 200 108 l 233 108 l 233 233 l 278 972 l 572 972 l 617 233 l 617 108 l 650 108 l 650 233 l 672 972 l 839 972 l 806 0 m 392 1171 q 381 1119 392 1143 q 353 1077 371 1094 q 310 1049 335 1060 q 260 1039 286 1039 q 208 1049 232 1039 q 167 1077 185 1060 q 138 1119 149 1094 q 128 1171 128 1143 q 138 1223 128 1199 q 167 1265 149 1247 q 208 1292 185 1282 q 260 1303 232 1303 q 310 1292 286 1303 q 353 1265 335 1282 q 381 1223 371 1247 q 392 1171 392 1199 m 722 1171 q 712 1119 722 1143 q 683 1077 701 1094 q 641 1049 665 1060 q 590 1039 617 1039 q 539 1049 563 1039 q 497 1077 515 1060 q 469 1119 479 1094 q 458 1171 458 1143 q 469 1223 458 1199 q 497 1265 479 1247 q 539 1292 515 1282 q 590 1303 563 1303 q 641 1292 617 1303 q 683 1265 665 1282 q 712 1223 701 1247 q 722 1171 722 1199 z "},"Ý":{"ha":850,"x_min":13,"x_max":838,"o":"m 333 342 l 292 342 l 13 972 l 213 972 l 413 508 l 438 508 l 638 972 l 838 972 l 558 342 l 517 342 l 517 0 l 333 0 l 333 342 m 440 1264 l 626 1264 l 510 1075 l 368 1075 l 440 1264 z "},"Ỳ":{"ha":850,"x_min":13,"x_max":838,"o":"m 333 342 l 292 342 l 13 972 l 213 972 l 413 508 l 438 508 l 638 972 l 838 972 l 558 342 l 517 342 l 517 0 l 333 0 l 333 342 m 497 1075 l 356 1075 l 239 1264 l 425 1264 l 497 1075 z "},"Ŷ":{"ha":850,"x_min":13,"x_max":838,"o":"m 333 342 l 292 342 l 13 972 l 213 972 l 413 508 l 438 508 l 638 972 l 838 972 l 558 342 l 517 342 l 517 0 l 333 0 l 333 342 m 493 1075 l 433 1197 l 417 1197 l 357 1075 l 189 1075 l 306 1264 l 544 1264 l 661 1075 l 493 1075 z "},"Ÿ":{"ha":850,"x_min":13,"x_max":838,"o":"m 333 342 l 292 342 l 13 972 l 213 972 l 413 508 l 438 508 l 638 972 l 838 972 l 558 342 l 517 342 l 517 0 l 333 0 l 333 342 m 392 1171 q 381 1119 392 1143 q 353 1077 371 1094 q 310 1049 335 1060 q 260 1039 286 1039 q 208 1049 232 1039 q 167 1077 185 1060 q 138 1119 149 1094 q 128 1171 128 1143 q 138 1223 128 1199 q 167 1265 149 1247 q 208 1292 185 1282 q 260 1303 232 1303 q 310 1292 286 1303 q 353 1265 335 1282 q 381 1223 371 1247 q 392 1171 392 1199 m 722 1171 q 712 1119 722 1143 q 683 1077 701 1094 q 641 1049 665 1060 q 590 1039 617 1039 q 539 1049 563 1039 q 497 1077 515 1060 q 469 1119 479 1094 q 458 1171 458 1143 q 469 1223 458 1199 q 497 1265 479 1247 q 539 1292 515 1282 q 590 1303 563 1303 q 641 1292 617 1303 q 683 1265 665 1282 q 712 1223 701 1247 q 722 1171 722 1199 z "},"Ẏ":{"ha":850,"x_min":13,"x_max":838,"o":"m 333 342 l 292 342 l 13 972 l 213 972 l 413 508 l 438 508 l 638 972 l 838 972 l 558 342 l 517 342 l 517 0 l 333 0 l 333 342 m 557 1207 q 547 1155 557 1179 q 518 1113 536 1131 q 476 1085 500 1096 q 425 1075 451 1075 q 374 1085 397 1075 q 332 1113 350 1096 q 303 1155 314 1131 q 293 1207 293 1179 q 303 1259 293 1235 q 332 1301 314 1283 q 374 1328 350 1318 q 425 1339 397 1339 q 476 1328 451 1339 q 518 1301 500 1318 q 547 1259 536 1283 q 557 1207 557 1235 z "},"Ỵ":{"ha":850,"x_min":13,"x_max":838,"o":"m 333 342 l 292 342 l 13 972 l 213 972 l 413 508 l 438 508 l 638 972 l 838 972 l 558 342 l 517 342 l 517 0 l 333 0 l 333 342 m 557 -219 q 547 -272 557 -247 q 518 -313 536 -296 q 476 -341 500 -331 q 425 -351 451 -351 q 374 -341 397 -351 q 332 -313 350 -331 q 303 -272 314 -296 q 293 -219 293 -247 q 303 -167 293 -192 q 332 -126 314 -143 q 374 -98 350 -108 q 425 -87 397 -87 q 476 -98 451 -87 q 518 -126 500 -108 q 547 -167 536 -143 q 557 -219 557 -192 z "},"Ỷ":{"ha":850,"x_min":13,"x_max":838,"o":"m 333 342 l 292 342 l 13 972 l 213 972 l 413 508 l 438 508 l 638 972 l 838 972 l 558 342 l 517 342 l 517 0 l 333 0 l 333 342 m 476 1042 l 463 1106 l 479 1106 q 501 1084 486 1093 q 543 1075 517 1075 q 630 1111 601 1075 q 658 1197 658 1147 q 615 1299 658 1262 q 506 1336 571 1336 q 439 1328 465 1336 q 389 1308 413 1321 l 425 1214 q 494 1233 457 1233 q 528 1224 515 1233 q 542 1197 542 1214 q 535 1176 542 1185 q 514 1167 528 1167 q 486 1186 490 1167 l 351 1186 l 351 1169 l 379 1042 l 476 1042 z "},"Ỹ":{"ha":850,"x_min":13,"x_max":838,"o":"m 333 342 l 292 342 l 13 972 l 213 972 l 413 508 l 438 508 l 638 972 l 838 972 l 558 342 l 517 342 l 517 0 l 333 0 l 333 342 m 447 1249 q 469 1226 458 1236 q 500 1215 481 1215 q 531 1224 519 1215 q 554 1249 543 1233 l 596 1301 l 703 1217 l 625 1117 q 571 1070 600 1085 q 506 1056 542 1056 q 452 1068 478 1056 q 403 1108 426 1081 q 381 1131 392 1121 q 350 1142 369 1142 q 319 1133 331 1142 q 296 1108 307 1124 l 254 1056 l 147 1140 l 225 1240 q 281 1288 251 1274 q 344 1301 310 1301 q 398 1289 372 1301 q 447 1249 424 1276 z "},"Ź":{"ha":850,"x_min":65,"x_max":782,"o":"m 74 972 l 765 972 l 765 672 l 215 200 l 215 175 l 782 175 l 782 0 l 65 0 l 65 300 l 615 772 l 615 797 l 74 797 l 74 972 m 432 1264 l 618 1264 l 501 1075 l 360 1075 l 432 1264 z "},"Ž":{"ha":850,"x_min":65,"x_max":782,"o":"m 74 972 l 765 972 l 765 672 l 215 200 l 215 175 l 782 175 l 782 0 l 65 0 l 65 300 l 615 772 l 615 797 l 74 797 l 74 972 m 661 1264 l 544 1075 l 306 1075 l 189 1264 l 357 1264 l 417 1142 l 433 1142 l 493 1264 l 661 1264 z "},"Ż":{"ha":850,"x_min":65,"x_max":782,"o":"m 74 972 l 765 972 l 765 672 l 215 200 l 215 175 l 782 175 l 782 0 l 65 0 l 65 300 l 615 772 l 615 797 l 74 797 l 74 972 m 553 1213 q 542 1160 553 1185 q 514 1119 532 1136 q 472 1091 496 1101 q 421 1081 447 1081 q 369 1091 393 1081 q 328 1119 346 1101 q 299 1160 310 1136 q 289 1213 289 1185 q 299 1265 289 1240 q 328 1306 310 1289 q 369 1334 346 1324 q 421 1344 393 1344 q 472 1334 447 1344 q 514 1306 496 1324 q 542 1265 532 1289 q 553 1213 553 1240 z "},"Ẓ":{"ha":850,"x_min":65,"x_max":782,"o":"m 74 972 l 765 972 l 765 672 l 215 200 l 215 175 l 782 175 l 782 0 l 65 0 l 65 300 l 615 772 l 615 797 l 74 797 l 74 972 m 557 -219 q 547 -272 557 -247 q 518 -313 536 -296 q 476 -341 500 -331 q 425 -351 451 -351 q 374 -341 397 -351 q 332 -313 350 -331 q 303 -272 314 -296 q 293 -219 293 -247 q 303 -167 293 -192 q 332 -126 314 -143 q 374 -98 350 -108 q 425 -87 397 -87 q 476 -98 451 -87 q 518 -126 500 -108 q 547 -167 536 -143 q 557 -219 557 -192 z "},"Þ":{"ha":850,"x_min":97,"x_max":775,"o":"m 281 183 l 281 0 l 97 0 l 97 972 l 281 972 l 281 789 l 478 789 q 608 765 553 789 q 701 701 664 740 q 756 610 738 661 q 775 507 775 560 l 775 474 q 756 367 775 419 q 701 274 738 315 q 608 208 664 233 q 478 183 553 183 l 281 183 m 281 358 l 460 358 q 556 392 521 358 q 592 478 592 425 l 592 494 q 556 581 592 547 q 460 614 521 614 l 281 614 l 281 358 z "},"Ə":{"ha":850,"x_min":67,"x_max":783,"o":"m 67 528 l 600 528 l 600 608 q 590 691 600 651 q 557 760 579 731 q 501 808 535 790 q 422 825 468 825 q 339 808 372 825 q 286 763 306 790 q 258 700 267 735 q 250 631 250 665 l 250 622 l 67 622 l 67 631 q 158 894 67 797 q 422 992 249 992 q 572 965 506 992 q 686 887 639 938 q 758 762 733 836 q 783 594 783 688 l 783 378 q 686 82 783 183 q 422 -19 589 -19 q 158 75 249 -19 q 67 350 67 169 l 67 528 m 422 147 q 505 163 471 147 q 560 205 539 178 q 590 269 581 232 q 600 353 600 307 l 250 353 l 250 342 q 257 269 250 304 q 283 206 264 233 q 335 163 301 179 q 422 147 369 147 z "},"Ŋ":{"ha":850,"x_min":85,"x_max":765,"o":"m 557 92 l 582 92 l 582 972 l 765 972 l 765 -136 q 726 -243 765 -208 q 625 -278 688 -278 l 339 -278 l 339 -103 l 540 -103 q 582 -57 582 -103 l 582 0 l 410 0 l 293 881 l 268 881 l 268 0 l 85 0 l 85 972 l 440 972 l 557 92 z "},"Ĳ":{"ha":850,"x_min":81,"x_max":797,"o":"m 264 972 l 264 475 l 81 475 l 81 972 l 264 972 m 714 292 q 632 60 714 140 q 407 -19 550 -19 q 274 1 333 -19 q 171 60 214 21 q 104 158 128 100 q 81 292 81 215 l 81 383 l 264 383 l 264 292 q 300 190 264 226 q 401 153 336 153 q 497 189 463 153 q 531 292 531 225 l 531 800 l 431 800 l 431 972 l 797 972 l 797 800 l 714 800 l 714 292 z "},"à":{"ha":850,"x_min":56,"x_max":806,"o":"m 554 100 q 476 8 526 35 q 360 -19 426 -19 q 242 4 297 -19 q 146 74 188 28 q 80 185 104 119 q 56 333 56 250 l 56 356 q 79 503 56 438 q 143 614 103 568 q 237 684 183 660 q 351 708 290 708 q 470 683 425 708 q 542 606 515 658 l 567 606 l 567 689 l 742 689 l 742 208 q 779 167 742 167 l 806 167 l 806 0 l 686 0 q 609 28 639 0 q 579 100 579 56 l 554 100 m 399 147 q 521 198 475 147 q 567 336 567 249 l 567 353 q 521 491 567 440 q 399 542 475 542 q 276 491 322 542 q 231 353 231 440 l 231 336 q 276 198 231 249 q 399 147 322 147 m 424 792 l 282 792 l 165 981 l 351 981 l 424 792 z "},"á":{"ha":850,"x_min":56,"x_max":806,"o":"m 554 100 q 476 8 526 35 q 360 -19 426 -19 q 242 4 297 -19 q 146 74 188 28 q 80 185 104 119 q 56 333 56 250 l 56 356 q 79 503 56 438 q 143 614 103 568 q 237 684 183 660 q 351 708 290 708 q 470 683 425 708 q 542 606 515 658 l 567 606 l 567 689 l 742 689 l 742 208 q 779 167 742 167 l 806 167 l 806 0 l 686 0 q 609 28 639 0 q 579 100 579 56 l 554 100 m 399 147 q 521 198 475 147 q 567 336 567 249 l 567 353 q 521 491 567 440 q 399 542 475 542 q 276 491 322 542 q 231 353 231 440 l 231 336 q 276 198 231 249 q 399 147 322 147 m 354 981 l 540 981 l 424 792 l 282 792 l 354 981 z "},"â":{"ha":850,"x_min":56,"x_max":806,"o":"m 554 100 q 476 8 526 35 q 360 -19 426 -19 q 242 4 297 -19 q 146 74 188 28 q 80 185 104 119 q 56 333 56 250 l 56 356 q 79 503 56 438 q 143 614 103 568 q 237 684 183 660 q 351 708 290 708 q 470 683 425 708 q 542 606 515 658 l 567 606 l 567 689 l 742 689 l 742 208 q 779 167 742 167 l 806 167 l 806 0 l 686 0 q 609 28 639 0 q 579 100 579 56 l 554 100 m 399 147 q 521 198 475 147 q 567 336 567 249 l 567 353 q 521 491 567 440 q 399 542 475 542 q 276 491 322 542 q 231 353 231 440 l 231 336 q 276 198 231 249 q 399 147 322 147 m 421 792 l 361 914 l 344 914 l 285 792 l 117 792 l 233 981 l 472 981 l 589 792 l 421 792 z "},"ã":{"ha":850,"x_min":56,"x_max":806,"o":"m 554 100 q 476 8 526 35 q 360 -19 426 -19 q 242 4 297 -19 q 146 74 188 28 q 80 185 104 119 q 56 333 56 250 l 56 356 q 79 503 56 438 q 143 614 103 568 q 237 684 183 660 q 351 708 290 708 q 470 683 425 708 q 542 606 515 658 l 567 606 l 567 689 l 742 689 l 742 208 q 779 167 742 167 l 806 167 l 806 0 l 686 0 q 609 28 639 0 q 579 100 579 56 l 554 100 m 399 147 q 521 198 475 147 q 567 336 567 249 l 567 353 q 521 491 567 440 q 399 542 475 542 q 276 491 322 542 q 231 353 231 440 l 231 336 q 276 198 231 249 q 399 147 322 147 m 450 958 q 472 935 461 946 q 503 925 483 925 q 534 934 522 925 q 557 958 546 943 l 599 1011 l 706 926 l 628 826 q 574 780 603 794 q 508 765 544 765 q 455 778 481 765 q 406 818 429 790 q 383 841 394 831 q 353 851 372 851 q 322 842 333 851 q 299 818 310 833 l 257 765 l 150 850 l 228 950 q 283 997 254 983 q 347 1011 313 1011 q 401 999 375 1011 q 450 958 426 986 z "},"ä":{"ha":850,"x_min":56,"x_max":806,"o":"m 554 100 q 476 8 526 35 q 360 -19 426 -19 q 242 4 297 -19 q 146 74 188 28 q 80 185 104 119 q 56 333 56 250 l 56 356 q 79 503 56 438 q 143 614 103 568 q 237 684 183 660 q 351 708 290 708 q 470 683 425 708 q 542 606 515 658 l 567 606 l 567 689 l 742 689 l 742 208 q 779 167 742 167 l 806 167 l 806 0 l 686 0 q 609 28 639 0 q 579 100 579 56 l 554 100 m 399 147 q 521 198 475 147 q 567 336 567 249 l 567 353 q 521 491 567 440 q 399 542 475 542 q 276 491 322 542 q 231 353 231 440 l 231 336 q 276 198 231 249 q 399 147 322 147 m 367 893 q 356 841 367 865 q 328 799 346 817 q 285 772 310 782 q 235 761 261 761 q 183 772 207 761 q 142 799 160 782 q 113 841 124 817 q 103 893 103 865 q 113 945 103 921 q 142 987 124 969 q 183 1015 160 1004 q 235 1025 207 1025 q 285 1015 261 1025 q 328 987 310 1004 q 356 945 346 969 q 367 893 367 921 m 697 893 q 687 841 697 865 q 658 799 676 817 q 616 772 640 782 q 565 761 592 761 q 514 772 538 761 q 472 799 490 782 q 444 841 454 817 q 433 893 433 865 q 444 945 433 921 q 472 987 454 969 q 514 1015 490 1004 q 565 1025 538 1025 q 616 1015 592 1025 q 658 987 640 1004 q 687 945 676 969 q 697 893 697 921 z "},"ā":{"ha":850,"x_min":56,"x_max":806,"o":"m 554 100 q 476 8 526 35 q 360 -19 426 -19 q 242 4 297 -19 q 146 74 188 28 q 80 185 104 119 q 56 333 56 250 l 56 356 q 79 503 56 438 q 143 614 103 568 q 237 684 183 660 q 351 708 290 708 q 470 683 425 708 q 542 606 515 658 l 567 606 l 567 689 l 742 689 l 742 208 q 779 167 742 167 l 806 167 l 806 0 l 686 0 q 609 28 639 0 q 579 100 579 56 l 554 100 m 399 147 q 521 198 475 147 q 567 336 567 249 l 567 353 q 521 491 567 440 q 399 542 475 542 q 276 491 322 542 q 231 353 231 440 l 231 336 q 276 198 231 249 q 399 147 322 147 m 568 792 l 160 792 l 160 933 l 568 933 l 568 792 z "},"ă":{"ha":850,"x_min":56,"x_max":806,"o":"m 554 100 q 476 8 526 35 q 360 -19 426 -19 q 242 4 297 -19 q 146 74 188 28 q 80 185 104 119 q 56 333 56 250 l 56 356 q 79 503 56 438 q 143 614 103 568 q 237 684 183 660 q 351 708 290 708 q 470 683 425 708 q 542 606 515 658 l 567 606 l 567 689 l 742 689 l 742 208 q 779 167 742 167 l 806 167 l 806 0 l 686 0 q 609 28 639 0 q 579 100 579 56 l 554 100 m 399 147 q 521 198 475 147 q 567 336 567 249 l 567 353 q 521 491 567 440 q 399 542 475 542 q 276 491 322 542 q 231 353 231 440 l 231 336 q 276 198 231 249 q 399 147 322 147 m 536 972 l 536 953 q 485 828 536 874 q 353 783 435 783 q 220 828 271 783 q 169 953 169 874 l 169 972 l 294 972 l 294 964 q 309 922 294 939 q 353 906 324 906 q 397 922 382 906 q 411 964 411 939 l 411 972 l 536 972 z "},"å":{"ha":850,"x_min":56,"x_max":806,"o":"m 554 100 q 476 8 526 35 q 360 -19 426 -19 q 242 4 297 -19 q 146 74 188 28 q 80 185 104 119 q 56 333 56 250 l 56 356 q 79 503 56 438 q 143 614 103 568 q 237 684 183 660 q 351 708 290 708 q 470 683 425 708 q 542 606 515 658 l 567 606 l 567 689 l 742 689 l 742 208 q 779 167 742 167 l 806 167 l 806 0 l 686 0 q 609 28 639 0 q 579 100 579 56 l 554 100 m 399 147 q 521 198 475 147 q 567 336 567 249 l 567 353 q 521 491 567 440 q 399 542 475 542 q 276 491 322 542 q 231 353 231 440 l 231 336 q 276 198 231 249 q 399 147 322 147 m 203 939 q 215 997 203 969 q 247 1045 226 1025 q 294 1077 267 1065 q 353 1089 321 1089 q 411 1077 383 1089 q 459 1045 439 1065 q 491 997 479 1025 q 503 939 503 969 q 491 880 503 907 q 459 833 479 853 q 411 801 439 813 q 353 789 383 789 q 294 801 321 789 q 247 833 267 813 q 215 880 226 853 q 203 939 203 907 m 311 939 q 323 909 311 921 q 353 897 335 897 q 383 909 371 897 q 394 939 394 921 q 383 969 394 957 q 353 981 371 981 q 323 969 335 981 q 311 939 311 957 z "},"ǎ":{"ha":850,"x_min":56,"x_max":806,"o":"m 554 100 q 476 8 526 35 q 360 -19 426 -19 q 242 4 297 -19 q 146 74 188 28 q 80 185 104 119 q 56 333 56 250 l 56 356 q 79 503 56 438 q 143 614 103 568 q 237 684 183 660 q 351 708 290 708 q 470 683 425 708 q 542 606 515 658 l 567 606 l 567 689 l 742 689 l 742 208 q 779 167 742 167 l 806 167 l 806 0 l 686 0 q 609 28 639 0 q 579 100 579 56 l 554 100 m 399 147 q 521 198 475 147 q 567 336 567 249 l 567 353 q 521 491 567 440 q 399 542 475 542 q 276 491 322 542 q 231 353 231 440 l 231 336 q 276 198 231 249 q 399 147 322 147 m 589 981 l 472 792 l 233 792 l 117 981 l 285 981 l 344 858 l 361 858 l 421 981 l 589 981 z "},"ą":{"ha":850,"x_min":56,"x_max":806,"o":"m 554 100 q 476 8 526 35 q 360 -19 426 -19 q 242 4 297 -19 q 146 74 188 28 q 80 185 104 119 q 56 333 56 250 l 56 356 q 79 503 56 438 q 143 614 103 568 q 237 684 183 660 q 351 708 290 708 q 470 683 425 708 q 542 606 515 658 l 567 606 l 567 689 l 742 689 l 742 208 q 779 167 742 167 l 806 167 l 806 0 l 729 0 l 711 -78 q 710 -89 710 -85 q 742 -119 710 -119 l 806 -119 l 806 -236 l 694 -236 q 618 -210 653 -236 q 583 -132 583 -183 q 588 -100 583 -119 l 615 22 q 579 100 579 51 l 554 100 m 399 147 q 521 198 475 147 q 567 336 567 249 l 567 353 q 521 491 567 440 q 399 542 475 542 q 276 491 322 542 q 231 353 231 440 l 231 336 q 276 198 231 249 q 399 147 322 147 z "},"ạ":{"ha":850,"x_min":56,"x_max":806,"o":"m 554 100 q 476 8 526 35 q 360 -19 426 -19 q 242 4 297 -19 q 146 74 188 28 q 80 185 104 119 q 56 333 56 250 l 56 356 q 79 503 56 438 q 143 614 103 568 q 237 684 183 660 q 351 708 290 708 q 470 683 425 708 q 542 606 515 658 l 567 606 l 567 689 l 742 689 l 742 208 q 779 167 742 167 l 806 167 l 806 0 l 686 0 q 609 28 639 0 q 579 100 579 56 l 554 100 m 399 147 q 521 198 475 147 q 567 336 567 249 l 567 353 q 521 491 567 440 q 399 542 475 542 q 276 491 322 542 q 231 353 231 440 l 231 336 q 276 198 231 249 q 399 147 322 147 m 493 -219 q 483 -272 493 -247 q 454 -313 472 -296 q 412 -341 436 -331 q 361 -351 388 -351 q 310 -341 333 -351 q 268 -313 286 -331 q 240 -272 250 -296 q 229 -219 229 -247 q 240 -167 229 -192 q 268 -126 250 -143 q 310 -98 286 -108 q 361 -87 333 -87 q 412 -98 388 -87 q 454 -126 436 -108 q 483 -167 472 -143 q 493 -219 493 -192 z "},"ả":{"ha":850,"x_min":56,"x_max":806,"o":"m 554 100 q 476 8 526 35 q 360 -19 426 -19 q 242 4 297 -19 q 146 74 188 28 q 80 185 104 119 q 56 333 56 250 l 56 356 q 79 503 56 438 q 143 614 103 568 q 237 684 183 660 q 351 708 290 708 q 470 683 425 708 q 542 606 515 658 l 567 606 l 567 689 l 742 689 l 742 208 q 779 167 742 167 l 806 167 l 806 0 l 686 0 q 609 28 639 0 q 579 100 579 56 l 554 100 m 399 147 q 521 198 475 147 q 567 336 567 249 l 567 353 q 521 491 567 440 q 399 542 475 542 q 276 491 322 542 q 231 353 231 440 l 231 336 q 276 198 231 249 q 399 147 322 147 m 404 758 l 390 822 l 407 822 q 429 801 414 810 q 471 792 444 792 q 558 828 529 792 q 586 914 586 864 q 542 1016 586 979 q 433 1053 499 1053 q 367 1045 393 1053 q 317 1025 340 1037 l 353 931 q 422 950 385 950 q 456 940 443 950 q 469 914 469 931 q 463 892 469 901 q 442 883 456 883 q 414 903 418 883 l 279 903 l 279 886 l 307 758 l 404 758 z "},"ấ":{"ha":850,"x_min":56,"x_max":821,"o":"m 554 100 q 476 8 526 35 q 360 -19 426 -19 q 242 4 297 -19 q 146 74 188 28 q 80 185 104 119 q 56 333 56 250 l 56 356 q 79 503 56 438 q 143 614 103 568 q 237 684 183 660 q 351 708 290 708 q 470 683 425 708 q 542 606 515 658 l 567 606 l 567 689 l 742 689 l 742 208 q 779 167 742 167 l 806 167 l 806 0 l 686 0 q 609 28 639 0 q 579 100 579 56 l 554 100 m 399 147 q 521 198 475 147 q 567 336 567 249 l 567 353 q 521 491 567 440 q 399 542 475 542 q 276 491 322 542 q 231 353 231 440 l 231 336 q 276 198 231 249 q 399 147 322 147 m 421 792 l 361 914 l 344 914 l 285 792 l 117 792 l 233 981 l 472 981 l 589 792 l 421 792 m 635 1103 l 821 1103 l 704 914 l 563 914 l 635 1103 z "},"ầ":{"ha":850,"x_min":-37,"x_max":806,"o":"m 554 100 q 476 8 526 35 q 360 -19 426 -19 q 242 4 297 -19 q 146 74 188 28 q 80 185 104 119 q 56 333 56 250 l 56 356 q 79 503 56 438 q 143 614 103 568 q 237 684 183 660 q 351 708 290 708 q 470 683 425 708 q 542 606 515 658 l 567 606 l 567 689 l 742 689 l 742 208 q 779 167 742 167 l 806 167 l 806 0 l 686 0 q 609 28 639 0 q 579 100 579 56 l 554 100 m 399 147 q 521 198 475 147 q 567 336 567 249 l 567 353 q 521 491 567 440 q 399 542 475 542 q 276 491 322 542 q 231 353 231 440 l 231 336 q 276 198 231 249 q 399 147 322 147 m 499 792 l 439 914 l 422 914 l 363 792 l 194 792 l 311 981 l 550 981 l 667 792 l 499 792 m 221 914 l 79 914 l -37 1103 l 149 1103 l 221 914 z "},"ẩ":{"ha":850,"x_min":56,"x_max":842,"o":"m 554 100 q 476 8 526 35 q 360 -19 426 -19 q 242 4 297 -19 q 146 74 188 28 q 80 185 104 119 q 56 333 56 250 l 56 356 q 79 503 56 438 q 143 614 103 568 q 237 684 183 660 q 351 708 290 708 q 470 683 425 708 q 542 606 515 658 l 567 606 l 567 689 l 742 689 l 742 208 q 779 167 742 167 l 806 167 l 806 0 l 686 0 q 609 28 639 0 q 579 100 579 56 l 554 100 m 399 147 q 521 198 475 147 q 567 336 567 249 l 567 353 q 521 491 567 440 q 399 542 475 542 q 276 491 322 542 q 231 353 231 440 l 231 336 q 276 198 231 249 q 399 147 322 147 m 421 792 l 361 914 l 344 914 l 285 792 l 117 792 l 233 981 l 472 981 l 589 792 l 421 792 m 660 914 l 646 978 l 663 978 q 685 956 669 965 q 726 947 700 947 q 813 983 785 947 q 842 1069 842 1019 q 798 1172 842 1135 q 689 1208 754 1208 q 622 1201 649 1208 q 572 1181 596 1193 l 608 1086 q 678 1106 640 1106 q 712 1096 699 1106 q 725 1069 725 1086 q 718 1048 725 1057 q 697 1039 711 1039 q 669 1058 674 1039 l 535 1058 l 535 1042 l 563 914 l 660 914 z "},"ẫ":{"ha":850,"x_min":56,"x_max":806,"o":"m 554 100 q 476 8 526 35 q 360 -19 426 -19 q 242 4 297 -19 q 146 74 188 28 q 80 185 104 119 q 56 333 56 250 l 56 356 q 79 503 56 438 q 143 614 103 568 q 237 684 183 660 q 351 708 290 708 q 470 683 425 708 q 542 606 515 658 l 567 606 l 567 689 l 742 689 l 742 208 q 779 167 742 167 l 806 167 l 806 0 l 686 0 q 609 28 639 0 q 579 100 579 56 l 554 100 m 399 147 q 521 198 475 147 q 567 336 567 249 l 567 353 q 521 491 567 440 q 399 542 475 542 q 276 491 322 542 q 231 353 231 440 l 231 336 q 276 198 231 249 q 399 147 322 147 m 421 792 l 361 914 l 344 914 l 285 792 l 117 792 l 233 981 l 472 981 l 589 792 l 421 792 m 375 1215 q 397 1192 386 1203 q 428 1182 408 1182 q 459 1191 447 1182 q 482 1215 471 1200 l 524 1268 l 631 1183 l 553 1083 q 499 1037 528 1051 q 433 1022 469 1022 q 380 1035 406 1022 q 331 1075 354 1047 q 308 1098 319 1088 q 278 1108 297 1108 q 247 1099 258 1108 q 224 1075 235 1090 l 182 1022 l 75 1107 l 153 1207 q 208 1254 179 1240 q 272 1268 238 1268 q 326 1256 300 1268 q 375 1215 351 1243 z "},"ậ":{"ha":850,"x_min":56,"x_max":806,"o":"m 554 100 q 476 8 526 35 q 360 -19 426 -19 q 242 4 297 -19 q 146 74 188 28 q 80 185 104 119 q 56 333 56 250 l 56 356 q 79 503 56 438 q 143 614 103 568 q 237 684 183 660 q 351 708 290 708 q 470 683 425 708 q 542 606 515 658 l 567 606 l 567 689 l 742 689 l 742 208 q 779 167 742 167 l 806 167 l 806 0 l 686 0 q 609 28 639 0 q 579 100 579 56 l 554 100 m 399 147 q 521 198 475 147 q 567 336 567 249 l 567 353 q 521 491 567 440 q 399 542 475 542 q 276 491 322 542 q 231 353 231 440 l 231 336 q 276 198 231 249 q 399 147 322 147 m 421 792 l 361 914 l 344 914 l 285 792 l 117 792 l 233 981 l 472 981 l 589 792 l 421 792 m 493 -219 q 483 -272 493 -247 q 454 -313 472 -296 q 412 -341 436 -331 q 361 -351 388 -351 q 310 -341 333 -351 q 268 -313 286 -331 q 240 -272 250 -296 q 229 -219 229 -247 q 240 -167 229 -192 q 268 -126 250 -143 q 310 -98 286 -108 q 361 -87 333 -87 q 412 -98 388 -87 q 454 -126 436 -108 q 483 -167 472 -143 q 493 -219 493 -192 z "},"ắ":{"ha":850,"x_min":56,"x_max":806,"o":"m 554 100 q 476 8 526 35 q 360 -19 426 -19 q 242 4 297 -19 q 146 74 188 28 q 80 185 104 119 q 56 333 56 250 l 56 356 q 79 503 56 438 q 143 614 103 568 q 237 684 183 660 q 351 708 290 708 q 470 683 425 708 q 542 606 515 658 l 567 606 l 567 689 l 742 689 l 742 208 q 779 167 742 167 l 806 167 l 806 0 l 686 0 q 609 28 639 0 q 579 100 579 56 l 554 100 m 399 147 q 521 198 475 147 q 567 336 567 249 l 567 353 q 521 491 567 440 q 399 542 475 542 q 276 491 322 542 q 231 353 231 440 l 231 336 q 276 198 231 249 q 399 147 322 147 m 536 972 l 536 953 q 485 828 536 874 q 353 783 435 783 q 220 828 271 783 q 169 953 169 874 l 169 972 l 294 972 l 294 964 q 309 922 294 939 q 353 906 324 906 q 397 922 382 906 q 411 964 411 939 l 411 972 l 536 972 m 354 1211 l 540 1211 l 424 1022 l 282 1022 l 354 1211 z "},"ằ":{"ha":850,"x_min":56,"x_max":806,"o":"m 554 100 q 476 8 526 35 q 360 -19 426 -19 q 242 4 297 -19 q 146 74 188 28 q 80 185 104 119 q 56 333 56 250 l 56 356 q 79 503 56 438 q 143 614 103 568 q 237 684 183 660 q 351 708 290 708 q 470 683 425 708 q 542 606 515 658 l 567 606 l 567 689 l 742 689 l 742 208 q 779 167 742 167 l 806 167 l 806 0 l 686 0 q 609 28 639 0 q 579 100 579 56 l 554 100 m 399 147 q 521 198 475 147 q 567 336 567 249 l 567 353 q 521 491 567 440 q 399 542 475 542 q 276 491 322 542 q 231 353 231 440 l 231 336 q 276 198 231 249 q 399 147 322 147 m 536 972 l 536 953 q 485 828 536 874 q 353 783 435 783 q 220 828 271 783 q 169 953 169 874 l 169 972 l 294 972 l 294 964 q 309 922 294 939 q 353 906 324 906 q 397 922 382 906 q 411 964 411 939 l 411 972 l 536 972 m 424 1022 l 282 1022 l 165 1211 l 351 1211 l 424 1022 z "},"ẳ":{"ha":850,"x_min":56,"x_max":806,"o":"m 554 100 q 476 8 526 35 q 360 -19 426 -19 q 242 4 297 -19 q 146 74 188 28 q 80 185 104 119 q 56 333 56 250 l 56 356 q 79 503 56 438 q 143 614 103 568 q 237 684 183 660 q 351 708 290 708 q 470 683 425 708 q 542 606 515 658 l 567 606 l 567 689 l 742 689 l 742 208 q 779 167 742 167 l 806 167 l 806 0 l 686 0 q 609 28 639 0 q 579 100 579 56 l 554 100 m 399 147 q 521 198 475 147 q 567 336 567 249 l 567 353 q 521 491 567 440 q 399 542 475 542 q 276 491 322 542 q 231 353 231 440 l 231 336 q 276 198 231 249 q 399 147 322 147 m 536 972 l 536 953 q 485 828 536 874 q 353 783 435 783 q 220 828 271 783 q 169 953 169 874 l 169 972 l 294 972 l 294 964 q 309 922 294 939 q 353 906 324 906 q 397 922 382 906 q 411 964 411 939 l 411 972 l 536 972 m 401 1022 l 388 1086 l 404 1086 q 426 1065 411 1074 q 468 1056 442 1056 q 555 1092 526 1056 q 583 1178 583 1128 q 540 1280 583 1243 q 431 1317 496 1317 q 364 1309 390 1317 q 314 1289 338 1301 l 350 1194 q 419 1214 382 1214 q 453 1204 440 1214 q 467 1178 467 1194 q 460 1156 467 1165 q 439 1147 453 1147 q 411 1167 415 1147 l 276 1167 l 276 1150 l 304 1022 l 401 1022 z "},"ẵ":{"ha":850,"x_min":56,"x_max":806,"o":"m 554 100 q 476 8 526 35 q 360 -19 426 -19 q 242 4 297 -19 q 146 74 188 28 q 80 185 104 119 q 56 333 56 250 l 56 356 q 79 503 56 438 q 143 614 103 568 q 237 684 183 660 q 351 708 290 708 q 470 683 425 708 q 542 606 515 658 l 567 606 l 567 689 l 742 689 l 742 208 q 779 167 742 167 l 806 167 l 806 0 l 686 0 q 609 28 639 0 q 579 100 579 56 l 554 100 m 399 147 q 521 198 475 147 q 567 336 567 249 l 567 353 q 521 491 567 440 q 399 542 475 542 q 276 491 322 542 q 231 353 231 440 l 231 336 q 276 198 231 249 q 399 147 322 147 m 536 972 l 536 953 q 485 828 536 874 q 353 783 435 783 q 220 828 271 783 q 169 953 169 874 l 169 972 l 294 972 l 294 964 q 309 922 294 939 q 353 906 324 906 q 397 922 382 906 q 411 964 411 939 l 411 972 l 536 972 m 375 1215 q 397 1192 386 1203 q 428 1182 408 1182 q 459 1191 447 1182 q 482 1215 471 1200 l 524 1268 l 631 1183 l 553 1083 q 499 1037 528 1051 q 433 1022 469 1022 q 380 1035 406 1022 q 331 1075 354 1047 q 308 1098 319 1088 q 278 1108 297 1108 q 247 1099 258 1108 q 224 1075 235 1090 l 182 1022 l 75 1107 l 153 1207 q 208 1254 179 1240 q 272 1268 238 1268 q 326 1256 300 1268 q 375 1215 351 1243 z "},"ặ":{"ha":850,"x_min":56,"x_max":806,"o":"m 554 100 q 476 8 526 35 q 360 -19 426 -19 q 242 4 297 -19 q 146 74 188 28 q 80 185 104 119 q 56 333 56 250 l 56 356 q 79 503 56 438 q 143 614 103 568 q 237 684 183 660 q 351 708 290 708 q 470 683 425 708 q 542 606 515 658 l 567 606 l 567 689 l 742 689 l 742 208 q 779 167 742 167 l 806 167 l 806 0 l 686 0 q 609 28 639 0 q 579 100 579 56 l 554 100 m 399 147 q 521 198 475 147 q 567 336 567 249 l 567 353 q 521 491 567 440 q 399 542 475 542 q 276 491 322 542 q 231 353 231 440 l 231 336 q 276 198 231 249 q 399 147 322 147 m 536 972 l 536 953 q 485 828 536 874 q 353 783 435 783 q 220 828 271 783 q 169 953 169 874 l 169 972 l 294 972 l 294 964 q 309 922 294 939 q 353 906 324 906 q 397 922 382 906 q 411 964 411 939 l 411 972 l 536 972 m 493 -219 q 483 -272 493 -247 q 454 -313 472 -296 q 412 -341 436 -331 q 361 -351 388 -351 q 310 -341 333 -351 q 268 -313 286 -331 q 240 -272 250 -296 q 229 -219 229 -247 q 240 -167 229 -192 q 268 -126 250 -143 q 310 -98 286 -108 q 361 -87 333 -87 q 412 -98 388 -87 q 454 -126 436 -108 q 483 -167 472 -143 q 493 -219 493 -192 z "},"æ":{"ha":850,"x_min":78,"x_max":775,"o":"m 253 204 q 271 162 253 176 q 317 147 289 147 l 333 147 l 333 261 l 317 261 q 271 247 289 261 q 253 204 253 232 m 600 428 q 575 501 600 474 q 508 536 550 529 l 508 428 l 600 428 m 414 708 q 567 683 500 708 q 681 614 635 658 q 751 509 726 569 q 775 378 775 449 l 775 261 l 508 261 l 508 153 q 569 167 542 153 q 608 211 596 182 l 750 122 q 631 14 708 47 q 435 -19 553 -19 l 394 -19 q 269 -7 326 -19 q 169 33 211 6 q 102 102 126 60 q 78 203 78 144 l 78 219 q 97 307 78 268 q 150 373 117 346 q 227 414 183 400 q 319 428 271 428 l 333 428 l 333 536 q 278 517 306 536 q 236 469 251 497 l 122 589 q 239 678 168 647 q 414 708 310 708 z "},"ƀ":{"ha":850,"x_min":-4,"x_max":796,"o":"m 254 0 l 79 0 l 79 747 l -4 747 l -4 906 l 79 906 l 79 972 l 254 972 l 254 906 l 469 906 l 469 747 l 254 747 l 254 589 l 279 589 q 360 677 307 646 q 494 708 413 708 q 610 685 556 708 q 706 616 665 661 q 772 506 747 571 q 796 357 796 440 l 796 332 q 772 182 796 247 q 708 72 749 117 q 613 3 668 26 q 494 -19 558 -19 q 413 -10 447 -19 q 352 17 378 0 q 309 55 326 33 q 279 100 292 76 l 254 100 l 254 0 m 438 147 q 570 198 519 147 q 621 336 621 249 l 621 353 q 570 491 621 440 q 438 542 519 542 q 305 490 356 542 q 254 353 254 438 l 254 336 q 305 199 254 251 q 438 147 356 147 z "},"ç":{"ha":850,"x_min":72,"x_max":781,"o":"m 781 253 q 681 67 758 139 q 474 -17 604 -6 l 464 -64 l 481 -64 q 503 -42 488 -51 q 544 -33 518 -33 q 631 -69 603 -33 q 660 -156 660 -106 q 616 -258 660 -221 q 507 -294 572 -294 q 440 -287 467 -294 q 390 -267 414 -279 l 426 -172 q 496 -192 458 -192 q 530 -182 517 -192 q 543 -156 543 -172 q 536 -134 543 -143 q 515 -125 529 -125 q 488 -144 492 -125 l 353 -144 l 353 -128 l 376 -15 q 255 19 311 -7 q 158 90 199 46 q 95 194 118 133 q 72 331 72 256 l 72 347 q 100 497 72 431 q 177 611 128 564 q 292 683 226 658 q 433 708 358 708 q 667 633 578 708 q 781 436 757 558 l 608 392 q 556 497 600 453 q 431 542 511 542 q 360 528 393 542 q 301 488 326 514 q 262 426 276 463 q 247 343 247 389 l 247 335 q 262 253 247 289 q 301 194 276 218 q 360 159 326 171 q 431 147 393 147 q 553 188 511 147 q 608 296 596 228 l 781 253 z "},"ć":{"ha":850,"x_min":72,"x_max":781,"o":"m 781 253 q 669 56 757 131 q 433 -19 581 -19 q 291 4 357 -19 q 176 72 225 28 q 100 182 128 117 q 72 331 72 247 l 72 347 q 100 497 72 431 q 177 611 128 564 q 292 683 226 658 q 433 708 358 708 q 667 633 578 708 q 781 436 757 558 l 608 392 q 556 497 600 453 q 431 542 511 542 q 360 528 393 542 q 301 488 326 514 q 262 426 276 463 q 247 343 247 389 l 247 335 q 262 253 247 289 q 301 194 276 218 q 360 159 326 171 q 431 147 393 147 q 553 188 511 147 q 608 296 596 228 l 781 253 m 433 981 l 619 981 l 503 792 l 361 792 l 433 981 z "},"ĉ":{"ha":850,"x_min":72,"x_max":781,"o":"m 781 253 q 669 56 757 131 q 433 -19 581 -19 q 291 4 357 -19 q 176 72 225 28 q 100 182 128 117 q 72 331 72 247 l 72 347 q 100 497 72 431 q 177 611 128 564 q 292 683 226 658 q 433 708 358 708 q 667 633 578 708 q 781 436 757 558 l 608 392 q 556 497 600 453 q 431 542 511 542 q 360 528 393 542 q 301 488 326 514 q 262 426 276 463 q 247 343 247 389 l 247 335 q 262 253 247 289 q 301 194 276 218 q 360 159 326 171 q 431 147 393 147 q 553 188 511 147 q 608 296 596 228 l 781 253 m 501 792 l 442 914 l 425 914 l 365 792 l 197 792 l 314 981 l 553 981 l 669 792 l 501 792 z "},"č":{"ha":850,"x_min":72,"x_max":781,"o":"m 781 253 q 669 56 757 131 q 433 -19 581 -19 q 291 4 357 -19 q 176 72 225 28 q 100 182 128 117 q 72 331 72 247 l 72 347 q 100 497 72 431 q 177 611 128 564 q 292 683 226 658 q 433 708 358 708 q 667 633 578 708 q 781 436 757 558 l 608 392 q 556 497 600 453 q 431 542 511 542 q 360 528 393 542 q 301 488 326 514 q 262 426 276 463 q 247 343 247 389 l 247 335 q 262 253 247 289 q 301 194 276 218 q 360 159 326 171 q 431 147 393 147 q 553 188 511 147 q 608 296 596 228 l 781 253 m 669 981 l 553 792 l 314 792 l 197 981 l 365 981 l 425 858 l 442 858 l 501 981 l 669 981 z "},"ċ":{"ha":850,"x_min":72,"x_max":781,"o":"m 781 253 q 669 56 757 131 q 433 -19 581 -19 q 291 4 357 -19 q 176 72 225 28 q 100 182 128 117 q 72 331 72 247 l 72 347 q 100 497 72 431 q 177 611 128 564 q 292 683 226 658 q 433 708 358 708 q 667 633 578 708 q 781 436 757 558 l 608 392 q 556 497 600 453 q 431 542 511 542 q 360 528 393 542 q 301 488 326 514 q 262 426 276 463 q 247 343 247 389 l 247 335 q 262 253 247 289 q 301 194 276 218 q 360 159 326 171 q 431 147 393 147 q 553 188 511 147 q 608 296 596 228 l 781 253 m 565 893 q 555 841 565 865 q 526 799 544 817 q 484 772 508 782 q 433 761 460 761 q 382 772 406 761 q 340 799 358 782 q 312 841 322 817 q 301 893 301 865 q 312 945 301 921 q 340 987 322 969 q 382 1015 358 1004 q 433 1025 406 1025 q 484 1015 460 1025 q 526 987 508 1004 q 555 945 544 969 q 565 893 565 921 z "},"ð":{"ha":850,"x_min":65,"x_max":785,"o":"m 497 1004 l 479 946 q 618 851 560 907 q 713 725 676 794 q 767 574 750 656 q 785 404 785 493 q 757 219 785 299 q 681 87 729 140 q 565 7 632 33 q 418 -19 497 -19 q 282 5 346 -19 q 170 75 218 29 q 94 187 122 121 q 65 336 65 253 l 65 353 q 90 503 65 438 q 158 615 115 569 q 255 685 200 661 q 371 708 310 708 q 476 693 436 708 q 543 644 515 678 l 568 644 q 514 729 549 693 q 431 792 479 765 l 414 739 l 278 779 l 296 838 q 251 847 274 843 q 204 853 228 850 l 232 1011 q 289 1003 261 1008 q 344 992 317 999 l 361 1044 l 497 1004 m 419 147 q 550 198 500 147 q 600 353 600 249 q 550 491 600 440 q 419 542 500 542 q 290 489 339 542 q 240 349 240 436 l 240 340 q 290 198 240 249 q 419 147 339 147 z "},"ď":{"ha":850,"x_min":25,"x_max":833,"o":"m 375 56 l 350 56 q 308 -1 339 18 q 228 -19 276 -19 q 74 67 124 -19 q 25 326 25 153 l 25 374 q 79 631 25 553 q 228 708 133 708 q 308 686 274 708 q 350 631 342 664 l 375 631 l 375 972 l 550 972 l 550 0 l 375 0 l 375 56 m 290 542 q 221 499 242 542 q 200 365 200 457 l 200 324 q 221 190 200 232 q 290 147 242 147 q 355 180 335 147 q 375 269 375 213 l 375 419 q 355 509 375 476 q 290 542 335 542 m 833 689 q 797 600 833 636 q 708 564 761 564 l 625 564 l 625 672 l 688 672 q 725 714 725 672 l 725 731 l 713 731 q 666 740 688 731 q 628 767 644 750 q 601 805 611 783 q 592 851 592 826 q 601 898 592 876 q 628 936 611 919 q 666 963 644 953 q 713 972 688 972 q 759 963 738 972 q 797 936 781 953 q 824 898 814 919 q 833 851 833 876 l 833 689 z "},"ḍ":{"ha":850,"x_min":61,"x_max":778,"o":"m 603 100 l 578 100 q 551 55 567 76 q 509 17 535 33 q 448 -10 483 0 q 363 -19 413 -19 q 244 3 299 -19 q 148 72 189 26 q 84 182 107 117 q 61 332 61 247 l 61 357 q 85 506 61 440 q 152 616 110 571 q 251 685 194 661 q 369 708 307 708 q 501 677 453 708 q 578 589 550 646 l 603 589 l 603 972 l 778 972 l 778 0 l 603 0 l 603 100 m 419 147 q 552 199 501 147 q 603 336 603 251 l 603 353 q 552 490 603 438 q 419 542 501 542 q 287 491 338 542 q 236 353 236 440 l 236 336 q 287 198 236 249 q 419 147 338 147 m 497 -219 q 487 -272 497 -247 q 458 -313 476 -296 q 416 -341 440 -331 q 365 -351 392 -351 q 314 -341 338 -351 q 272 -313 290 -331 q 244 -272 254 -296 q 233 -219 233 -247 q 244 -167 233 -192 q 272 -126 254 -143 q 314 -98 290 -108 q 365 -87 338 -87 q 416 -98 392 -87 q 458 -126 440 -108 q 487 -167 476 -143 q 497 -219 497 -192 z "},"ḏ":{"ha":850,"x_min":61,"x_max":778,"o":"m 603 100 l 578 100 q 551 55 567 76 q 509 17 535 33 q 448 -10 483 0 q 363 -19 413 -19 q 244 3 299 -19 q 148 72 189 26 q 84 182 107 117 q 61 332 61 247 l 61 357 q 85 506 61 440 q 152 616 110 571 q 251 685 194 661 q 369 708 307 708 q 501 677 453 708 q 578 589 550 646 l 603 589 l 603 972 l 778 972 l 778 0 l 603 0 l 603 100 m 419 147 q 552 199 501 147 q 603 336 603 251 l 603 353 q 552 490 603 438 q 419 542 501 542 q 287 491 338 542 q 236 353 236 440 l 236 336 q 287 198 236 249 q 419 147 338 147 m 604 -231 l 196 -231 l 196 -89 l 604 -89 l 604 -231 z "},"đ":{"ha":850,"x_min":50,"x_max":850,"o":"m 592 100 l 567 100 q 540 55 556 76 q 498 17 524 33 q 437 -10 472 0 q 351 -19 401 -19 q 233 3 288 -19 q 137 72 178 26 q 73 182 96 117 q 50 332 50 247 l 50 357 q 74 506 50 440 q 141 616 99 571 q 240 685 183 661 q 358 708 296 708 q 490 677 442 708 q 567 589 539 646 l 592 589 l 592 747 l 375 747 l 375 906 l 592 906 l 592 972 l 767 972 l 767 906 l 850 906 l 850 747 l 767 747 l 767 0 l 592 0 l 592 100 m 408 147 q 541 199 490 147 q 592 336 592 251 l 592 353 q 541 490 592 438 q 408 542 490 542 q 276 491 326 542 q 225 353 225 440 l 225 336 q 276 198 225 249 q 408 147 326 147 z "},"è":{"ha":850,"x_min":82,"x_max":768,"o":"m 263 288 q 277 231 264 257 q 313 187 290 206 q 366 158 336 168 q 429 147 396 147 q 529 170 494 147 q 579 225 564 193 l 729 142 q 694 87 717 115 q 637 35 672 58 q 551 -4 601 11 q 432 -19 500 -19 q 290 6 354 -19 q 180 78 226 31 q 108 193 133 125 q 82 347 82 261 l 82 356 q 109 500 82 435 q 183 611 136 565 q 294 683 231 657 q 429 708 357 708 q 582 677 518 708 q 688 598 646 646 q 749 492 729 550 q 768 381 768 435 l 768 288 l 263 288 m 428 550 q 319 516 361 550 q 265 438 278 482 l 590 438 q 538 518 582 486 q 428 550 494 550 m 503 792 l 361 792 l 244 981 l 431 981 l 503 792 z "},"é":{"ha":850,"x_min":82,"x_max":768,"o":"m 263 288 q 277 231 264 257 q 313 187 290 206 q 366 158 336 168 q 429 147 396 147 q 529 170 494 147 q 579 225 564 193 l 729 142 q 694 87 717 115 q 637 35 672 58 q 551 -4 601 11 q 432 -19 500 -19 q 290 6 354 -19 q 180 78 226 31 q 108 193 133 125 q 82 347 82 261 l 82 356 q 109 500 82 435 q 183 611 136 565 q 294 683 231 657 q 429 708 357 708 q 582 677 518 708 q 688 598 646 646 q 749 492 729 550 q 768 381 768 435 l 768 288 l 263 288 m 428 550 q 319 516 361 550 q 265 438 278 482 l 590 438 q 538 518 582 486 q 428 550 494 550 m 432 981 l 618 981 l 501 792 l 360 792 l 432 981 z "},"ê":{"ha":850,"x_min":82,"x_max":768,"o":"m 263 288 q 277 231 264 257 q 313 187 290 206 q 366 158 336 168 q 429 147 396 147 q 529 170 494 147 q 579 225 564 193 l 729 142 q 694 87 717 115 q 637 35 672 58 q 551 -4 601 11 q 432 -19 500 -19 q 290 6 354 -19 q 180 78 226 31 q 108 193 133 125 q 82 347 82 261 l 82 356 q 109 500 82 435 q 183 611 136 565 q 294 683 231 657 q 429 708 357 708 q 582 677 518 708 q 688 598 646 646 q 749 492 729 550 q 768 381 768 435 l 768 288 l 263 288 m 428 550 q 319 516 361 550 q 265 438 278 482 l 590 438 q 538 518 582 486 q 428 550 494 550 m 499 792 l 439 914 l 422 914 l 363 792 l 194 792 l 311 981 l 550 981 l 667 792 l 499 792 z "},"ě":{"ha":850,"x_min":82,"x_max":768,"o":"m 263 288 q 277 231 264 257 q 313 187 290 206 q 366 158 336 168 q 429 147 396 147 q 529 170 494 147 q 579 225 564 193 l 729 142 q 694 87 717 115 q 637 35 672 58 q 551 -4 601 11 q 432 -19 500 -19 q 290 6 354 -19 q 180 78 226 31 q 108 193 133 125 q 82 347 82 261 l 82 356 q 109 500 82 435 q 183 611 136 565 q 294 683 231 657 q 429 708 357 708 q 582 677 518 708 q 688 598 646 646 q 749 492 729 550 q 768 381 768 435 l 768 288 l 263 288 m 428 550 q 319 516 361 550 q 265 438 278 482 l 590 438 q 538 518 582 486 q 428 550 494 550 m 665 981 l 549 792 l 310 792 l 193 981 l 361 981 l 421 858 l 438 858 l 497 981 l 665 981 z "},"ë":{"ha":850,"x_min":82,"x_max":768,"o":"m 263 288 q 277 231 264 257 q 313 187 290 206 q 366 158 336 168 q 429 147 396 147 q 529 170 494 147 q 579 225 564 193 l 729 142 q 694 87 717 115 q 637 35 672 58 q 551 -4 601 11 q 432 -19 500 -19 q 290 6 354 -19 q 180 78 226 31 q 108 193 133 125 q 82 347 82 261 l 82 356 q 109 500 82 435 q 183 611 136 565 q 294 683 231 657 q 429 708 357 708 q 582 677 518 708 q 688 598 646 646 q 749 492 729 550 q 768 381 768 435 l 768 288 l 263 288 m 428 550 q 319 516 361 550 q 265 438 278 482 l 590 438 q 538 518 582 486 q 428 550 494 550 m 397 893 q 387 841 397 865 q 358 799 376 817 q 316 772 340 782 q 265 761 292 761 q 214 772 238 761 q 172 799 190 782 q 144 841 154 817 q 133 893 133 865 q 144 945 133 921 q 172 987 154 969 q 214 1015 190 1004 q 265 1025 238 1025 q 316 1015 292 1025 q 358 987 340 1004 q 387 945 376 969 q 397 893 397 921 m 728 893 q 717 841 728 865 q 689 799 707 817 q 647 772 671 782 q 596 761 622 761 q 544 772 568 761 q 503 799 521 782 q 474 841 485 817 q 464 893 464 865 q 474 945 464 921 q 503 987 485 969 q 544 1015 521 1004 q 596 1025 568 1025 q 647 1015 622 1025 q 689 987 671 1004 q 717 945 707 969 q 728 893 728 921 z "},"ē":{"ha":850,"x_min":82,"x_max":768,"o":"m 263 288 q 277 231 264 257 q 313 187 290 206 q 366 158 336 168 q 429 147 396 147 q 529 170 494 147 q 579 225 564 193 l 729 142 q 694 87 717 115 q 637 35 672 58 q 551 -4 601 11 q 432 -19 500 -19 q 290 6 354 -19 q 180 78 226 31 q 108 193 133 125 q 82 347 82 261 l 82 356 q 109 500 82 435 q 183 611 136 565 q 294 683 231 657 q 429 708 357 708 q 582 677 518 708 q 688 598 646 646 q 749 492 729 550 q 768 381 768 435 l 768 288 l 263 288 m 428 550 q 319 516 361 550 q 265 438 278 482 l 590 438 q 538 518 582 486 q 428 550 494 550 m 633 792 l 225 792 l 225 933 l 633 933 l 633 792 z "},"ĕ":{"ha":850,"x_min":82,"x_max":768,"o":"m 263 288 q 277 231 264 257 q 313 187 290 206 q 366 158 336 168 q 429 147 396 147 q 529 170 494 147 q 579 225 564 193 l 729 142 q 694 87 717 115 q 637 35 672 58 q 551 -4 601 11 q 432 -19 500 -19 q 290 6 354 -19 q 180 78 226 31 q 108 193 133 125 q 82 347 82 261 l 82 356 q 109 500 82 435 q 183 611 136 565 q 294 683 231 657 q 429 708 357 708 q 582 677 518 708 q 688 598 646 646 q 749 492 729 550 q 768 381 768 435 l 768 288 l 263 288 m 428 550 q 319 516 361 550 q 265 438 278 482 l 590 438 q 538 518 582 486 q 428 550 494 550 m 613 972 l 613 953 q 562 828 613 874 q 429 783 511 783 q 297 828 347 783 q 246 953 246 874 l 246 972 l 371 972 l 371 964 q 385 922 371 939 q 429 906 400 906 q 473 922 458 906 q 488 964 488 939 l 488 972 l 613 972 z "},"ę":{"ha":850,"x_min":82,"x_max":768,"o":"m 263 288 q 277 231 264 257 q 313 187 290 206 q 366 158 336 168 q 429 147 396 147 q 529 170 494 147 q 579 225 564 193 l 729 142 q 699 92 718 118 q 649 44 679 67 q 578 5 619 21 q 481 -17 536 -11 l 467 -78 q 465 -89 465 -85 q 497 -119 465 -119 l 561 -119 l 561 -236 l 450 -236 q 374 -210 408 -236 q 339 -132 339 -183 q 343 -100 339 -119 l 363 -14 q 159 100 236 7 q 82 347 82 193 l 82 356 q 109 500 82 435 q 183 611 136 565 q 294 683 231 657 q 429 708 357 708 q 582 677 518 708 q 688 598 646 646 q 749 492 729 550 q 768 381 768 435 l 768 288 l 263 288 m 428 550 q 319 516 361 550 q 265 438 278 482 l 590 438 q 538 518 582 486 q 428 550 494 550 z "},"ė":{"ha":850,"x_min":82,"x_max":768,"o":"m 263 288 q 277 231 264 257 q 313 187 290 206 q 366 158 336 168 q 429 147 396 147 q 529 170 494 147 q 579 225 564 193 l 729 142 q 694 87 717 115 q 637 35 672 58 q 551 -4 601 11 q 432 -19 500 -19 q 290 6 354 -19 q 180 78 226 31 q 108 193 133 125 q 82 347 82 261 l 82 356 q 109 500 82 435 q 183 611 136 565 q 294 683 231 657 q 429 708 357 708 q 582 677 518 708 q 688 598 646 646 q 749 492 729 550 q 768 381 768 435 l 768 288 l 263 288 m 428 550 q 319 516 361 550 q 265 438 278 482 l 590 438 q 538 518 582 486 q 428 550 494 550 m 561 893 q 551 841 561 865 q 522 799 540 817 q 480 772 504 782 q 429 761 456 761 q 378 772 401 761 q 336 799 354 782 q 308 841 318 817 q 297 893 297 865 q 308 945 297 921 q 336 987 318 969 q 378 1015 354 1004 q 429 1025 401 1025 q 480 1015 456 1025 q 522 987 504 1004 q 551 945 540 969 q 561 893 561 921 z "},"ẹ":{"ha":850,"x_min":82,"x_max":768,"o":"m 263 288 q 277 231 264 257 q 313 187 290 206 q 366 158 336 168 q 429 147 396 147 q 529 170 494 147 q 579 225 564 193 l 729 142 q 694 87 717 115 q 637 35 672 58 q 551 -4 601 11 q 432 -19 500 -19 q 290 6 354 -19 q 180 78 226 31 q 108 193 133 125 q 82 347 82 261 l 82 356 q 109 500 82 435 q 183 611 136 565 q 294 683 231 657 q 429 708 357 708 q 582 677 518 708 q 688 598 646 646 q 749 492 729 550 q 768 381 768 435 l 768 288 l 263 288 m 428 550 q 319 516 361 550 q 265 438 278 482 l 590 438 q 538 518 582 486 q 428 550 494 550 m 564 -219 q 553 -272 564 -247 q 525 -313 543 -296 q 483 -341 507 -331 q 432 -351 458 -351 q 381 -341 404 -351 q 339 -313 357 -331 q 310 -272 321 -296 q 300 -219 300 -247 q 310 -167 300 -192 q 339 -126 321 -143 q 381 -98 357 -108 q 432 -87 404 -87 q 483 -98 458 -87 q 525 -126 507 -108 q 553 -167 543 -143 q 564 -219 564 -192 z "},"ẻ":{"ha":850,"x_min":82,"x_max":768,"o":"m 263 288 q 277 231 264 257 q 313 187 290 206 q 366 158 336 168 q 429 147 396 147 q 529 170 494 147 q 579 225 564 193 l 729 142 q 694 87 717 115 q 637 35 672 58 q 551 -4 601 11 q 432 -19 500 -19 q 290 6 354 -19 q 180 78 226 31 q 108 193 133 125 q 82 347 82 261 l 82 356 q 109 500 82 435 q 183 611 136 565 q 294 683 231 657 q 429 708 357 708 q 582 677 518 708 q 688 598 646 646 q 749 492 729 550 q 768 381 768 435 l 768 288 l 263 288 m 428 550 q 319 516 361 550 q 265 438 278 482 l 590 438 q 538 518 582 486 q 428 550 494 550 m 481 758 l 467 822 l 483 822 q 506 801 490 810 q 547 792 521 792 q 634 828 606 792 q 663 914 663 864 q 619 1016 663 979 q 510 1053 575 1053 q 443 1045 469 1053 q 393 1025 417 1037 l 429 931 q 499 950 461 950 q 533 940 519 950 q 546 914 546 931 q 539 892 546 901 q 518 883 532 883 q 490 903 494 883 l 356 903 l 356 886 l 383 758 l 481 758 z "},"ẽ":{"ha":850,"x_min":82,"x_max":768,"o":"m 263 288 q 277 231 264 257 q 313 187 290 206 q 366 158 336 168 q 429 147 396 147 q 529 170 494 147 q 579 225 564 193 l 729 142 q 694 87 717 115 q 637 35 672 58 q 551 -4 601 11 q 432 -19 500 -19 q 290 6 354 -19 q 180 78 226 31 q 108 193 133 125 q 82 347 82 261 l 82 356 q 109 500 82 435 q 183 611 136 565 q 294 683 231 657 q 429 708 357 708 q 582 677 518 708 q 688 598 646 646 q 749 492 729 550 q 768 381 768 435 l 768 288 l 263 288 m 428 550 q 319 516 361 550 q 265 438 278 482 l 590 438 q 538 518 582 486 q 428 550 494 550 m 451 958 q 474 935 463 946 q 504 925 485 925 q 535 934 524 925 q 558 958 547 943 l 600 1011 l 707 926 l 629 826 q 575 780 604 794 q 510 765 546 765 q 456 778 482 765 q 407 818 431 790 q 385 841 396 831 q 354 851 374 851 q 323 842 335 851 q 300 818 311 833 l 258 765 l 151 850 l 229 950 q 285 997 256 983 q 349 1011 314 1011 q 402 999 376 1011 q 451 958 428 986 z "},"ế":{"ha":850,"x_min":83,"x_max":900,"o":"m 264 288 q 278 231 265 257 q 315 187 292 206 q 367 158 338 168 q 431 147 397 147 q 531 170 496 147 q 581 225 565 193 l 731 142 q 696 87 718 115 q 638 35 674 58 q 552 -4 603 11 q 433 -19 501 -19 q 292 6 356 -19 q 181 78 228 31 q 109 193 135 125 q 83 347 83 261 l 83 356 q 110 500 83 435 q 185 611 138 565 q 295 683 232 657 q 431 708 358 708 q 583 677 519 708 q 689 598 647 646 q 750 492 731 550 q 769 381 769 435 l 769 288 l 264 288 m 429 550 q 321 516 363 550 q 267 438 279 482 l 592 438 q 540 518 583 486 q 429 550 496 550 m 499 792 l 439 914 l 422 914 l 363 792 l 194 792 l 311 981 l 550 981 l 667 792 l 499 792 m 714 1103 l 900 1103 l 783 914 l 642 914 l 714 1103 z "},"ề":{"ha":850,"x_min":-36,"x_max":769,"o":"m 264 288 q 278 231 265 257 q 315 187 292 206 q 367 158 338 168 q 431 147 397 147 q 531 170 496 147 q 581 225 565 193 l 731 142 q 696 87 718 115 q 638 35 674 58 q 552 -4 603 11 q 433 -19 501 -19 q 292 6 356 -19 q 181 78 228 31 q 109 193 135 125 q 83 347 83 261 l 83 356 q 110 500 83 435 q 185 611 138 565 q 295 683 232 657 q 431 708 358 708 q 583 677 519 708 q 689 598 647 646 q 750 492 731 550 q 769 381 769 435 l 769 288 l 264 288 m 429 550 q 321 516 363 550 q 267 438 279 482 l 592 438 q 540 518 583 486 q 429 550 496 550 m 499 792 l 439 914 l 422 914 l 363 792 l 194 792 l 311 981 l 550 981 l 667 792 l 499 792 m 222 914 l 81 914 l -36 1103 l 150 1103 l 222 914 z "},"ể":{"ha":850,"x_min":83,"x_max":921,"o":"m 264 288 q 278 231 265 257 q 315 187 292 206 q 367 158 338 168 q 431 147 397 147 q 531 170 496 147 q 581 225 565 193 l 731 142 q 696 87 718 115 q 638 35 674 58 q 552 -4 603 11 q 433 -19 501 -19 q 292 6 356 -19 q 181 78 228 31 q 109 193 135 125 q 83 347 83 261 l 83 356 q 110 500 83 435 q 185 611 138 565 q 295 683 232 657 q 431 708 358 708 q 583 677 519 708 q 689 598 647 646 q 750 492 731 550 q 769 381 769 435 l 769 288 l 264 288 m 429 550 q 321 516 363 550 q 267 438 279 482 l 592 438 q 540 518 583 486 q 429 550 496 550 m 499 792 l 439 914 l 422 914 l 363 792 l 194 792 l 311 981 l 550 981 l 667 792 l 499 792 m 739 914 l 725 978 l 742 978 q 764 956 749 965 q 806 947 779 947 q 892 983 864 947 q 921 1069 921 1019 q 877 1172 921 1135 q 768 1208 833 1208 q 701 1201 728 1208 q 651 1181 675 1193 l 688 1086 q 757 1106 719 1106 q 791 1096 778 1106 q 804 1069 804 1086 q 797 1048 804 1057 q 776 1039 790 1039 q 749 1058 753 1039 l 614 1058 l 614 1042 l 642 914 l 739 914 z "},"ễ":{"ha":850,"x_min":83,"x_max":769,"o":"m 264 288 q 278 231 265 257 q 315 187 292 206 q 367 158 338 168 q 431 147 397 147 q 531 170 496 147 q 581 225 565 193 l 731 142 q 696 87 718 115 q 638 35 674 58 q 552 -4 603 11 q 433 -19 501 -19 q 292 6 356 -19 q 181 78 228 31 q 109 193 135 125 q 83 347 83 261 l 83 356 q 110 500 83 435 q 185 611 138 565 q 295 683 232 657 q 431 708 358 708 q 583 677 519 708 q 689 598 647 646 q 750 492 731 550 q 769 381 769 435 l 769 288 l 264 288 m 429 550 q 321 516 363 550 q 267 438 279 482 l 592 438 q 540 518 583 486 q 429 550 496 550 m 499 792 l 439 914 l 422 914 l 363 792 l 194 792 l 311 981 l 550 981 l 667 792 l 499 792 m 453 1215 q 475 1192 464 1203 q 506 1182 486 1182 q 537 1191 525 1182 q 560 1215 549 1200 l 601 1268 l 708 1183 l 631 1083 q 576 1037 606 1051 q 511 1022 547 1022 q 458 1035 483 1022 q 408 1075 432 1047 q 386 1098 397 1088 q 356 1108 375 1108 q 324 1099 336 1108 q 301 1075 313 1090 l 260 1022 l 153 1107 l 231 1207 q 286 1254 257 1240 q 350 1268 315 1268 q 403 1256 378 1268 q 453 1215 429 1243 z "},"ệ":{"ha":850,"x_min":82,"x_max":768,"o":"m 263 288 q 277 231 264 257 q 313 187 290 206 q 366 158 336 168 q 429 147 396 147 q 529 170 494 147 q 579 225 564 193 l 729 142 q 694 87 717 115 q 637 35 672 58 q 551 -4 601 11 q 432 -19 500 -19 q 290 6 354 -19 q 180 78 226 31 q 108 193 133 125 q 82 347 82 261 l 82 356 q 109 500 82 435 q 183 611 136 565 q 294 683 231 657 q 429 708 357 708 q 582 677 518 708 q 688 598 646 646 q 749 492 729 550 q 768 381 768 435 l 768 288 l 263 288 m 428 550 q 319 516 361 550 q 265 438 278 482 l 590 438 q 538 518 582 486 q 428 550 494 550 m 499 792 l 439 914 l 422 914 l 363 792 l 194 792 l 311 981 l 550 981 l 667 792 l 499 792 m 564 -219 q 553 -272 564 -247 q 525 -313 543 -296 q 483 -341 507 -331 q 432 -351 458 -351 q 381 -341 404 -351 q 339 -313 357 -331 q 310 -272 321 -296 q 300 -219 300 -247 q 310 -167 300 -192 q 339 -126 321 -143 q 381 -98 357 -108 q 432 -87 404 -87 q 483 -98 458 -87 q 525 -126 507 -108 q 553 -167 543 -143 q 564 -219 564 -192 z "},"ĝ":{"ha":850,"x_min":58,"x_max":775,"o":"m 600 100 l 575 100 q 548 55 564 76 q 506 17 532 33 q 445 -10 481 0 q 360 -19 410 -19 q 241 3 296 -19 q 145 72 186 26 q 81 182 104 117 q 58 332 58 247 l 58 357 q 83 506 58 440 q 149 616 107 571 q 248 685 192 661 q 367 708 304 708 q 499 677 450 708 q 575 589 547 646 l 600 589 l 600 689 l 775 689 l 775 -169 q 745 -247 775 -217 q 668 -278 715 -278 l 204 -278 l 204 -111 l 563 -111 q 600 -69 600 -111 l 600 100 m 417 147 q 549 199 499 147 q 600 336 600 251 l 600 353 q 549 490 600 438 q 417 542 499 542 q 284 491 335 542 q 233 353 233 440 l 233 336 q 284 198 233 249 q 417 147 335 147 m 436 792 l 376 914 l 360 914 l 300 792 l 132 792 l 249 981 l 488 981 l 604 792 l 436 792 z "},"ğ":{"ha":850,"x_min":58,"x_max":775,"o":"m 600 100 l 575 100 q 548 55 564 76 q 506 17 532 33 q 445 -10 481 0 q 360 -19 410 -19 q 241 3 296 -19 q 145 72 186 26 q 81 182 104 117 q 58 332 58 247 l 58 357 q 83 506 58 440 q 149 616 107 571 q 248 685 192 661 q 367 708 304 708 q 499 677 450 708 q 575 589 547 646 l 600 589 l 600 689 l 775 689 l 775 -169 q 745 -247 775 -217 q 668 -278 715 -278 l 204 -278 l 204 -111 l 563 -111 q 600 -69 600 -111 l 600 100 m 417 147 q 549 199 499 147 q 600 336 600 251 l 600 353 q 549 490 600 438 q 417 542 499 542 q 284 491 335 542 q 233 353 233 440 l 233 336 q 284 198 233 249 q 417 147 335 147 m 551 972 l 551 953 q 501 828 551 874 q 368 783 450 783 q 235 828 286 783 q 185 953 185 874 l 185 972 l 310 972 l 310 964 q 324 922 310 939 q 368 906 339 906 q 412 922 397 906 q 426 964 426 939 l 426 972 l 551 972 z "},"ġ":{"ha":850,"x_min":58,"x_max":775,"o":"m 600 100 l 575 100 q 548 55 564 76 q 506 17 532 33 q 445 -10 481 0 q 360 -19 410 -19 q 241 3 296 -19 q 145 72 186 26 q 81 182 104 117 q 58 332 58 247 l 58 357 q 83 506 58 440 q 149 616 107 571 q 248 685 192 661 q 367 708 304 708 q 499 677 450 708 q 575 589 547 646 l 600 589 l 600 689 l 775 689 l 775 -169 q 745 -247 775 -217 q 668 -278 715 -278 l 204 -278 l 204 -111 l 563 -111 q 600 -69 600 -111 l 600 100 m 417 147 q 549 199 499 147 q 600 336 600 251 l 600 353 q 549 490 600 438 q 417 542 499 542 q 284 491 335 542 q 233 353 233 440 l 233 336 q 284 198 233 249 q 417 147 335 147 m 500 893 q 490 841 500 865 q 461 799 479 817 q 419 772 443 782 q 368 761 394 761 q 317 772 340 761 q 275 799 293 782 q 247 841 257 817 q 236 893 236 865 q 247 945 236 921 q 275 987 257 969 q 317 1015 293 1004 q 368 1025 340 1025 q 419 1015 394 1025 q 461 987 443 1004 q 490 945 479 969 q 500 893 500 921 z "},"ģ":{"ha":850,"x_min":58,"x_max":775,"o":"m 246 1081 q 282 1169 246 1133 q 371 1206 318 1206 l 454 1206 l 454 1097 l 392 1097 q 354 1056 354 1097 l 354 1039 l 367 1039 q 413 1029 392 1039 q 451 1003 435 1019 q 478 965 468 986 q 488 918 488 943 q 478 872 488 893 q 451 833 468 850 q 413 807 435 817 q 367 797 392 797 q 320 807 342 797 q 282 833 299 817 q 256 872 265 850 q 246 918 246 893 l 246 1081 m 600 100 l 575 100 q 548 55 564 76 q 506 17 532 33 q 445 -10 481 0 q 360 -19 410 -19 q 241 3 296 -19 q 145 72 186 26 q 81 182 104 117 q 58 332 58 247 l 58 357 q 83 506 58 440 q 149 616 107 571 q 248 685 192 661 q 367 708 304 708 q 499 677 450 708 q 575 589 547 646 l 600 589 l 600 689 l 775 689 l 775 -169 q 745 -247 775 -217 q 668 -278 715 -278 l 204 -278 l 204 -111 l 563 -111 q 600 -69 600 -111 l 600 100 m 417 147 q 549 199 499 147 q 600 336 600 251 l 600 353 q 549 490 600 438 q 417 542 499 542 q 284 491 335 542 q 233 353 233 440 l 233 336 q 284 198 233 249 q 417 147 335 147 z "},"ḡ":{"ha":850,"x_min":58,"x_max":775,"o":"m 600 100 l 575 100 q 548 55 564 76 q 506 17 532 33 q 445 -10 481 0 q 360 -19 410 -19 q 241 3 296 -19 q 145 72 186 26 q 81 182 104 117 q 58 332 58 247 l 58 357 q 83 506 58 440 q 149 616 107 571 q 248 685 192 661 q 367 708 304 708 q 499 677 450 708 q 575 589 547 646 l 600 589 l 600 689 l 775 689 l 775 -169 q 745 -247 775 -217 q 668 -278 715 -278 l 204 -278 l 204 -111 l 563 -111 q 600 -69 600 -111 l 600 100 m 417 147 q 549 199 499 147 q 600 336 600 251 l 600 353 q 549 490 600 438 q 417 542 499 542 q 284 491 335 542 q 233 353 233 440 l 233 336 q 284 198 233 249 q 417 147 335 147 m 576 792 l 168 792 l 168 933 l 576 933 l 576 792 z "},"ǧ":{"ha":850,"x_min":58,"x_max":775,"o":"m 600 100 l 575 100 q 548 55 564 76 q 506 17 532 33 q 445 -10 481 0 q 360 -19 410 -19 q 241 3 296 -19 q 145 72 186 26 q 81 182 104 117 q 58 332 58 247 l 58 357 q 83 506 58 440 q 149 616 107 571 q 248 685 192 661 q 367 708 304 708 q 499 677 450 708 q 575 589 547 646 l 600 589 l 600 689 l 775 689 l 775 -169 q 745 -247 775 -217 q 668 -278 715 -278 l 204 -278 l 204 -111 l 563 -111 q 600 -69 600 -111 l 600 100 m 417 147 q 549 199 499 147 q 600 336 600 251 l 600 353 q 549 490 600 438 q 417 542 499 542 q 284 491 335 542 q 233 353 233 440 l 233 336 q 284 198 233 249 q 417 147 335 147 m 604 981 l 488 792 l 249 792 l 132 981 l 300 981 l 360 858 l 376 858 l 436 981 l 604 981 z "},"ĥ":{"ha":850,"x_min":111,"x_max":753,"o":"m 286 0 l 111 0 l 111 972 l 286 972 l 286 578 l 311 578 q 389 674 338 640 q 515 708 440 708 q 610 692 567 708 q 685 642 653 675 q 735 556 717 608 q 753 433 753 504 l 753 0 l 578 0 l 578 392 q 542 508 578 465 q 440 550 507 550 q 324 498 363 550 q 286 358 286 446 l 286 0 m 418 1075 l 358 1197 l 342 1197 l 282 1075 l 114 1075 l 231 1264 l 469 1264 l 586 1075 l 418 1075 z "},"ḥ":{"ha":850,"x_min":111,"x_max":753,"o":"m 286 0 l 111 0 l 111 972 l 286 972 l 286 578 l 311 578 q 389 674 338 640 q 515 708 440 708 q 610 692 567 708 q 685 642 653 675 q 735 556 717 608 q 753 433 753 504 l 753 0 l 578 0 l 578 392 q 542 508 578 465 q 440 550 507 550 q 324 498 363 550 q 286 358 286 446 l 286 0 m 564 -219 q 553 -272 564 -247 q 525 -313 543 -296 q 483 -341 507 -331 q 432 -351 458 -351 q 381 -341 404 -351 q 339 -313 357 -331 q 310 -272 321 -296 q 300 -219 300 -247 q 310 -167 300 -192 q 339 -126 321 -143 q 381 -98 357 -108 q 432 -87 404 -87 q 483 -98 458 -87 q 525 -126 507 -108 q 553 -167 543 -143 q 564 -219 564 -192 z "},"ḫ":{"ha":850,"x_min":111,"x_max":753,"o":"m 286 0 l 111 0 l 111 972 l 286 972 l 286 578 l 311 578 q 389 674 338 640 q 515 708 440 708 q 610 692 567 708 q 685 642 653 675 q 735 556 717 608 q 753 433 753 504 l 753 0 l 578 0 l 578 392 q 542 508 578 465 q 440 550 507 550 q 324 498 363 550 q 286 358 286 446 l 286 0 m 615 -87 l 615 -107 q 565 -231 615 -186 q 432 -276 514 -276 q 299 -231 350 -276 q 249 -107 249 -186 l 249 -87 l 374 -87 l 374 -96 q 388 -137 374 -121 q 432 -154 403 -154 q 476 -137 461 -154 q 490 -96 490 -121 l 490 -87 l 615 -87 z "},"ħ":{"ha":850,"x_min":28,"x_max":753,"o":"m 286 0 l 111 0 l 111 747 l 28 747 l 28 906 l 111 906 l 111 972 l 286 972 l 286 906 l 503 906 l 503 747 l 286 747 l 286 578 l 311 578 q 389 674 338 640 q 515 708 440 708 q 610 692 567 708 q 685 642 653 675 q 735 556 717 608 q 753 433 753 504 l 753 0 l 578 0 l 578 392 q 542 508 578 465 q 440 550 507 550 q 324 498 363 550 q 286 358 286 446 l 286 0 z "},"ì":{"ha":850,"x_min":121,"x_max":729,"o":"m 121 167 l 354 167 l 354 522 l 138 522 l 138 689 l 529 689 l 529 167 l 729 167 l 729 0 l 121 0 l 121 167 m 510 792 l 368 792 l 251 981 l 438 981 l 510 792 z "},"í":{"ha":850,"x_min":121,"x_max":729,"o":"m 121 167 l 354 167 l 354 522 l 138 522 l 138 689 l 529 689 l 529 167 l 729 167 l 729 0 l 121 0 l 121 167 m 443 981 l 629 981 l 513 792 l 371 792 l 443 981 z "},"î":{"ha":850,"x_min":121,"x_max":729,"o":"m 121 167 l 354 167 l 354 522 l 138 522 l 138 689 l 529 689 l 529 167 l 729 167 l 729 0 l 121 0 l 121 167 m 510 792 l 450 914 l 433 914 l 374 792 l 206 792 l 322 981 l 561 981 l 678 792 l 510 792 z "},"ĩ":{"ha":850,"x_min":85,"x_max":729,"o":"m 121 167 l 354 167 l 354 522 l 138 522 l 138 689 l 529 689 l 529 167 l 729 167 l 729 0 l 121 0 l 121 167 m 385 965 q 407 942 396 953 q 438 932 418 932 q 469 941 457 932 q 492 965 481 950 l 533 1018 l 640 933 l 563 833 q 508 787 538 801 q 443 772 479 772 q 390 785 415 772 q 340 825 364 797 q 318 848 329 838 q 288 858 307 858 q 256 849 268 858 q 233 825 244 840 l 192 772 l 85 857 l 163 957 q 218 1004 189 990 q 282 1018 247 1018 q 335 1006 310 1018 q 385 965 361 993 z "},"ï":{"ha":850,"x_min":121,"x_max":743,"o":"m 121 167 l 354 167 l 354 522 l 138 522 l 138 689 l 529 689 l 529 167 l 729 167 l 729 0 l 121 0 l 121 167 m 413 893 q 402 841 413 865 q 374 799 392 817 q 331 772 356 782 q 281 761 307 761 q 229 772 253 761 q 188 799 206 782 q 159 841 169 817 q 149 893 149 865 q 159 945 149 921 q 188 987 169 969 q 229 1015 206 1004 q 281 1025 253 1025 q 331 1015 307 1025 q 374 987 356 1004 q 402 945 392 969 q 413 893 413 921 m 743 893 q 733 841 743 865 q 704 799 722 817 q 662 772 686 782 q 611 761 638 761 q 560 772 583 761 q 518 799 536 782 q 490 841 500 817 q 479 893 479 865 q 490 945 479 921 q 518 987 500 969 q 560 1015 536 1004 q 611 1025 583 1025 q 662 1015 638 1025 q 704 987 686 1004 q 733 945 722 969 q 743 893 743 921 z "},"ī":{"ha":850,"x_min":121,"x_max":729,"o":"m 529 792 l 138 792 l 138 933 l 529 933 l 529 792 m 121 167 l 354 167 l 354 522 l 138 522 l 138 689 l 529 689 l 529 167 l 729 167 l 729 0 l 121 0 l 121 167 z "},"ǐ":{"ha":850,"x_min":121,"x_max":729,"o":"m 121 167 l 354 167 l 354 522 l 138 522 l 138 689 l 529 689 l 529 167 l 729 167 l 729 0 l 121 0 l 121 167 m 649 981 l 532 792 l 293 792 l 176 981 l 344 981 l 404 858 l 421 858 l 481 981 l 649 981 z "},"į":{"ha":850,"x_min":121,"x_max":806,"o":"m 121 167 l 354 167 l 354 522 l 138 522 l 138 689 l 529 689 l 529 167 l 729 167 l 729 0 l 711 -78 q 710 -89 710 -85 q 742 -119 710 -119 l 806 -119 l 806 -236 l 694 -236 q 618 -210 653 -236 q 583 -132 583 -183 q 588 -100 583 -119 l 610 0 l 121 0 l 121 167 m 572 893 q 562 841 572 865 q 533 799 551 817 q 491 772 515 782 q 440 761 467 761 q 389 772 413 761 q 347 799 365 782 q 319 841 329 817 q 308 893 308 865 q 319 945 308 921 q 347 987 329 969 q 389 1015 365 1004 q 440 1025 413 1025 q 491 1015 467 1025 q 533 987 515 1004 q 562 945 551 969 q 572 893 572 921 z "},"ỉ":{"ha":850,"x_min":121,"x_max":729,"o":"m 121 167 l 354 167 l 354 522 l 138 522 l 138 689 l 529 689 l 529 167 l 729 167 l 729 0 l 121 0 l 121 167 m 479 758 l 465 822 l 482 822 q 504 801 489 810 q 546 792 519 792 q 633 828 604 792 q 661 914 661 864 q 617 1016 661 979 q 508 1053 574 1053 q 442 1045 468 1053 q 392 1025 415 1037 l 428 931 q 497 950 460 950 q 531 940 518 950 q 544 914 544 931 q 538 892 544 901 q 517 883 531 883 q 489 903 493 883 l 354 903 l 354 886 l 382 758 l 479 758 z "},"ị":{"ha":850,"x_min":121,"x_max":729,"o":"m 121 167 l 354 167 l 354 522 l 138 522 l 138 689 l 529 689 l 529 167 l 729 167 l 729 0 l 121 0 l 121 167 m 572 893 q 562 841 572 865 q 533 799 551 817 q 491 772 515 782 q 440 761 467 761 q 389 772 413 761 q 347 799 365 782 q 319 841 329 817 q 308 893 308 865 q 319 945 308 921 q 347 987 329 969 q 389 1015 365 1004 q 440 1025 413 1025 q 491 1015 467 1025 q 533 987 515 1004 q 562 945 551 969 q 572 893 572 921 m 572 -219 q 562 -272 572 -247 q 533 -313 551 -296 q 491 -341 515 -331 q 440 -351 467 -351 q 389 -341 413 -351 q 347 -313 365 -331 q 319 -272 329 -296 q 308 -219 308 -247 q 319 -167 308 -192 q 347 -126 329 -143 q 389 -98 365 -108 q 440 -87 413 -87 q 491 -98 467 -87 q 533 -126 515 -108 q 562 -167 551 -143 q 572 -219 572 -192 z "},"ĭ":{"ha":850,"x_min":121,"x_max":729,"o":"m 121 167 l 354 167 l 354 522 l 138 522 l 138 689 l 529 689 l 529 167 l 729 167 l 729 0 l 121 0 l 121 167 m 625 972 l 625 953 q 574 828 625 874 q 442 783 524 783 q 309 828 360 783 q 258 953 258 874 l 258 972 l 383 972 l 383 964 q 398 922 383 939 q 442 906 413 906 q 485 922 471 906 q 500 964 500 939 l 500 972 l 625 972 z "},"ı":{"ha":850,"x_min":121,"x_max":729,"o":"m 121 167 l 354 167 l 354 522 l 138 522 l 138 689 l 529 689 l 529 167 l 729 167 l 729 0 l 121 0 l 121 167 z "},"ĵ":{"ha":850,"x_min":167,"x_max":649,"o":"m 192 689 l 633 689 l 633 -136 q 594 -243 633 -208 q 493 -278 556 -278 l 167 -278 l 167 -111 l 417 -111 q 458 -65 458 -111 l 458 522 l 192 522 l 192 689 m 481 792 l 421 914 l 404 914 l 344 792 l 176 792 l 293 981 l 532 981 l 649 792 l 481 792 z "},"ķ":{"ha":850,"x_min":164,"x_max":769,"o":"m 574 -344 q 538 -433 574 -397 q 449 -469 501 -469 l 365 -469 l 365 -361 l 428 -361 q 465 -319 465 -361 l 465 -303 l 453 -303 q 406 -293 428 -303 q 368 -267 385 -283 q 342 -228 351 -250 q 332 -182 332 -207 q 342 -135 332 -157 q 368 -97 351 -114 q 406 -71 385 -81 q 453 -61 428 -61 q 499 -71 478 -61 q 538 -97 521 -81 q 564 -135 554 -114 q 574 -182 574 -157 l 574 -344 m 339 436 l 372 436 l 556 689 l 747 689 l 747 681 l 525 365 l 525 340 l 769 8 l 769 0 l 569 0 l 372 269 l 339 269 l 339 0 l 164 0 l 164 972 l 339 972 l 339 436 z "},"ĸ":{"ha":850,"x_min":164,"x_max":769,"o":"m 339 689 l 339 436 l 372 436 l 556 689 l 747 689 l 747 681 l 525 365 l 525 340 l 769 8 l 769 0 l 569 0 l 372 269 l 339 269 l 339 0 l 164 0 l 164 689 l 339 689 z "},"ĺ":{"ha":850,"x_min":104,"x_max":746,"o":"m 104 167 l 346 167 l 346 806 l 113 806 l 113 972 l 521 972 l 521 167 l 746 167 l 746 0 l 104 0 l 104 167 m 435 1269 l 621 1269 l 504 1081 l 363 1081 l 435 1269 z "},"ľ":{"ha":850,"x_min":60,"x_max":760,"o":"m 760 689 q 724 600 760 636 q 635 564 688 564 l 551 564 l 551 672 l 614 672 q 651 714 651 672 l 651 731 l 639 731 q 592 740 614 731 q 554 767 571 750 q 528 805 538 783 q 518 851 518 826 q 528 898 518 876 q 554 936 538 919 q 592 963 571 953 q 639 972 614 972 q 685 963 664 972 q 724 936 707 953 q 750 898 740 919 q 760 851 760 876 l 760 689 m 60 167 l 301 167 l 301 806 l 68 806 l 68 972 l 476 972 l 476 167 l 701 167 l 701 0 l 60 0 l 60 167 z "},"ļ":{"ha":850,"x_min":104,"x_max":746,"o":"m 554 -344 q 518 -433 554 -397 q 429 -469 482 -469 l 346 -469 l 346 -361 l 408 -361 q 446 -319 446 -361 l 446 -303 l 433 -303 q 387 -293 408 -303 q 349 -267 365 -283 q 322 -228 332 -250 q 313 -182 313 -207 q 322 -135 313 -157 q 349 -97 332 -114 q 387 -71 365 -81 q 433 -61 408 -61 q 480 -71 458 -61 q 518 -97 501 -81 q 544 -135 535 -114 q 554 -182 554 -157 l 554 -344 m 104 167 l 346 167 l 346 806 l 113 806 l 113 972 l 521 972 l 521 167 l 746 167 l 746 0 l 104 0 l 104 167 z "},"ḷ":{"ha":850,"x_min":104,"x_max":746,"o":"m 104 167 l 346 167 l 346 806 l 113 806 l 113 972 l 521 972 l 521 167 l 746 167 l 746 0 l 104 0 l 104 167 m 567 -219 q 556 -272 567 -247 q 528 -313 546 -296 q 485 -341 510 -331 q 435 -351 461 -351 q 383 -341 407 -351 q 342 -313 360 -331 q 313 -272 324 -296 q 303 -219 303 -247 q 313 -167 303 -192 q 342 -126 324 -143 q 383 -98 360 -108 q 435 -87 407 -87 q 485 -98 461 -87 q 528 -126 510 -108 q 556 -167 546 -143 q 567 -219 567 -192 z "},"ḹ":{"ha":850,"x_min":104,"x_max":746,"o":"m 104 167 l 346 167 l 346 806 l 113 806 l 113 972 l 521 972 l 521 167 l 746 167 l 746 0 l 104 0 l 104 167 m 522 1075 l 114 1075 l 114 1217 l 522 1217 l 522 1075 m 567 -219 q 556 -272 567 -247 q 528 -313 546 -296 q 485 -341 510 -331 q 435 -351 461 -351 q 383 -341 407 -351 q 342 -313 360 -331 q 313 -272 324 -296 q 303 -219 303 -247 q 313 -167 303 -192 q 342 -126 324 -143 q 383 -98 360 -108 q 435 -87 407 -87 q 485 -98 461 -87 q 528 -126 510 -108 q 556 -167 546 -143 q 567 -219 567 -192 z "},"ḻ":{"ha":850,"x_min":104,"x_max":746,"o":"m 104 167 l 346 167 l 346 806 l 113 806 l 113 972 l 521 972 l 521 167 l 746 167 l 746 0 l 104 0 l 104 167 m 629 -231 l 221 -231 l 221 -89 l 629 -89 l 629 -231 z "},"ł":{"ha":850,"x_min":104,"x_max":746,"o":"m 104 167 l 346 167 l 346 326 l 289 299 l 214 447 l 346 514 l 346 806 l 113 806 l 113 972 l 521 972 l 521 601 l 599 642 l 674 493 l 521 415 l 521 167 l 746 167 l 746 0 l 104 0 l 104 167 z "},"ŀ":{"ha":850,"x_min":71,"x_max":801,"o":"m 71 167 l 313 167 l 313 806 l 79 806 l 79 972 l 488 972 l 488 167 l 713 167 l 713 0 l 71 0 l 71 167 m 801 486 q 791 434 801 458 q 763 392 781 410 q 720 365 744 375 q 669 354 696 354 q 618 365 642 354 q 576 392 594 375 q 548 434 558 410 q 538 486 538 458 q 548 538 538 514 q 576 580 558 563 q 618 608 594 597 q 669 618 642 618 q 720 608 696 618 q 763 580 744 597 q 791 538 781 563 q 801 486 801 514 z "},"ṃ":{"ha":850,"x_min":50,"x_max":800,"o":"m 800 0 l 625 0 l 625 483 q 610 527 625 513 q 572 542 596 542 q 528 525 544 542 q 513 475 513 508 l 513 0 l 338 0 l 338 483 q 322 527 338 513 q 283 542 306 542 q 242 525 258 542 q 225 475 225 508 l 225 0 l 50 0 l 50 689 l 225 689 l 225 622 l 250 622 q 288 684 258 660 q 367 708 318 708 q 444 684 413 708 q 488 622 476 660 l 513 622 q 559 684 524 660 q 647 708 594 708 q 758 662 717 708 q 800 533 800 615 l 800 0 m 557 -219 q 547 -272 557 -247 q 518 -313 536 -296 q 476 -341 500 -331 q 425 -351 451 -351 q 374 -341 397 -351 q 332 -313 350 -331 q 303 -272 314 -296 q 293 -219 293 -247 q 303 -167 293 -192 q 332 -126 314 -143 q 374 -98 350 -108 q 425 -87 397 -87 q 476 -98 451 -87 q 518 -126 500 -108 q 547 -167 536 -143 q 557 -219 557 -192 z "}}}
